<svg width="26" height="12" viewBox="0 0 26 12" fill="none" xmlns="http://www.w3.org/2000/svg" xmlns:xlink="http://www.w3.org/1999/xlink">
<path d="M3.936,0.631C3.63,0.995 3.141,1.282 2.652,1.241C2.591,0.749 2.831,0.226 3.111,-0.097C3.416,-0.471 3.951,-0.738 4.384,-0.759C4.435,-0.246 4.236,0.257 3.936,0.631ZM4.379,1.338C3.948,1.314 3.555,1.469 3.238,1.594C3.033,1.675 2.86,1.744 2.729,1.744C2.581,1.744 2.401,1.671 2.199,1.591C1.934,1.485 1.631,1.363 1.313,1.369C0.585,1.379 -0.092,1.795 -0.464,2.456C-1.228,3.779 -0.663,5.738 0.076,6.814C0.437,7.348 0.87,7.932 1.44,7.912C1.691,7.902 1.872,7.825 2.059,7.745C2.274,7.653 2.497,7.558 2.846,7.558C3.183,7.558 3.396,7.651 3.601,7.74C3.796,7.825 3.984,7.906 4.262,7.901C4.852,7.891 5.224,7.368 5.586,6.835C5.976,6.263 6.147,5.704 6.173,5.619L6.176,5.609C6.176,5.609 6.171,5.607 6.162,5.603L6.162,5.603L6.162,5.603C6.032,5.543 5.035,5.083 5.025,3.851C5.016,2.817 5.816,2.293 5.942,2.21L5.957,2.2C5.448,1.441 4.654,1.359 4.379,1.338ZM8.468,7.845L8.468,-0.148L11.447,-0.148C12.984,-0.148 14.059,0.918 14.059,2.477C14.059,4.035 12.964,5.112 11.406,5.112L9.7,5.112L9.7,7.845L8.468,7.845ZM9.7,0.898L11.121,0.898C12.19,0.898 12.801,1.472 12.801,2.482C12.801,3.492 12.19,4.071 11.116,4.071L9.7,4.071L9.7,0.898ZM18.128,6.886C17.802,7.512 17.084,7.906 16.31,7.906C15.164,7.906 14.365,7.219 14.365,6.184C14.365,5.158 15.139,4.569 16.569,4.481L18.107,4.389L18.107,3.948C18.107,3.297 17.685,2.943 16.931,2.943C16.31,2.943 15.857,3.266 15.765,3.759L14.655,3.759C14.69,2.723 15.658,1.969 16.967,1.969C18.377,1.969 19.294,2.713 19.294,3.866L19.294,7.845L18.153,7.845L18.153,6.886L18.128,6.886ZM16.641,6.958C15.984,6.958 15.566,6.64 15.566,6.153C15.566,5.65 15.968,5.358 16.737,5.312L18.107,5.225L18.107,5.676C18.107,6.425 17.476,6.958 16.641,6.958ZM23.077,8.158C22.583,9.557 22.018,10.019 20.816,10.019C20.725,10.019 20.419,10.009 20.348,9.988L20.348,9.029C20.424,9.04 20.613,9.05 20.709,9.05C21.254,9.05 21.56,8.819 21.748,8.219L21.86,7.865L19.772,2.046L21.061,2.046L22.512,6.768L22.537,6.768L23.989,2.046L25.241,2.046L23.077,8.158Z" clip-rule="evenodd" fill-rule="evenodd" fill="#000000"/>
</svg>
