<svg width="40" height="40" viewBox="0 0 40 40" fill="none" xmlns="http://www.w3.org/2000/svg" xmlns:xlink="http://www.w3.org/1999/xlink">
<path d="M20.617,3.583L20.153,4.744L20.153,4.744L20.617,3.583ZM35.617,9.583L36.081,8.422L36.081,8.422L35.617,9.583ZM4.384,9.583L3.919,8.422L3.919,8.422L4.384,9.583ZM19.383,3.583L19.848,4.744L19.848,4.744L19.383,3.583ZM20.153,4.744L35.152,10.743L36.081,8.422L21.081,2.422L20.153,4.744ZM35.152,10.743C35.152,10.743 35.158,10.746 35.169,10.752C35.18,10.759 35.195,10.77 35.212,10.785C35.248,10.816 35.288,10.859 35.324,10.913C35.36,10.966 35.386,11.019 35.401,11.065C35.416,11.111 35.417,11.134 35.417,11.133L37.917,11.133C37.917,10.526 37.695,9.957 37.397,9.515C37.099,9.073 36.653,8.651 36.081,8.422L35.152,10.743ZM35.417,11.133L35.417,16.666L37.917,16.666L37.917,11.133L35.417,11.133ZM35.417,16.666C35.417,16.893 35.226,17.083 35,17.083L35,19.583C36.607,19.583 37.917,18.273 37.917,16.666L35.417,16.666ZM35,17.083L5,17.083L5,19.583L35,19.583L35,17.083ZM5,17.083C4.774,17.083 4.583,16.893 4.583,16.666L2.083,16.666C2.083,18.273 3.393,19.583 5,19.583L5,17.083ZM4.583,16.666L4.583,11.133L2.083,11.133L2.083,16.666L4.583,16.666ZM4.583,11.133C4.583,11.134 4.584,11.111 4.599,11.065C4.615,11.019 4.64,10.966 4.676,10.913C4.712,10.859 4.752,10.816 4.788,10.785C4.806,10.77 4.82,10.759 4.831,10.752C4.842,10.746 4.848,10.743 4.848,10.743L3.919,8.422C3.348,8.651 2.902,9.073 2.603,9.515C2.305,9.957 2.083,10.526 2.083,11.133L4.583,11.133ZM4.848,10.743L19.848,4.744L18.919,2.422L3.919,8.422L4.848,10.743ZM19.848,4.744C19.824,4.753 19.827,4.749 19.866,4.743C19.901,4.737 19.947,4.733 20,4.733C20.053,4.733 20.1,4.737 20.135,4.743C20.173,4.749 20.177,4.753 20.153,4.744L21.081,2.422C20.719,2.277 20.323,2.233 20,2.233C19.677,2.233 19.281,2.277 18.919,2.422L19.848,4.744Z" fill="#027FEE"/>
<path d="M36.667,36.667L36.667,37.917C37.357,37.917 37.917,37.357 37.917,36.667L36.667,36.667ZM3.333,36.667L2.083,36.667C2.083,37.357 2.643,37.917 3.333,37.917L3.333,36.667ZM36.667,35.417L3.333,35.417L3.333,37.917L36.667,37.917L36.667,35.417ZM4.583,36.667L4.583,31.667L2.083,31.667L2.083,36.667L4.583,36.667ZM4.583,31.667C4.583,31.44 4.774,31.25 5,31.25L5,28.75C3.393,28.75 2.083,30.06 2.083,31.667L4.583,31.667ZM5,31.25L35,31.25L35,28.75L5,28.75L5,31.25ZM35,31.25C35.226,31.25 35.417,31.44 35.417,31.667L37.917,31.667C37.917,30.06 36.607,28.75 35,28.75L35,31.25ZM35.417,31.667L35.417,36.667L37.917,36.667L37.917,31.667L35.417,31.667Z" fill="#027FEE"/>
<line x1="5.417" y1="18.333" x2="5.417" y2="30" stroke="#027FEE" stroke-width="1.25" stroke-miterlimit="10" stroke-linecap="round" stroke-linejoin="round"/>
<line x1="12.083" y1="18.333" x2="12.083" y2="30" stroke="#027FEE" stroke-width="1.25" stroke-miterlimit="10" stroke-linecap="round" stroke-linejoin="round"/>
<line x1="18.75" y1="18.333" x2="18.75" y2="30" stroke="#027FEE" stroke-width="1.25" stroke-miterlimit="10" stroke-linecap="round" stroke-linejoin="round"/>
<line x1="25.417" y1="18.333" x2="25.417" y2="30" stroke="#027FEE" stroke-width="1.25" stroke-miterlimit="10" stroke-linecap="round" stroke-linejoin="round"/>
<line x1="32.083" y1="18.333" x2="32.083" y2="30" stroke="#027FEE" stroke-width="1.25" stroke-miterlimit="10" stroke-linecap="round" stroke-linejoin="round"/>
<line x1="1.667" y1="35.417" x2="38.333" y2="35.417" stroke="#027FEE" stroke-width="1.25" stroke-miterlimit="10" stroke-linecap="round" stroke-linejoin="round"/>
<path d="M21.25,11.667C21.25,12.357 20.69,12.917 20,12.917L20,15.417C22.071,15.417 23.75,13.738 23.75,11.667L21.25,11.667ZM20,12.917C19.31,12.917 18.75,12.357 18.75,11.667L16.25,11.667C16.25,13.738 17.929,15.417 20,15.417L20,12.917ZM18.75,11.667C18.75,10.976 19.31,10.417 20,10.417L20,7.917C17.929,7.917 16.25,9.595 16.25,11.667L18.75,11.667ZM20,10.417C20.69,10.417 21.25,10.976 21.25,11.667L23.75,11.667C23.75,9.595 22.071,7.917 20,7.917L20,10.417Z" fill="#027FEE"/>
</svg>
