<svg width="40" height="40" viewBox="0 0 40 40" fill="none" xmlns="http://www.w3.org/2000/svg" xmlns:xlink="http://www.w3.org/1999/xlink">
<path d="M20.616,3.583L20.152,4.744L20.152,4.744L20.616,3.583ZM35.616,9.583L36.081,8.423L36.081,8.423L35.616,9.583ZM4.383,9.583L3.919,8.423L3.919,8.423L4.383,9.583ZM19.383,3.583L19.847,4.744L19.847,4.744L19.383,3.583ZM20.152,4.744L35.152,10.744L36.081,8.423L21.081,2.423L20.152,4.744ZM35.152,10.744C35.152,10.744 35.158,10.746 35.169,10.753C35.18,10.76 35.194,10.77 35.212,10.785C35.248,10.816 35.288,10.86 35.324,10.913C35.36,10.967 35.385,11.02 35.4,11.065C35.416,11.111 35.416,11.135 35.416,11.133L37.916,11.133C37.916,10.526 37.694,9.958 37.397,9.516C37.098,9.073 36.652,8.651 36.081,8.423L35.152,10.744ZM35.416,11.133L35.416,16.667L37.916,16.667L37.916,11.133L35.416,11.133ZM35.416,16.667C35.416,16.893 35.226,17.083 35,17.083L35,19.583C36.607,19.583 37.916,18.274 37.916,16.667L35.416,16.667ZM35,17.083L5,17.083L5,19.583L35,19.583L35,17.083ZM5,17.083C4.773,17.083 4.583,16.893 4.583,16.667L2.083,16.667C2.083,18.274 3.393,19.583 5,19.583L5,17.083ZM4.583,16.667L4.583,11.133L2.083,11.133L2.083,16.667L4.583,16.667ZM4.583,11.133C4.583,11.135 4.583,11.111 4.599,11.065C4.614,11.02 4.64,10.967 4.676,10.913C4.712,10.86 4.751,10.816 4.787,10.785C4.805,10.77 4.82,10.76 4.831,10.753C4.842,10.746 4.848,10.744 4.847,10.744L3.919,8.423C3.347,8.651 2.901,9.073 2.603,9.516C2.305,9.958 2.083,10.526 2.083,11.133L4.583,11.133ZM4.847,10.744L19.847,4.744L18.919,2.423L3.919,8.423L4.847,10.744ZM19.847,4.744C19.823,4.754 19.827,4.749 19.865,4.743C19.9,4.737 19.947,4.733 20,4.733C20.052,4.733 20.099,4.737 20.134,4.743C20.173,4.749 20.176,4.754 20.152,4.744L21.081,2.423C20.719,2.278 20.323,2.233 20,2.233C19.677,2.233 19.281,2.278 18.919,2.423L19.847,4.744Z" fill="#027FEE"/>
<path d="M36.666,36.667L36.666,37.917C37.357,37.917 37.916,37.357 37.916,36.667L36.666,36.667ZM3.333,36.667L2.083,36.667C2.083,37.357 2.643,37.917 3.333,37.917L3.333,36.667ZM36.666,35.417L3.333,35.417L3.333,37.917L36.666,37.917L36.666,35.417ZM4.583,36.667L4.583,31.667L2.083,31.667L2.083,36.667L4.583,36.667ZM4.583,31.667C4.583,31.44 4.773,31.25 5,31.25L5,28.75C3.393,28.75 2.083,30.06 2.083,31.667L4.583,31.667ZM5,31.25L35,31.25L35,28.75L5,28.75L5,31.25ZM35,31.25C35.226,31.25 35.416,31.44 35.416,31.667L37.916,31.667C37.916,30.06 36.607,28.75 35,28.75L35,31.25ZM35.416,31.667L35.416,36.667L37.916,36.667L37.916,31.667L35.416,31.667Z" fill="#027FEE"/>
<line x1="5.417" y1="18.333" x2="5.417" y2="30" stroke="#027FEE" stroke-width="1.25" stroke-miterlimit="10" stroke-linecap="round" stroke-linejoin="round"/>
<line x1="12.083" y1="18.333" x2="12.083" y2="30" stroke="#027FEE" stroke-width="1.25" stroke-miterlimit="10" stroke-linecap="round" stroke-linejoin="round"/>
<line x1="18.75" y1="18.333" x2="18.75" y2="30" stroke="#027FEE" stroke-width="1.25" stroke-miterlimit="10" stroke-linecap="round" stroke-linejoin="round"/>
<line x1="25.417" y1="18.333" x2="25.417" y2="30" stroke="#027FEE" stroke-width="1.25" stroke-miterlimit="10" stroke-linecap="round" stroke-linejoin="round"/>
<line x1="32.083" y1="18.333" x2="32.083" y2="30" stroke="#027FEE" stroke-width="1.25" stroke-miterlimit="10" stroke-linecap="round" stroke-linejoin="round"/>
<line x1="1.667" y1="35.417" x2="38.334" y2="35.417" stroke="#027FEE" stroke-width="1.25" stroke-miterlimit="10" stroke-linecap="round" stroke-linejoin="round"/>
<path d="M21.25,11.667C21.25,12.357 20.69,12.917 20,12.917L20,15.417C22.071,15.417 23.75,13.738 23.75,11.667L21.25,11.667ZM20,12.917C19.31,12.917 18.75,12.357 18.75,11.667L16.25,11.667C16.25,13.738 17.929,15.417 20,15.417L20,12.917ZM18.75,11.667C18.75,10.976 19.31,10.417 20,10.417L20,7.917C17.929,7.917 16.25,9.595 16.25,11.667L18.75,11.667ZM20,10.417C20.69,10.417 21.25,10.976 21.25,11.667L23.75,11.667C23.75,9.595 22.071,7.917 20,7.917L20,10.417Z" fill="#027FEE"/>
</svg>
