<svg width="48" height="24" viewBox="0 0 48 24" fill="none" xmlns="http://www.w3.org/2000/svg" xmlns:xlink="http://www.w3.org/1999/xlink">
<g opacity="0.35" style="isolation:isolate">
<path d="M0.567,6.822C0.567,3.093 3.59,0.07 7.319,0.07L36.013,0.07C39.742,0.07 42.765,3.093 42.765,6.822L42.765,15.261C42.765,18.99 39.742,22.013 36.013,22.013L7.319,22.013C3.59,22.013 0.567,18.99 0.567,15.261L0.567,6.822Z" clip-rule="evenodd" fill-rule="evenodd" stroke="#000000" stroke-width="0.89" stroke-miterlimit="3.999327"/>
</g>
<g opacity="0.4" style="isolation:isolate">
<path d="M44.452,8.51L44.452,15.633C45.886,15.03 46.818,13.626 46.818,12.071C46.818,10.517 45.886,9.113 44.452,8.51Z" fill="#000000"/>
</g>
<path d="M3.943,6.822C3.943,4.957 5.454,3.446 7.319,3.446L36.013,3.446C37.877,3.446 39.389,4.957 39.389,6.822L39.389,15.261C39.389,17.126 37.877,18.637 36.013,18.637L7.319,18.637C5.454,18.637 3.943,17.126 3.943,15.261L3.943,6.822Z" fill="#1D1C1C"/>
</svg>
