<svg width="40" height="34" viewBox="0 0 40 34" fill="none" xmlns="http://www.w3.org/2000/svg" xmlns:xlink="http://www.w3.org/1999/xlink">
<path d="M20,-0.856C8.954,-0.856 0,6.501 0,15.577C0,24.653 8.954,32.011 20,32.011C31.046,32.011 40,24.653 40,15.577C40,6.501 31.046,-0.856 20,-0.856ZM20,28.724C11.163,28.724 4,22.838 4,15.577C4,8.316 11.163,2.43 20,2.43C28.837,2.43 36,8.316 36,15.577C36,19.064 34.314,22.408 31.314,24.874C28.313,27.339 24.243,28.724 20,28.724ZM28,17.746C27.714,18.445 26.896,18.902 26,18.864C25.783,18.859 25.568,18.832 25.36,18.782L19.36,17.138C18.545,16.912 17.998,16.284 18,15.577L18,7.36C18,6.453 18.895,5.717 20,5.717C21.105,5.717 22,6.453 22,7.36L22,14.394L26.64,15.659C27.163,15.781 27.604,16.072 27.86,16.465C28.117,16.859 28.167,17.322 28,17.746Z" clip-rule="evenodd" fill-rule="evenodd" fill="#212120"/>
</svg>
