<svg width="40" height="34" viewBox="0 0 40 34" fill="none" xmlns="http://www.w3.org/2000/svg" xmlns:xlink="http://www.w3.org/1999/xlink">
<path d="M20,-0.81C8.954,-0.81 0,6.548 0,15.624C0,24.7 8.954,32.058 20,32.058C31.046,32.058 40,24.7 40,15.624C40,6.548 31.046,-0.81 20,-0.81ZM20,28.771C11.163,28.771 4,22.885 4,15.624C4,8.363 11.163,2.477 20,2.477C28.837,2.477 36,8.363 36,15.624C36,19.111 34.314,22.455 31.314,24.92C28.313,27.386 24.243,28.771 20,28.771ZM28,17.793C27.714,18.492 26.896,18.949 26,18.911C25.783,18.906 25.568,18.879 25.36,18.829L19.36,17.185C18.545,16.959 17.998,16.331 18,15.624L18,7.407C18,6.5 18.895,5.764 20,5.764C21.105,5.764 22,6.5 22,7.407L22,14.441L26.64,15.706C27.163,15.828 27.604,16.118 27.86,16.512C28.117,16.906 28.167,17.368 28,17.793Z" clip-rule="evenodd" fill-rule="evenodd" fill="#212120"/>
</svg>
