<svg width="48" height="48" viewBox="0 0 48 48" fill="none" xmlns="http://www.w3.org/2000/svg" xmlns:xlink="http://www.w3.org/1999/xlink">
<path d="M24,45.5C35.828,45.5 45.5,35.828 45.5,24L42.5,24C42.5,34.172 34.172,42.5 24,42.5L24,45.5ZM45.5,24C45.5,12.172 35.828,2.5 24,2.5L24,5.5C34.172,5.5 42.5,13.828 42.5,24L45.5,24ZM24,2.5C12.172,2.5 2.5,12.172 2.5,24L5.5,24C5.5,13.828 13.828,5.5 24,5.5L24,2.5ZM2.5,24C2.5,35.828 12.172,45.5 24,45.5L24,42.5C13.828,42.5 5.5,34.172 5.5,24L2.5,24Z" fill="#000000"/>
<path d="M17.279,28.599C16.693,29.185 16.693,30.135 17.279,30.721C17.865,31.306 18.815,31.306 19.401,30.721L17.279,28.599ZM30.721,19.401C31.306,18.815 31.306,17.865 30.721,17.279C30.135,16.693 29.185,16.693 28.599,17.279L30.721,19.401ZM19.401,30.721L30.721,19.401L28.599,17.279L17.279,28.599L19.401,30.721Z" fill="#000000"/>
<path d="M28.599,30.721C29.185,31.306 30.135,31.306 30.721,30.721C31.306,30.135 31.306,29.185 30.721,28.599L28.599,30.721ZM19.401,17.279C18.815,16.693 17.865,16.693 17.279,17.279C16.693,17.865 16.693,18.815 17.279,19.401L19.401,17.279ZM30.721,28.599L19.401,17.279L17.279,19.401L28.599,30.721L30.721,28.599Z" fill="#000000"/>
</svg>
