<svg width="750" height="88" viewBox="0 0 750 88" fill="none" xmlns="http://www.w3.org/2000/svg" xmlns:xlink="http://www.w3.org/1999/xlink">
<rect  x="0" y="0" width="750" height="88" fill="#FFFFFF"/>
<rect  x="0" y="0" width="750" height="88" fill="#FFFFFF"/>
<path d="M398.828,39.17L378.828,19.17C378.077,18.42 377.06,17.999 376,17.999C374.94,17.999 373.923,18.42 373.173,19.17L353.173,39.17C352.799,39.541 352.503,39.981 352.302,40.467C352.101,40.953 351.998,41.474 352,42L352,66C352,66.53 352.211,67.039 352.586,67.414C352.961,67.789 353.47,68 354,68L370,68C370.53,68 371.039,67.789 371.414,67.414C371.789,67.039 372,66.53 372,66L372,52L380,52L380,66C380,66.53 380.211,67.039 380.586,67.414C380.961,67.789 381.47,68 382,68L398,68C398.53,68 399.039,67.789 399.414,67.414C399.789,67.039 400,66.53 400,66L400,42C400.002,41.474 399.899,40.953 399.698,40.467C399.497,39.981 399.201,39.541 398.828,39.17ZM396,64L384,64L384,50C384,49.47 383.789,48.961 383.414,48.586C383.039,48.211 382.53,48 382,48L370,48C369.47,48 368.961,48.211 368.586,48.586C368.211,48.961 368,49.47 368,50L368,64L356,64L356,42L376,22L396,42L396,64Z" fill="#343330"/>
<path d="M660,16C654.858,16 649.831,17.525 645.555,20.382C641.279,23.239 637.947,27.299 635.979,32.05C634.011,36.801 633.496,42.029 634.5,47.072C635.503,52.116 637.979,56.749 641.615,60.385C645.251,64.021 649.884,66.497 654.928,67.5C659.971,68.504 665.199,67.989 669.95,66.021C674.701,64.053 678.761,60.721 681.618,56.445C684.475,52.169 686,47.142 686,42C685.993,35.107 683.251,28.498 678.377,23.623C673.502,18.749 666.893,16.007 660,16ZM646.52,59.375C647.967,57.112 649.96,55.25 652.316,53.96C654.672,52.67 657.314,51.994 660,51.994C662.686,51.994 665.328,52.67 667.684,53.96C670.04,55.25 672.033,57.112 673.48,59.375C669.626,62.372 664.883,64 660,64C655.117,64 650.374,62.372 646.52,59.375ZM652,40C652,38.418 652.469,36.871 653.348,35.555C654.227,34.24 655.477,33.214 656.939,32.609C658.4,32.003 660.009,31.845 661.561,32.154C663.113,32.462 664.538,33.224 665.657,34.343C666.776,35.462 667.538,36.887 667.846,38.439C668.155,39.991 667.997,41.6 667.391,43.061C666.786,44.523 665.76,45.773 664.445,46.652C663.129,47.531 661.582,48 660,48C657.878,48 655.843,47.157 654.343,45.657C652.843,44.157 652,42.122 652,40ZM676.44,56.603C674.209,53.37 671.073,50.87 667.425,49.415C669.385,47.872 670.814,45.756 671.516,43.362C672.217,40.969 672.155,38.416 671.339,36.059C670.522,33.702 668.991,31.658 666.959,30.212C664.927,28.765 662.494,27.988 660,27.988C657.506,27.988 655.073,28.765 653.041,30.212C651.009,31.658 649.478,33.702 648.661,36.059C647.845,38.416 647.783,40.969 648.484,43.362C649.186,45.756 650.615,47.872 652.575,49.415C648.927,50.87 645.791,53.37 643.56,56.603C640.741,53.433 638.899,49.516 638.255,45.324C637.611,41.131 638.193,36.842 639.93,32.973C641.667,29.103 644.486,25.818 648.047,23.514C651.607,21.209 655.758,19.983 660,19.983C664.242,19.983 668.393,21.209 671.954,23.514C675.514,25.818 678.333,29.103 680.07,32.973C681.807,36.842 682.389,41.131 681.745,45.324C681.101,49.516 679.259,53.433 676.44,56.603Z" fill="#343330"/>
<path d="M128.835,28L111.97,11.02C107.466,6.525 101.362,4 94.999,4C88.635,4 82.532,6.525 78.027,11.02L78.005,11.043L74.562,14.6C74.206,14.983 74.014,15.491 74.027,16.014C74.041,16.538 74.259,17.035 74.635,17.399C75.011,17.763 75.515,17.966 76.038,17.962C76.562,17.959 77.063,17.751 77.435,17.383L80.867,13.838C82.248,12.457 83.824,11.286 85.545,10.363L97.17,22L73.17,46C72.798,46.371 72.504,46.812 72.303,47.298C72.102,47.783 71.998,48.303 71.998,48.829C71.998,49.354 72.102,49.874 72.303,50.36C72.504,50.845 72.798,51.286 73.17,51.657L78.342,56.83C78.714,57.202 79.155,57.496 79.64,57.697C80.126,57.898 80.646,58.002 81.171,58.002C81.697,58.002 82.217,57.898 82.702,57.697C83.188,57.496 83.628,57.202 84,56.83L108,32.83L111.585,36.415L116,40.825C116.371,41.197 116.812,41.491 117.298,41.692C117.783,41.893 118.303,41.997 118.829,41.997C119.354,41.997 119.874,41.893 120.36,41.692C120.845,41.491 121.286,41.197 121.657,40.825L128.83,33.652C129.579,32.903 130.001,31.887 130.002,30.827C130.003,29.767 129.583,28.751 128.835,28ZM81.17,54L76,48.827L93,31.827L98.17,37L81.17,54ZM106.585,28.58L101,34.167L95.827,29L101.415,23.413C101.601,23.227 101.748,23.006 101.849,22.763C101.95,22.521 102.001,22.26 102.001,21.998C102.001,21.735 101.95,21.474 101.849,21.232C101.748,20.989 101.601,20.768 101.415,20.583L89.58,8.75C92.999,7.787 96.613,7.752 100.051,8.649C103.488,9.546 106.624,11.342 109.137,13.853L120.192,24.98L113,32.165L109.415,28.58C109.229,28.394 109.009,28.247 108.766,28.146C108.523,28.045 108.263,27.993 108,27.993C107.737,27.993 107.477,28.045 107.234,28.146C106.991,28.247 106.771,28.394 106.585,28.58ZM118.835,37.995L115.835,34.995L123,27.812L126,30.812L118.835,37.995Z" fill="#343330"/>
<path d="M105.535,30.717C105.347,30.493 105.112,30.312 104.847,30.188C104.582,30.064 104.293,30 104,30L63.67,30L62.15,21.642C62.066,21.182 61.823,20.765 61.464,20.465C61.104,20.165 60.651,20 60.182,20L54,20C53.47,20 52.961,20.211 52.586,20.586C52.211,20.961 52,21.47 52,22C52,22.53 52.211,23.039 52.586,23.414C52.961,23.789 53.47,24 54,24L58.5,24L64.89,59.072C65.078,60.113 65.538,61.085 66.222,61.89C65.278,62.773 64.596,63.9 64.252,65.146C63.909,66.392 63.917,67.71 64.277,68.952C64.636,70.194 65.332,71.312 66.289,72.182C67.245,73.053 68.423,73.641 69.693,73.882C70.964,74.124 72.276,74.009 73.485,73.55C74.693,73.091 75.752,72.307 76.542,71.283C77.332,70.26 77.823,69.037 77.961,67.752C78.099,66.466 77.878,65.168 77.323,64L88.678,64C88.23,64.937 87.999,65.962 88,67C88,68.384 88.411,69.738 89.18,70.889C89.949,72.04 91.042,72.937 92.321,73.467C93.6,73.997 95.008,74.136 96.366,73.865C97.723,73.595 98.971,72.929 99.95,71.95C100.929,70.971 101.595,69.723 101.865,68.366C102.136,67.008 101.997,65.6 101.467,64.321C100.937,63.042 100.04,61.949 98.889,61.18C97.738,60.411 96.384,60 95,60L70.792,60C70.324,60 69.871,59.835 69.511,59.535C69.152,59.235 68.909,58.818 68.825,58.357L68.033,54L97.033,54C98.438,54 99.798,53.506 100.877,52.606C101.955,51.705 102.684,50.455 102.935,49.072L105.975,32.358C106.026,32.069 106.014,31.772 105.938,31.488C105.862,31.205 105.724,30.942 105.535,30.717ZM74,67C74,67.593 73.824,68.173 73.494,68.667C73.165,69.16 72.696,69.545 72.148,69.772C71.6,69.999 70.997,70.058 70.415,69.942C69.833,69.827 69.298,69.541 68.879,69.121C68.459,68.702 68.173,68.167 68.058,67.585C67.942,67.003 68.001,66.4 68.228,65.852C68.455,65.304 68.84,64.835 69.333,64.506C69.827,64.176 70.407,64 71,64C71.796,64 72.559,64.316 73.121,64.879C73.684,65.441 74,66.204 74,67ZM98,67C98,67.593 97.824,68.173 97.494,68.667C97.165,69.16 96.696,69.545 96.148,69.772C95.6,69.999 94.997,70.058 94.415,69.942C93.833,69.827 93.298,69.541 92.879,69.121C92.459,68.702 92.173,68.167 92.058,67.585C91.942,67.003 92.001,66.4 92.228,65.852C92.455,65.304 92.84,64.835 93.333,64.506C93.827,64.176 94.407,64 95,64C95.796,64 96.559,64.316 97.121,64.879C97.684,65.441 98,66.204 98,67ZM99,48.357C98.916,48.82 98.672,49.237 98.311,49.538C97.95,49.838 97.495,50.002 97.025,50L67.305,50L64.398,34L101.603,34L99,48.357Z" fill="#343330"/>
</svg>
