<svg width="752" height="88" viewBox="0 0 752 88" fill="none" xmlns="http://www.w3.org/2000/svg" xmlns:xlink="http://www.w3.org/1999/xlink">
<g filter="url(#filter217_2153)">
<rect  x="0" y="0" width="752" height="88" fill="#FFFFFF"/>
<rect  x="0" y="0" width="752" height="88" fill="#FFFFFF"/>
<path d="M399.891,39.17L379.838,19.17C379.086,18.42 378.066,17.999 377.003,17.999C375.94,17.999 374.92,18.42 374.168,19.17L354.115,39.17C353.74,39.541 353.444,39.981 353.242,40.467C353.04,40.953 352.937,41.474 352.939,42L352.939,66C352.939,66.53 353.15,67.039 353.526,67.414C353.902,67.789 354.412,68 354.944,68L370.987,68C371.519,68 372.029,67.789 372.405,67.414C372.781,67.039 372.992,66.53 372.992,66L372.992,52L381.014,52L381.014,66C381.014,66.53 381.225,67.039 381.601,67.414C381.977,67.789 382.487,68 383.019,68L399.062,68C399.594,68 400.104,67.789 400.48,67.414C400.856,67.039 401.067,66.53 401.067,66L401.067,42C401.069,41.474 400.966,40.953 400.764,40.467C400.562,39.981 400.266,39.541 399.891,39.17ZM397.056,64L385.024,64L385.024,50C385.024,49.47 384.813,48.961 384.437,48.586C384.061,48.211 383.551,48 383.019,48L370.987,48C370.455,48 369.945,48.211 369.569,48.586C369.193,48.961 368.982,49.47 368.982,50L368.982,64L356.95,64L356.95,42L377.003,22L397.056,42L397.056,64Z" fill="#343330"/>
<path d="M661.76,16C656.604,16 651.564,17.525 647.277,20.382C642.99,23.239 639.648,27.299 637.675,32.05C635.702,36.801 635.186,42.029 636.192,47.072C637.198,52.116 639.681,56.749 643.326,60.385C646.972,64.021 651.617,66.497 656.674,67.5C661.731,68.504 666.973,67.989 671.737,66.021C676.5,64.053 680.572,60.721 683.436,56.445C686.301,52.169 687.83,47.142 687.83,42C687.822,35.107 685.073,28.498 680.186,23.623C675.299,18.749 668.672,16.007 661.76,16ZM648.244,59.375C649.695,57.112 651.693,55.25 654.056,53.96C656.418,52.67 659.067,51.994 661.76,51.994C664.453,51.994 667.103,52.67 669.465,53.96C671.827,55.25 673.826,57.112 675.276,59.375C671.412,62.372 666.656,64 661.76,64C656.865,64 652.109,62.372 648.244,59.375ZM653.739,40C653.739,38.418 654.209,36.871 655.091,35.555C655.972,34.24 657.225,33.214 658.691,32.609C660.156,32.003 661.769,31.845 663.325,32.154C664.881,32.462 666.31,33.224 667.432,34.343C668.554,35.462 669.318,36.887 669.628,38.439C669.937,39.991 669.778,41.6 669.171,43.061C668.564,44.523 667.536,45.773 666.217,46.652C664.898,47.531 663.347,48 661.76,48C659.633,48 657.593,47.157 656.088,45.657C654.584,44.157 653.739,42.122 653.739,40ZM678.244,56.603C676.008,53.37 672.863,50.87 669.205,49.415C671.17,47.872 672.604,45.756 673.307,43.362C674.01,40.969 673.948,38.416 673.129,36.059C672.31,33.702 670.775,31.658 668.738,30.212C666.7,28.765 664.261,27.988 661.76,27.988C659.259,27.988 656.82,28.765 654.783,30.212C652.745,31.658 651.21,33.702 650.391,36.059C649.573,38.416 649.51,40.969 650.214,43.362C650.917,45.756 652.351,47.872 654.315,49.415C650.658,50.87 647.513,53.37 645.276,56.603C642.45,53.433 640.603,49.516 639.957,45.324C639.312,41.131 639.895,36.842 641.637,32.973C643.378,29.103 646.205,25.818 649.775,23.514C653.345,21.209 657.507,19.983 661.76,19.983C666.013,19.983 670.175,21.209 673.746,23.514C677.316,25.818 680.142,29.103 681.884,32.973C683.626,36.842 684.209,41.131 683.563,45.324C682.917,49.516 681.07,53.433 678.244,56.603Z" fill="#343330"/>
<path d="M129.178,28L112.268,11.02C107.752,6.525 101.632,4 95.252,4C88.871,4 82.752,6.525 78.235,11.02L78.213,11.043L74.761,14.6C74.404,14.983 74.211,15.491 74.225,16.014C74.238,16.538 74.457,17.035 74.834,17.399C75.211,17.763 75.716,17.966 76.241,17.962C76.766,17.959 77.269,17.751 77.641,17.383L81.083,13.838C82.468,12.457 84.048,11.286 85.773,10.363L97.429,22L73.365,46C72.992,46.371 72.697,46.812 72.495,47.298C72.294,47.783 72.19,48.303 72.19,48.829C72.19,49.354 72.294,49.874 72.495,50.36C72.697,50.845 72.992,51.286 73.365,51.657L78.551,56.83C78.924,57.202 79.366,57.496 79.853,57.697C80.339,57.898 80.861,58.002 81.388,58.002C81.914,58.002 82.436,57.898 82.923,57.697C83.409,57.496 83.851,57.202 84.224,56.83L108.288,32.83L111.882,36.415L116.309,40.825C116.682,41.197 117.124,41.491 117.611,41.692C118.097,41.893 118.619,41.997 119.146,41.997C119.672,41.997 120.194,41.893 120.681,41.692C121.167,41.491 121.609,41.197 121.982,40.825L129.173,33.652C129.925,32.903 130.348,31.887 130.348,30.827C130.349,29.767 129.929,28.751 129.178,28ZM81.386,54L76.203,48.827L93.248,31.827L98.432,37L81.386,54ZM106.869,28.58L101.269,34.167L96.083,29L101.685,23.413C101.872,23.227 102.02,23.006 102.121,22.763C102.222,22.521 102.273,22.26 102.273,21.998C102.273,21.735 102.222,21.474 102.121,21.232C102.02,20.989 101.872,20.768 101.685,20.583L89.819,8.75C93.247,7.787 96.871,7.752 100.317,8.649C103.764,9.546 106.909,11.342 109.428,13.853L120.513,24.98L113.301,32.165L109.707,28.58C109.52,28.394 109.299,28.247 109.056,28.146C108.812,28.045 108.551,27.993 108.288,27.993C108.024,27.993 107.763,28.045 107.52,28.146C107.277,28.247 107.055,28.394 106.869,28.58ZM119.152,37.995L116.144,34.995L123.328,27.812L126.336,30.812L119.152,37.995Z" fill="#343330"/>
<path d="M105.816,30.717C105.628,30.493 105.393,30.312 105.127,30.188C104.861,30.064 104.571,30 104.277,30L63.84,30L62.316,21.642C62.232,21.182 61.988,20.765 61.628,20.465C61.267,20.165 60.813,20 60.343,20L54.144,20C53.612,20 53.102,20.211 52.726,20.586C52.35,20.961 52.139,21.47 52.139,22C52.139,22.53 52.35,23.039 52.726,23.414C53.102,23.789 53.612,24 54.144,24L58.656,24L65.063,59.072C65.252,60.113 65.713,61.085 66.399,61.89C65.452,62.773 64.768,63.9 64.423,65.146C64.079,66.392 64.088,67.71 64.448,68.952C64.808,70.194 65.507,71.312 66.465,72.182C67.424,73.053 68.606,73.641 69.879,73.882C71.153,74.124 72.469,74.009 73.681,73.55C74.893,73.091 75.953,72.307 76.746,71.283C77.538,70.26 78.03,69.037 78.169,67.752C78.307,66.466 78.085,65.168 77.529,64L88.914,64C88.465,64.937 88.233,65.962 88.235,67C88.235,68.384 88.646,69.738 89.417,70.889C90.189,72.04 91.285,72.937 92.567,73.467C93.85,73.997 95.261,74.136 96.623,73.865C97.984,73.595 99.235,72.929 100.216,71.95C101.198,70.971 101.866,69.723 102.137,68.366C102.408,67.008 102.269,65.6 101.738,64.321C101.206,63.042 100.307,61.949 99.153,61.18C97.998,60.411 96.641,60 95.253,60L70.981,60C70.512,60 70.057,59.835 69.696,59.535C69.336,59.235 69.092,58.818 69.009,58.357L68.214,54L97.291,54C98.7,54 100.064,53.506 101.146,52.606C102.227,51.705 102.958,50.455 103.209,49.072L106.258,32.358C106.309,32.069 106.296,31.772 106.22,31.488C106.144,31.205 106.006,30.942 105.816,30.717ZM74.197,67C74.197,67.593 74.021,68.173 73.69,68.667C73.36,69.16 72.89,69.545 72.34,69.772C71.791,69.999 71.186,70.058 70.603,69.942C70.019,69.827 69.483,69.541 69.062,69.121C68.642,68.702 68.355,68.167 68.239,67.585C68.123,67.003 68.183,66.4 68.41,65.852C68.638,65.304 69.024,64.835 69.518,64.506C70.013,64.176 70.594,64 71.189,64C71.987,64 72.752,64.316 73.316,64.879C73.88,65.441 74.197,66.204 74.197,67ZM98.261,67C98.261,67.593 98.085,68.173 97.754,68.667C97.424,69.16 96.954,69.545 96.404,69.772C95.855,69.999 95.25,70.058 94.666,69.942C94.083,69.827 93.547,69.541 93.126,69.121C92.706,68.702 92.419,68.167 92.303,67.585C92.187,67.003 92.247,66.4 92.474,65.852C92.702,65.304 93.087,64.835 93.582,64.506C94.077,64.176 94.658,64 95.253,64C96.051,64 96.816,64.316 97.38,64.879C97.944,65.441 98.261,66.204 98.261,67ZM99.264,48.357C99.18,48.82 98.935,49.237 98.573,49.538C98.211,49.838 97.755,50.002 97.284,50L67.484,50L64.569,34L101.873,34L99.264,48.357Z" fill="#343330"/>
</g>
<defs>
<filter id="filter217_2153" x="-4" y="-4" width="384" height="52" filterUnits="userSpaceOnUse" color-interpolation-filters="sRGB">
<feFlood flood-opacity="0" result="BackgroundImageFix"/>
<feColorMatrix in="SourceAlpha" type="matrix" values="0 0 0 0 0 0 0 0 0 0 0 0 0 0 0 0 0 0 127 0" result="hardAlpha"/>
<feMorphology radius="0" operator="dilate" in="SourceAlpha" result="0dropshadow"/>
<feOffset dx="0" dy="4"/>
<feGaussianBlur stdDeviation="2"/>
<feComposite in2="hardAlpha" operator="out"/>
<feColorMatrix type="matrix" values="0 0 0 0 0 0 0 0 0 0 0 0 0 0 0 0 0 0 0.25 0"/>
<feBlend mode="normal" in2="BackgroundImageFix" result="0dropshadow"/>
<feBlend mode="normal" in="SourceGraphic" in2="0dropshadow" result="shape"/>
</filter>
</defs>
</svg>
