<svg width="730" height="148" viewBox="0 0 730 148" fill="none" xmlns="http://www.w3.org/2000/svg" xmlns:xlink="http://www.w3.org/1999/xlink">
<rect  x="0" y="34" width="662" height="82" rx="36" fill="#FFFFFF"/>
<circle cx="698" cy="76" r="32" fill="#FFFFFF"/>
<path d="M721.287,73.375L688.475,55.396C687.921,55.096 687.286,54.966 686.653,55.023C686.021,55.079 685.421,55.319 684.935,55.71C684.448,56.102 684.097,56.627 683.928,57.215C683.76,57.802 683.782,58.426 683.992,59.001L689.975,76L683.992,93.001C683.826,93.453 683.775,93.937 683.843,94.412C683.912,94.888 684.099,95.34 684.387,95.732C684.676,96.124 685.058,96.443 685.502,96.664C685.945,96.885 686.438,97 686.938,97C687.481,96.999 688.014,96.863 688.486,96.606L721.283,78.597C721.767,78.337 722.17,77.958 722.451,77.499C722.732,77.04 722.88,76.517 722.881,75.985C722.882,75.453 722.736,74.93 722.456,74.47C722.177,74.01 721.776,73.629 721.293,73.367L721.287,73.375ZM686.938,94C686.938,93.992 686.938,93.985 686.938,93.977L692.746,77.5L704.125,77.5C704.54,77.5 704.937,77.342 705.23,77.061C705.523,76.779 705.688,76.398 705.688,76C705.688,75.602 705.523,75.221 705.23,74.939C704.937,74.658 704.54,74.5 704.125,74.5L692.746,74.5L686.949,58.03C686.947,58.019 686.943,58.009 686.938,58L719.75,75.968L686.938,94Z" fill="#FFFFFF" stroke="#000000" stroke-width="1" stroke-miterlimit="3.999327"/>
<path d="M62,76C62,76.53 61.789,77.039 61.414,77.414C61.039,77.789 60.53,78 60,78L54,78L54,84C54,84.53 53.789,85.039 53.414,85.414C53.039,85.789 52.53,86 52,86C51.47,86 50.961,85.789 50.586,85.414C50.211,85.039 50,84.53 50,84L50,78L44,78C43.47,78 42.961,77.789 42.586,77.414C42.211,77.039 42,76.53 42,76C42,75.47 42.211,74.961 42.586,74.586C42.961,74.211 43.47,74 44,74L50,74L50,68C50,67.47 50.211,66.961 50.586,66.586C50.961,66.211 51.47,66 52,66C52.53,66 53.039,66.211 53.414,66.586C53.789,66.961 54,67.47 54,68L54,74L60,74C60.53,74 61.039,74.211 61.414,74.586C61.789,74.961 62,75.47 62,76ZM78,62L78,90C78,91.591 77.368,93.117 76.243,94.243C75.117,95.368 73.591,96 72,96L32,96C30.409,96 28.883,95.368 27.757,94.243C26.632,93.117 26,91.591 26,90L26,62C26,60.409 26.632,58.883 27.757,57.757C28.883,56.632 30.409,56 32,56L38.93,56L41.75,51.78C42.115,51.233 42.608,50.785 43.187,50.475C43.766,50.164 44.413,50.001 45.07,50L58.93,50C59.587,50.001 60.234,50.164 60.813,50.475C61.392,50.785 61.885,51.233 62.25,51.78L65.07,56L72,56C73.591,56 75.117,56.632 76.243,57.757C77.368,58.883 78,60.409 78,62ZM74,62C74,61.47 73.789,60.961 73.414,60.586C73.039,60.211 72.53,60 72,60L64,60C63.671,60 63.346,59.919 63.056,59.764C62.765,59.609 62.518,59.384 62.335,59.11L58.93,54L45.07,54L41.665,59.11C41.482,59.384 41.235,59.609 40.944,59.764C40.654,59.919 40.329,60 40,60L32,60C31.47,60 30.961,60.211 30.586,60.586C30.211,60.961 30,61.47 30,62L30,90C30,90.53 30.211,91.039 30.586,91.414C30.961,91.789 31.47,92 32,92L72,92C72.53,92 73.039,91.789 73.414,91.414C73.789,91.039 74,90.53 74,90L74,62Z" fill="#343330"/>
</svg>
