<svg width="46" height="42" viewBox="0 0 46 42" fill="none" xmlns="http://www.w3.org/2000/svg" xmlns:xlink="http://www.w3.org/1999/xlink">
<path d="M45.877,21C45.877,32.598 35.607,42 22.939,42C10.27,42 0,32.598 0,21C0,9.402 10.27,0 22.939,0C35.607,0 45.877,9.402 45.877,21Z" fill="#FFA800"/>
<path d="M22.513,5.375C18.794,5.379 15.229,6.862 12.6,9.498C9.971,12.135 8.492,15.709 8.488,19.438L8.488,31.25C8.488,31.847 8.724,32.419 9.145,32.841C9.566,33.263 10.137,33.5 10.732,33.5L22.513,33.5C26.232,33.5 29.8,32.018 32.43,29.381C35.06,26.744 36.538,23.167 36.538,19.438C36.538,15.708 35.06,12.131 32.43,9.494C29.8,6.857 26.232,5.375 22.513,5.375ZM22.513,31.25L10.732,31.25L10.732,19.438C10.732,17.101 11.423,14.817 12.717,12.875C14.012,10.932 15.852,9.418 18.004,8.524C20.157,7.63 22.526,7.396 24.811,7.852C27.096,8.308 29.196,9.433 30.843,11.085C32.491,12.737 33.613,14.842 34.067,17.133C34.522,19.424 34.289,21.8 33.397,23.958C32.505,26.116 30.995,27.961 29.058,29.259C27.121,30.557 24.843,31.25 22.513,31.25ZM24.196,20C24.196,20.334 24.097,20.66 23.912,20.938C23.727,21.215 23.464,21.431 23.157,21.559C22.849,21.687 22.511,21.72 22.184,21.655C21.858,21.59 21.558,21.429 21.323,21.193C21.087,20.957 20.927,20.657 20.862,20.329C20.797,20.002 20.831,19.663 20.958,19.354C21.085,19.046 21.301,18.782 21.578,18.597C21.855,18.411 22.18,18.313 22.513,18.313C22.959,18.313 23.387,18.49 23.703,18.807C24.018,19.123 24.196,19.552 24.196,20ZM18.025,20C18.025,20.334 17.926,20.66 17.741,20.938C17.556,21.215 17.293,21.431 16.986,21.559C16.678,21.687 16.34,21.72 16.013,21.655C15.687,21.59 15.387,21.429 15.152,21.193C14.916,20.957 14.756,20.657 14.691,20.329C14.626,20.002 14.66,19.663 14.787,19.354C14.914,19.046 15.13,18.782 15.407,18.597C15.684,18.411 16.009,18.313 16.342,18.313C16.788,18.313 17.216,18.49 17.532,18.807C17.847,19.123 18.025,19.552 18.025,20ZM30.367,20C30.367,20.334 30.268,20.66 30.083,20.938C29.898,21.215 29.635,21.431 29.328,21.559C29.02,21.687 28.682,21.72 28.355,21.655C28.029,21.59 27.729,21.429 27.494,21.193C27.258,20.957 27.098,20.657 27.033,20.329C26.968,20.002 27.002,19.663 27.129,19.354C27.256,19.046 27.472,18.782 27.749,18.597C28.026,18.411 28.351,18.313 28.684,18.313C29.13,18.313 29.558,18.49 29.874,18.807C30.189,19.123 30.367,19.552 30.367,20Z" fill="#343330"/>
</svg>
