<svg width="220" height="260" viewBox="0 0 220 260" fill="none" xmlns="http://www.w3.org/2000/svg" xmlns:xlink="http://www.w3.org/1999/xlink">
<path d="M220,104C220,161.438 170.751,208 110,208C49.249,208 0,161.438 0,104C0,46.562 49.249,0 110,0C170.751,0 220,46.562 220,104Z" fill="#FFFFFF"/>
<path d="M138.125,8.716L81.875,8.716C78.145,8.716 74.569,10.093 71.931,12.545C69.294,14.997 67.813,18.322 67.813,21.79L67.813,117.665C67.813,121.132 69.294,124.457 71.931,126.909C74.569,129.361 78.145,130.739 81.875,130.739L138.125,130.739C141.855,130.739 145.432,129.361 148.069,126.909C150.706,124.457 152.188,121.132 152.188,117.665L152.188,21.79C152.188,18.322 150.706,14.997 148.069,12.545C145.432,10.093 141.855,8.716 138.125,8.716ZM77.188,34.864L142.813,34.864L142.813,104.591L77.188,104.591L77.188,34.864ZM81.875,17.432L138.125,17.432C139.368,17.432 140.561,17.891 141.44,18.708C142.319,19.525 142.813,20.634 142.813,21.79L142.813,26.148L77.188,26.148L77.188,21.79C77.188,20.634 77.681,19.525 78.56,18.708C79.44,17.891 80.632,17.432 81.875,17.432ZM138.125,122.023L81.875,122.023C80.632,122.023 79.44,121.563 78.56,120.746C77.681,119.929 77.188,118.82 77.188,117.665L77.188,113.307L142.813,113.307L142.813,117.665C142.813,118.82 142.319,119.929 141.44,120.746C140.561,121.563 139.368,122.023 138.125,122.023Z" fill="#000000"/>
<path d="M133.571,57.774L125,57.774L125,49.805C125,48.748 124.548,47.735 123.745,46.987C122.941,46.24 121.851,45.82 120.714,45.82L86.429,45.82C85.292,45.82 84.202,46.24 83.398,46.987C82.594,47.735 82.143,48.748 82.143,49.805L82.143,81.68C82.144,82.055 82.259,82.422 82.475,82.739C82.69,83.055 82.997,83.309 83.361,83.471C83.725,83.633 84.13,83.696 84.53,83.653C84.931,83.61 85.31,83.463 85.625,83.229L95,76.202L95,83.672C95,84.729 95.452,85.743 96.255,86.49C97.059,87.237 98.149,87.657 99.286,87.657L124.354,87.657L134.375,95.182C134.754,95.467 135.227,95.624 135.714,95.626C136.283,95.626 136.828,95.416 137.229,95.042C137.631,94.668 137.857,94.162 137.857,93.633L137.857,61.758C137.857,60.701 137.406,59.688 136.602,58.941C135.798,58.193 134.708,57.774 133.571,57.774ZM93.54,72.162L86.429,77.509L86.429,49.805L120.714,49.805L120.714,71.719L94.888,71.719C94.397,71.719 93.922,71.876 93.54,72.162ZM133.571,89.462L126.46,84.116C126.081,83.83 125.608,83.674 125.12,83.672L99.286,83.672L99.286,75.704L120.714,75.704C121.851,75.704 122.941,75.284 123.745,74.537C124.548,73.789 125,72.776 125,71.719L125,61.758L133.571,61.758L133.571,89.462Z" fill="#FF6B00"/>
<path d="M137.155,53.54L126.991,44.026C124.276,41.507 120.598,40.093 116.763,40.093C112.928,40.093 109.249,41.507 106.534,44.026L106.521,44.039L104.446,46.032C104.231,46.247 104.115,46.531 104.124,46.824C104.132,47.118 104.263,47.396 104.49,47.6C104.717,47.804 105.02,47.918 105.336,47.916C105.651,47.914 105.953,47.798 106.177,47.591L108.246,45.605C109.078,44.831 110.028,44.175 111.065,43.658L118.071,50.178L103.607,63.626C103.383,63.834 103.205,64.081 103.084,64.353C102.963,64.625 102.901,64.916 102.901,65.211C102.901,65.505 102.963,65.796 103.084,66.068C103.205,66.34 103.383,66.587 103.607,66.796L106.724,69.694C106.948,69.902 107.214,70.067 107.506,70.18C107.799,70.292 108.112,70.35 108.429,70.35C108.746,70.35 109.059,70.292 109.352,70.18C109.644,70.067 109.91,69.902 110.134,69.694L124.598,56.246L126.759,58.255L129.42,60.726C129.643,60.934 129.909,61.099 130.202,61.212C130.494,61.325 130.808,61.383 131.124,61.383C131.441,61.383 131.755,61.325 132.047,61.212C132.34,61.099 132.605,60.934 132.829,60.726L137.152,56.707C137.604,56.287 137.858,55.718 137.858,55.124C137.859,54.53 137.606,53.961 137.155,53.54ZM108.428,68.108L105.313,65.21L115.558,55.685L118.674,58.583L108.428,68.108ZM123.745,53.865L120.379,56.996L117.262,54.1L120.63,50.97C120.742,50.866 120.831,50.742 120.891,50.606C120.952,50.47 120.983,50.324 120.983,50.177C120.983,50.03 120.952,49.884 120.891,49.748C120.831,49.612 120.742,49.488 120.63,49.384L113.497,42.754C115.558,42.215 117.736,42.195 119.807,42.697C121.879,43.2 123.769,44.206 125.284,45.613L131.946,51.848L127.612,55.874L125.451,53.865C125.339,53.761 125.206,53.678 125.06,53.622C124.913,53.565 124.757,53.536 124.598,53.536C124.44,53.536 124.283,53.565 124.137,53.622C123.99,53.678 123.857,53.761 123.745,53.865ZM131.128,59.14L129.32,57.459L133.638,53.435L135.446,55.116L131.128,59.14Z" fill="#0E246F"/>
</svg>
