<svg width="448" height="52" viewBox="0 0 448 52" fill="none" xmlns="http://www.w3.org/2000/svg" xmlns:xlink="http://www.w3.org/1999/xlink">
<path d="M34.125,30.875C34.125,31.306 33.954,31.719 33.649,32.024C33.344,32.329 32.931,32.5 32.5,32.5L19.5,32.5C19.069,32.5 18.656,32.329 18.351,32.024C18.046,31.719 17.875,31.306 17.875,30.875C17.875,30.444 18.046,30.031 18.351,29.726C18.656,29.421 19.069,29.25 19.5,29.25L32.5,29.25C32.931,29.25 33.344,29.421 33.649,29.726C33.954,30.031 34.125,30.444 34.125,30.875ZM32.5,22.75L19.5,22.75C19.069,22.75 18.656,22.921 18.351,23.226C18.046,23.531 17.875,23.944 17.875,24.375C17.875,24.806 18.046,25.219 18.351,25.524C18.656,25.829 19.069,26 19.5,26L32.5,26C32.931,26 33.344,25.829 33.649,25.524C33.954,25.219 34.125,24.806 34.125,24.375C34.125,23.944 33.954,23.531 33.649,23.226C33.344,22.921 32.931,22.75 32.5,22.75ZM43.875,9.75L43.875,43.875C43.875,44.737 43.533,45.564 42.923,46.173C42.314,46.782 41.487,47.125 40.625,47.125L11.375,47.125C10.513,47.125 9.686,46.782 9.077,46.173C8.467,45.564 8.125,44.737 8.125,43.875L8.125,9.75C8.125,8.888 8.467,8.061 9.077,7.452C9.686,6.842 10.513,6.5 11.375,6.5L18.74,6.5C19.653,5.478 20.772,4.66 22.023,4.1C23.274,3.54 24.629,3.25 26,3.25C27.371,3.25 28.726,3.54 29.977,4.1C31.228,4.66 32.347,5.478 33.26,6.5L40.625,6.5C41.487,6.5 42.314,6.842 42.923,7.452C43.533,8.061 43.875,8.888 43.875,9.75ZM19.5,13L32.5,13C32.5,11.276 31.815,9.623 30.596,8.404C29.377,7.185 27.724,6.5 26,6.5C24.276,6.5 22.623,7.185 21.404,8.404C20.185,9.623 19.5,11.276 19.5,13ZM40.625,9.75L35.191,9.75C35.561,10.794 35.75,11.893 35.75,13L35.75,14.625C35.75,15.056 35.579,15.469 35.274,15.774C34.969,16.079 34.556,16.25 34.125,16.25L17.875,16.25C17.444,16.25 17.031,16.079 16.726,15.774C16.421,15.469 16.25,15.056 16.25,14.625L16.25,13C16.25,11.893 16.439,10.794 16.809,9.75L11.375,9.75L11.375,43.875L40.625,43.875L40.625,9.75Z" fill="#343330"/>
<path d="M57.535,6.875L57.514,6.854L51.901,1.569C51.526,1.2 51.02,0.994 50.493,0.996C49.966,0.998 49.462,1.207 49.089,1.579L43.521,7.109L43.329,6.914C42.735,6.373 41.956,6.081 41.154,6.1C40.351,6.118 39.586,6.444 39.017,7.011C38.449,7.578 38.12,8.342 38.1,9.145C38.08,9.948 38.37,10.728 38.909,11.322L39.091,11.507L36.586,14C36.401,14.186 36.253,14.406 36.153,14.649C36.052,14.892 36,15.152 36,15.414C36,15.677 36.052,15.937 36.153,16.18C36.253,16.423 36.401,16.643 36.586,16.829L38.171,18.414C38.546,18.787 39.054,18.997 39.583,18.997C40.112,18.997 40.62,18.787 40.995,18.414L43.486,15.957L45,17.5L36.914,25.671C36.601,25.956 36.349,26.301 36.174,26.686C35.998,27.071 35.903,27.487 35.893,27.91C35.883,28.333 35.959,28.753 36.117,29.146C36.274,29.538 36.51,29.895 36.809,30.194C37.108,30.493 37.465,30.728 37.858,30.884C38.251,31.041 38.671,31.117 39.094,31.106C39.517,31.096 39.933,31 40.318,30.824C40.702,30.648 41.047,30.396 41.331,30.082L52.415,18.914C52.789,18.539 52.999,18.031 52.999,17.501C52.999,16.972 52.789,16.464 52.415,16.089L47.954,11.582L49.57,10L49.583,10.011L54.25,14.425C54.626,14.795 55.133,15.001 55.66,14.999C56.188,14.997 56.693,14.787 57.066,14.414L57.53,13.95C57.994,13.486 58.363,12.934 58.614,12.328C58.865,11.721 58.994,11.071 58.994,10.414C58.994,9.758 58.865,9.108 58.614,8.501C58.363,7.894 57.994,7.343 57.53,6.879L57.535,6.875ZM39.586,17L38,15.416L40.5,12.931L42.086,14.539L39.586,17ZM39.914,28.671C39.813,28.79 39.689,28.887 39.549,28.956C39.409,29.025 39.256,29.063 39.1,29.07C38.944,29.076 38.789,29.05 38.644,28.993C38.498,28.936 38.367,28.85 38.257,28.739C38.147,28.629 38.061,28.496 38.005,28.351C37.948,28.205 37.923,28.05 37.93,27.894C37.937,27.738 37.977,27.586 38.046,27.446C38.115,27.306 38.213,27.182 38.333,27.082L46.416,18.911C46.789,18.536 46.998,18.029 46.998,17.501C46.998,16.972 46.789,16.465 46.416,16.09L40.329,9.914C40.146,9.699 40.05,9.423 40.061,9.141C40.072,8.858 40.189,8.591 40.388,8.391C40.588,8.19 40.855,8.073 41.137,8.061C41.419,8.048 41.696,8.143 41.911,8.325L51,17.5L39.914,28.671ZM56.125,12.535L55.656,13C55.65,12.993 55.644,12.986 55.636,12.98L50.961,8.562C50.585,8.2 50.082,7.999 49.559,8.001C49.036,8.004 48.535,8.211 48.163,8.577L46.546,10.161L44.929,8.529L50.5,3L50.521,3.02L56.131,8.302C56.689,8.866 57.002,9.628 57,10.421C56.998,11.214 56.682,11.974 56.121,12.535L56.125,12.535Z" fill="#14D710"/>
<path d="M52.667,24C52.667,26.946 55.054,29.333 58,29.333C60.946,29.333 63.333,26.946 63.333,24C63.333,21.054 60.946,18.667 58,18.667C55.054,18.667 52.667,21.054 52.667,24ZM213.667,24C213.667,26.946 216.054,29.333 219,29.333C221.946,29.333 224.333,26.946 224.333,24C224.333,21.054 221.946,18.667 219,18.667C216.054,18.667 213.667,21.054 213.667,24ZM274.666,24C274.666,26.946 277.054,29.333 280,29.333C282.946,29.333 285.334,26.946 285.334,24C285.334,21.054 282.946,18.667 280,18.667C277.054,18.667 274.666,21.054 274.666,24ZM436.666,24C436.666,26.946 439.054,29.333 442,29.333C444.946,29.333 447.334,26.946 447.334,24C447.334,21.054 444.946,18.667 442,18.667C439.054,18.667 436.666,21.054 436.666,24ZM58,25L59.006,25L59.006,23L58,23L58,25ZM61.019,25L63.031,25L63.031,23L61.019,23L61.019,25ZM65.044,25L67.056,25L67.056,23L65.044,23L65.044,25ZM69.069,25L71.081,25L71.081,23L69.069,23L69.069,25ZM73.094,25L75.106,25L75.106,23L73.094,23L73.094,25ZM77.119,25L79.131,25L79.131,23L77.119,23L77.119,25ZM81.144,25L83.156,25L83.156,23L81.144,23L81.144,25ZM85.169,25L87.181,25L87.181,23L85.169,23L85.169,25ZM89.194,25L91.206,25L91.206,23L89.194,23L89.194,25ZM93.219,25L95.231,25L95.231,23L93.219,23L93.219,25ZM97.244,25L99.256,25L99.256,23L97.244,23L97.244,25ZM101.269,25L103.281,25L103.281,23L101.269,23L101.269,25ZM105.294,25L107.306,25L107.306,23L105.294,23L105.294,25ZM109.319,25L111.331,25L111.331,23L109.319,23L109.319,25ZM113.344,25L115.356,25L115.356,23L113.344,23L113.344,25ZM117.369,25L119.381,25L119.381,23L117.369,23L117.369,25ZM121.394,25L123.406,25L123.406,23L121.394,23L121.394,25ZM125.419,25L127.431,25L127.431,23L125.419,23L125.419,25ZM129.444,25L131.456,25L131.456,23L129.444,23L129.444,25ZM133.469,25L135.481,25L135.481,23L133.469,23L133.469,25ZM137.494,25L139.506,25L139.506,23L137.494,23L137.494,25ZM141.519,25L143.531,25L143.531,23L141.519,23L141.519,25ZM145.544,25L147.556,25L147.556,23L145.544,23L145.544,25ZM149.569,25L151.581,25L151.581,23L149.569,23L149.569,25ZM153.594,25L155.606,25L155.606,23L153.594,23L153.594,25ZM157.619,25L159.631,25L159.631,23L157.619,23L157.619,25ZM161.644,25L163.656,25L163.656,23L161.644,23L161.644,25ZM165.669,25L167.681,25L167.681,23L165.669,23L165.669,25ZM169.694,25L171.706,25L171.706,23L169.694,23L169.694,25ZM173.719,25L175.731,25L175.731,23L173.719,23L173.719,25ZM177.744,25L179.756,25L179.756,23L177.744,23L177.744,25ZM181.769,25L183.781,25L183.781,23L181.769,23L181.769,25ZM185.794,25L187.806,25L187.806,23L185.794,23L185.794,25ZM189.819,25L191.831,25L191.831,23L189.819,23L189.819,25ZM193.844,25L195.856,25L195.856,23L193.844,23L193.844,25ZM197.869,25L199.881,25L199.881,23L197.869,23L197.869,25ZM201.894,25L203.906,25L203.906,23L201.894,23L201.894,25ZM205.919,25L207.931,25L207.931,23L205.919,23L205.919,25ZM209.944,25L211.956,25L211.956,23L209.944,23L209.944,25ZM213.969,25L215.981,25L215.981,23L213.969,23L213.969,25ZM217.994,25L219,25L219,23L217.994,23L217.994,25ZM280,25L280.988,25L280.988,23L280,23L280,25ZM282.964,25L284.94,25L284.94,23L282.964,23L282.964,25ZM286.914,25L288.89,25L288.89,23L286.914,23L286.914,25ZM290.866,25L292.842,25L292.842,23L290.866,23L290.866,25ZM294.818,25L296.792,25L296.792,23L294.818,23L294.818,25ZM298.768,25L300.744,25L300.744,23L298.768,23L298.768,25ZM302.72,25L304.696,25L304.696,23L302.72,23L302.72,25ZM306.67,25L308.646,25L308.646,23L306.67,23L306.67,25ZM310.622,25L312.598,25L312.598,23L310.622,23L310.622,25ZM314.574,25L316.548,25L316.548,23L314.574,23L314.574,25ZM318.524,25L320.5,25L320.5,23L318.524,23L318.524,25ZM322.476,25L324.452,25L324.452,23L322.476,23L322.476,25ZM326.426,25L328.402,25L328.402,23L326.426,23L326.426,25ZM330.378,25L332.354,25L332.354,23L330.378,23L330.378,25ZM334.33,25L336.304,25L336.304,23L334.33,23L334.33,25ZM338.28,25L340.256,25L340.256,23L338.28,23L338.28,25ZM342.232,25L344.208,25L344.208,23L342.232,23L342.232,25ZM346.182,25L348.158,25L348.158,23L346.182,23L346.182,25ZM350.134,25L352.11,25L352.11,23L350.134,23L350.134,25ZM354.086,25L356.06,25L356.06,23L354.086,23L354.086,25ZM358.036,25L360.012,25L360.012,23L358.036,23L358.036,25ZM361.988,25L363.964,25L363.964,23L361.988,23L361.988,25ZM365.938,25L367.914,25L367.914,23L365.938,23L365.938,25ZM369.89,25L371.866,25L371.866,23L369.89,23L369.89,25ZM373.842,25L375.818,25L375.818,23L373.842,23L373.842,25ZM377.792,25L379.768,25L379.768,23L377.792,23L377.792,25ZM381.744,25L383.72,25L383.72,23L381.744,23L381.744,25ZM385.696,25L387.67,25L387.67,23L385.696,23L385.696,25ZM389.646,25L391.622,25L391.622,23L389.646,23L389.646,25ZM393.598,25L395.574,25L395.574,23L393.598,23L393.598,25ZM397.548,25L399.524,25L399.524,23L397.548,23L397.548,25ZM401.5,25L403.476,25L403.476,23L401.5,23L401.5,25ZM405.452,25L407.426,25L407.426,23L405.452,23L405.452,25ZM409.402,25L411.378,25L411.378,23L409.402,23L409.402,25ZM413.354,25L415.33,25L415.33,23L413.354,23L413.354,25ZM417.304,25L419.28,25L419.28,23L417.304,23L417.304,25ZM421.256,25L423.232,25L423.232,23L421.256,23L421.256,25ZM425.208,25L427.182,25L427.182,23L425.208,23L425.208,25ZM429.158,25L431.134,25L431.134,23L429.158,23L429.158,25ZM433.11,25L435.086,25L435.086,23L433.11,23L433.11,25ZM437.062,25L439.036,25L439.036,23L437.062,23L437.062,25ZM441.012,25L442,25L442,23L441.012,23L441.012,25Z" fill="#FF8A00"/>
</svg>
