<svg width="46" height="42" viewBox="0 0 46 42" fill="none" xmlns="http://www.w3.org/2000/svg" xmlns:xlink="http://www.w3.org/1999/xlink">
<path d="M45.877,21C45.877,32.598 35.607,42 22.939,42C10.27,42 0,32.598 0,21C0,9.402 10.27,0 22.939,0C35.607,0 45.877,9.402 45.877,21Z" fill="#FFA800"/>
<path d="M24.234,8.459C24.272,8.316 24.338,8.182 24.427,8.065C24.517,7.948 24.629,7.85 24.757,7.776C24.884,7.702 25.025,7.654 25.171,7.634C25.317,7.615 25.466,7.625 25.608,7.663C27.688,8.207 29.586,9.298 31.106,10.822C32.626,12.346 33.713,14.249 34.256,16.334C34.294,16.477 34.304,16.626 34.285,16.772C34.266,16.919 34.218,17.06 34.144,17.188C34.07,17.316 33.972,17.428 33.855,17.518C33.738,17.608 33.605,17.674 33.462,17.712C33.368,17.737 33.27,17.75 33.172,17.75C32.925,17.75 32.684,17.668 32.488,17.517C32.292,17.366 32.152,17.154 32.088,16.915C31.645,15.212 30.758,13.659 29.517,12.415C28.276,11.171 26.727,10.281 25.029,9.837C24.887,9.799 24.753,9.733 24.636,9.643C24.519,9.554 24.42,9.441 24.347,9.313C24.273,9.185 24.225,9.044 24.205,8.898C24.186,8.751 24.196,8.602 24.234,8.459ZM23.907,14.337C25.841,14.855 27.084,16.101 27.6,18.04C27.664,18.279 27.804,18.491 28,18.642C28.196,18.793 28.437,18.875 28.684,18.875C28.782,18.875 28.88,18.862 28.974,18.837C29.117,18.799 29.25,18.733 29.367,18.643C29.484,18.553 29.582,18.441 29.656,18.313C29.73,18.185 29.778,18.044 29.797,17.897C29.816,17.751 29.806,17.602 29.768,17.459C29.05,14.765 27.173,12.883 24.486,12.163C24.199,12.086 23.892,12.127 23.635,12.276C23.377,12.426 23.189,12.672 23.113,12.96C23.036,13.248 23.076,13.555 23.225,13.814C23.374,14.072 23.62,14.26 23.907,14.337ZM35.399,27.746C35.149,29.651 34.216,31.4 32.774,32.666C31.331,33.932 29.479,34.629 27.562,34.625C16.426,34.625 7.366,25.541 7.366,14.375C7.363,12.453 8.057,10.596 9.32,9.15C10.582,7.704 12.327,6.768 14.227,6.517C14.708,6.458 15.194,6.557 15.614,6.798C16.034,7.039 16.365,7.41 16.558,7.856L19.52,14.486L19.52,14.503C19.667,14.844 19.728,15.216 19.697,15.587C19.666,15.957 19.544,16.314 19.342,16.625C19.317,16.663 19.29,16.698 19.262,16.733L16.342,20.204C17.392,22.344 19.625,24.563 21.788,25.62L25.202,22.707C25.235,22.679 25.27,22.653 25.307,22.628C25.617,22.421 25.974,22.294 26.346,22.26C26.717,22.225 27.091,22.285 27.434,22.432L27.453,22.44L34.06,25.409C34.505,25.601 34.876,25.933 35.117,26.354C35.359,26.775 35.458,27.263 35.399,27.746ZM33.172,27.464C33.172,27.464 33.162,27.464 33.157,27.464L26.565,24.504L23.15,27.417C23.117,27.445 23.082,27.471 23.046,27.495C22.723,27.711 22.35,27.84 21.963,27.868C21.575,27.896 21.188,27.823 20.837,27.656C18.21,26.383 15.592,23.777 14.321,21.172C14.153,20.823 14.077,20.436 14.102,20.049C14.126,19.662 14.25,19.289 14.461,18.964C14.485,18.926 14.512,18.889 14.541,18.856L17.464,15.381L14.519,8.771C14.518,8.766 14.518,8.76 14.519,8.754C13.159,8.932 11.91,9.601 11.006,10.636C10.103,11.671 9.606,13 9.61,14.375C9.615,19.148 11.508,23.723 14.874,27.097C18.239,30.472 22.802,32.37 27.562,32.375C28.933,32.38 30.258,31.884 31.291,30.98C32.323,30.076 32.992,28.826 33.172,27.463L33.172,27.464Z" fill="#343330"/>
</svg>
