<svg width="120" height="118" viewBox="0 0 120 118" fill="none" xmlns="http://www.w3.org/2000/svg" xmlns:xlink="http://www.w3.org/1999/xlink">
<path d="M82.5,7.375L37.5,7.375C34.516,7.375 31.655,8.541 29.545,10.615C27.435,12.69 26.25,15.504 26.25,18.438L26.25,99.563C26.25,102.496 27.435,105.31 29.545,107.385C31.655,109.459 34.516,110.625 37.5,110.625L82.5,110.625C85.484,110.625 88.345,109.459 90.455,107.385C92.565,105.31 93.75,102.496 93.75,99.563L93.75,18.438C93.75,15.504 92.565,12.69 90.455,10.615C88.345,8.541 85.484,7.375 82.5,7.375ZM33.75,29.5L86.25,29.5L86.25,88.5L33.75,88.5L33.75,29.5ZM37.5,14.75L82.5,14.75C83.495,14.75 84.448,15.138 85.152,15.83C85.855,16.522 86.25,17.46 86.25,18.438L86.25,22.125L33.75,22.125L33.75,18.438C33.75,17.46 34.145,16.522 34.848,15.83C35.552,15.138 36.505,14.75 37.5,14.75ZM82.5,103.25L37.5,103.25C36.505,103.25 35.552,102.861 34.848,102.17C34.145,101.478 33.75,100.54 33.75,99.563L33.75,95.875L86.25,95.875L86.25,99.563C86.25,100.54 85.855,101.478 85.152,102.17C84.448,102.861 83.495,103.25 82.5,103.25Z" fill="#000000"/>
<path d="M78.857,48.886L72,48.886L72,42.143C72,41.249 71.639,40.391 70.996,39.759C70.353,39.127 69.481,38.771 68.571,38.771L41.143,38.771C40.234,38.771 39.361,39.127 38.719,39.759C38.076,40.391 37.714,41.249 37.714,42.143L37.714,69.114C37.715,69.431 37.807,69.742 37.98,70.01C38.152,70.278 38.398,70.493 38.689,70.63C38.98,70.766 39.304,70.82 39.624,70.784C39.945,70.747 40.248,70.623 40.5,70.425L48,64.479L48,70.8C48,71.694 48.361,72.552 49.004,73.184C49.647,73.816 50.519,74.171 51.429,74.171L71.483,74.171L79.5,80.539C79.803,80.78 80.181,80.913 80.571,80.914C81.026,80.914 81.462,80.737 81.784,80.421C82.105,80.104 82.286,79.676 82.286,79.229L82.286,52.257C82.286,51.363 81.924,50.506 81.281,49.873C80.638,49.241 79.766,48.886 78.857,48.886ZM46.832,61.061L41.143,65.585L41.143,42.143L68.571,42.143L68.571,60.686L47.91,60.686C47.518,60.686 47.137,60.818 46.832,61.061ZM78.857,75.699L73.168,71.175C72.864,70.934 72.486,70.801 72.096,70.8L51.429,70.8L51.429,64.057L68.571,64.057C69.481,64.057 70.353,63.702 70.996,63.07C71.639,62.437 72,61.58 72,60.686L72,52.257L78.857,52.257L78.857,75.699Z" fill="#FF6B00"/>
<path d="M81.724,45.303L73.593,37.253C71.421,35.122 68.478,33.925 65.41,33.925C62.342,33.925 59.399,35.122 57.228,37.253L57.217,37.264L55.557,38.95C55.385,39.132 55.292,39.373 55.299,39.621C55.305,39.869 55.411,40.105 55.592,40.277C55.773,40.45 56.016,40.546 56.269,40.544C56.521,40.543 56.763,40.444 56.942,40.269L58.597,38.589C59.263,37.934 60.022,37.379 60.852,36.941L66.457,42.459L54.886,53.837C54.706,54.013 54.564,54.222 54.467,54.452C54.37,54.683 54.32,54.929 54.32,55.178C54.32,55.427 54.37,55.674 54.467,55.904C54.564,56.134 54.706,56.343 54.886,56.519L57.379,58.972C57.558,59.148 57.771,59.288 58.005,59.383C58.239,59.478 58.49,59.527 58.743,59.527C58.997,59.527 59.247,59.478 59.481,59.383C59.715,59.288 59.928,59.148 60.107,58.972L71.679,47.593L73.407,49.293L75.536,51.384C75.715,51.56 75.927,51.7 76.161,51.795C76.395,51.89 76.646,51.939 76.899,51.939C77.153,51.939 77.404,51.89 77.638,51.795C77.872,51.7 78.084,51.56 78.263,51.384L81.721,47.983C82.083,47.628 82.286,47.146 82.287,46.644C82.287,46.141 82.085,45.659 81.724,45.303ZM58.743,57.63L56.25,55.178L64.446,47.118L66.939,49.57L58.743,57.63ZM70.996,45.578L68.304,48.227L65.81,45.777L68.504,43.128C68.593,43.04 68.664,42.936 68.713,42.821C68.761,42.705 68.786,42.582 68.786,42.457C68.786,42.333 68.761,42.209 68.713,42.094C68.664,41.979 68.593,41.875 68.504,41.787L62.797,36.177C64.446,35.72 66.189,35.704 67.846,36.129C69.503,36.554 71.015,37.405 72.227,38.596L77.557,43.871L74.089,47.278L72.361,45.578C72.271,45.49 72.165,45.42 72.048,45.372C71.931,45.325 71.805,45.3 71.679,45.3C71.552,45.3 71.426,45.325 71.309,45.372C71.192,45.42 71.086,45.49 70.996,45.578ZM76.902,50.042L75.456,48.62L78.911,45.214L80.357,46.637L76.902,50.042Z" fill="#0E246F"/>
</svg>
