<svg width="94" height="82" viewBox="0 0 94 82" fill="none" xmlns="http://www.w3.org/2000/svg" xmlns:xlink="http://www.w3.org/1999/xlink">
<g filter="url(#filter80_291)">
<path d="M94,41C94,63.644 72.957,82 47,82C21.043,82 0,63.644 0,41C0,18.356 21.043,0 47,0C72.957,0 94,18.356 94,41Z" fill="#FFFFFF" stroke="#000000" stroke-width="2" stroke-miterlimit="3.999327"/>
</g>
<path d="M64.287,51.172C63.677,52.57 62.954,53.856 62.117,55.039C60.976,56.651 60.042,57.767 59.322,58.387C58.205,59.404 57.01,59.925 55.729,59.955C54.809,59.955 53.701,59.695 52.41,59.169C51.115,58.646 49.925,58.387 48.837,58.387C47.696,58.387 46.472,58.646 45.163,59.169C43.852,59.695 42.796,59.969 41.988,59.997C40.76,60.048 39.536,59.513 38.314,58.387C37.534,57.713 36.559,56.557 35.39,54.92C34.137,53.172 33.106,51.145 32.298,48.834C31.434,46.338 31,43.921 31,41.58C31,38.9 31.585,36.588 32.755,34.65C33.675,33.094 34.9,31.866 36.432,30.965C37.964,30.064 39.619,29.605 41.402,29.575C42.377,29.575 43.656,29.874 45.246,30.462C46.831,31.052 47.849,31.351 48.295,31.351C48.629,31.351 49.76,31.001 51.676,30.304C53.489,29.657 55.019,29.39 56.272,29.495C59.668,29.767 62.219,31.094 63.916,33.484C60.879,35.307 59.377,37.861 59.406,41.138C59.434,43.69 60.368,45.814 62.204,47.501C63.037,48.283 63.966,48.888 65,49.318C64.776,49.962 64.539,50.58 64.287,51.172L64.287,51.172ZM56.499,20.8C56.499,22.801 55.761,24.668 54.291,26.397C52.517,28.453 50.371,29.64 48.045,29.453C48.015,29.213 47.998,28.96 47.998,28.695C47.998,26.774 48.841,24.719 50.34,23.039C51.088,22.188 52.039,21.48 53.192,20.916C54.344,20.36 55.432,20.053 56.456,20C56.486,20.267 56.499,20.535 56.499,20.8L56.499,20.8Z" fill="#000000"/>
<defs>
<filter id="filter80_291" x="-4" y="-4" width="55" height="49" filterUnits="userSpaceOnUse" color-interpolation-filters="sRGB">
<feFlood flood-opacity="0" result="BackgroundImageFix"/>
<feColorMatrix in="SourceAlpha" type="matrix" values="0 0 0 0 0 0 0 0 0 0 0 0 0 0 0 0 0 0 127 0" result="hardAlpha"/>
<feMorphology radius="0" operator="dilate" in="SourceAlpha" result="0dropshadow"/>
<feOffset dx="0" dy="4"/>
<feGaussianBlur stdDeviation="2"/>
<feComposite in2="hardAlpha" operator="out"/>
<feColorMatrix type="matrix" values="0 0 0 0 0 0 0 0 0 0 0 0 0 0 0 0 0 0 0.25 0"/>
<feBlend mode="normal" in2="BackgroundImageFix" result="0dropshadow"/>
<feBlend mode="normal" in="SourceGraphic" in2="0dropshadow" result="shape"/>
</filter>
</defs>
</svg>
