<svg width="40" height="40" viewBox="0 0 40 40" fill="none" xmlns="http://www.w3.org/2000/svg" xmlns:xlink="http://www.w3.org/1999/xlink">
<path d="M24.217,15.783L25.277,16.844C25.863,16.258 25.863,15.308 25.277,14.723L24.217,15.783ZM15.783,24.217L14.723,25.277C15.308,25.863 16.258,25.863 16.844,25.277L15.783,24.217ZM23.156,14.723L14.723,23.156L16.844,25.277L25.277,16.844L23.156,14.723ZM16.844,23.156C16.029,22.341 15.533,21.234 15.533,20L12.533,20C12.533,22.065 13.371,23.925 14.723,25.277L16.844,23.156ZM15.533,20C15.533,17.528 17.528,15.533 20,15.533L20,12.533C15.871,12.533 12.533,15.871 12.533,20L15.533,20ZM20,15.533C21.234,15.533 22.341,16.029 23.156,16.844L25.277,14.723C23.925,13.371 22.065,12.533 20,12.533L20,15.533Z" fill="#979797"/>
<path d="M28.797,10.814C29.458,11.313 30.399,11.181 30.898,10.52C31.397,9.859 31.265,8.918 30.603,8.419L28.797,10.814ZM4.817,15.683L6.081,16.491L6.083,16.489L4.817,15.683ZM4.817,24.333L6.082,23.527L6.081,23.526L4.817,24.333ZM8.355,30.754C8.984,31.294 9.931,31.223 10.471,30.595C11.011,29.967 10.94,29.02 10.312,28.48L8.355,30.754ZM30.603,8.419C27.454,6.044 23.809,4.717 20,4.717L20,7.717C23.091,7.717 26.113,8.79 28.797,10.814L30.603,8.419ZM20,4.717C13.481,4.717 7.57,8.561 3.551,14.878L6.083,16.489C9.697,10.806 14.753,7.717 20,7.717L20,4.717ZM3.553,14.876C2.612,16.35 2.192,18.225 2.192,20.008C2.192,21.792 2.612,23.667 3.553,25.141L6.081,23.526C5.522,22.65 5.192,21.375 5.192,20.008C5.192,18.642 5.522,17.367 6.081,16.491L3.553,14.876ZM3.552,25.139C4.941,27.32 6.569,29.217 8.355,30.754L10.312,28.48C8.765,27.15 7.326,25.48 6.082,23.527L3.552,25.139Z" fill="#979797"/>
<path d="M14.615,31.168C13.852,30.846 12.972,31.205 12.651,31.968C12.329,32.732 12.688,33.611 13.451,33.933L14.615,31.168ZM35.183,24.317L33.919,23.51L33.918,23.512L35.183,24.317ZM35.183,15.667L33.917,16.471L33.919,16.474L35.183,15.667ZM34.585,12.277C34.066,11.631 33.122,11.529 32.476,12.048C31.831,12.567 31.728,13.511 32.248,14.157L34.585,12.277ZM13.451,33.933C15.523,34.805 17.737,35.283 20,35.283L20,32.283C18.163,32.283 16.344,31.895 14.615,31.168L13.451,33.933ZM20,35.283C26.52,35.283 32.43,31.439 36.449,25.122L33.918,23.512C30.303,29.194 25.247,32.283 20,32.283L20,35.283ZM36.448,25.124C37.388,23.65 37.808,21.775 37.808,19.992C37.808,18.208 37.388,16.334 36.448,14.86L33.919,16.474C34.478,17.35 34.808,18.625 34.808,19.992C34.808,21.358 34.478,22.634 33.919,23.51L36.448,25.124ZM36.45,14.863C35.864,13.94 35.23,13.078 34.585,12.277L32.248,14.157C32.837,14.889 33.402,15.66 33.917,16.471L36.45,14.863Z" fill="#979797"/>
<path d="M27.325,21.439C27.475,20.624 26.937,19.842 26.122,19.691C25.307,19.541 24.525,20.08 24.375,20.894L27.325,21.439ZM20.878,24.391C20.063,24.542 19.525,25.324 19.675,26.139C19.825,26.953 20.607,27.492 21.422,27.342L20.878,24.391ZM24.375,20.894C24.054,22.633 22.616,24.071 20.878,24.391L21.422,27.342C24.384,26.796 26.779,24.4 27.325,21.439L24.375,20.894Z" fill="#979797"/>
<path d="M16.844,25.277C17.43,24.692 17.43,23.742 16.844,23.156C16.258,22.57 15.309,22.57 14.723,23.156L16.844,25.277ZM2.273,35.606C1.687,36.192 1.687,37.142 2.273,37.727C2.859,38.313 3.808,38.313 4.394,37.727L2.273,35.606ZM14.723,23.156L2.273,35.606L4.394,37.727L16.844,25.277L14.723,23.156Z" fill="#979797"/>
<path d="M37.727,4.394C38.313,3.808 38.313,2.859 37.727,2.273C37.142,1.687 36.192,1.687 35.606,2.273L37.727,4.394ZM23.156,14.723C22.57,15.309 22.57,16.258 23.156,16.844C23.742,17.43 24.692,17.43 25.277,16.844L23.156,14.723ZM35.606,2.273L23.156,14.723L25.277,16.844L37.727,4.394L35.606,2.273Z" fill="#979797"/>
</svg>
