<svg width="8" height="10" viewBox="0 0 8 10" fill="none" xmlns="http://www.w3.org/2000/svg" xmlns:xlink="http://www.w3.org/1999/xlink">
<path d="M7.453,4.478C7.453,4.183 7.43,3.887 7.382,3.598L3.348,3.598L3.348,5.268L5.659,5.268C5.564,5.804 5.255,6.286 4.803,6.588L4.803,7.673L6.182,7.673C6.99,6.919 7.453,5.804 7.453,4.478Z" fill="#4285F4"/>
<path d="M3.348,8.722C4.501,8.722 5.475,8.336 6.182,7.673L4.804,6.588C4.417,6.853 3.924,7.004 3.348,7.004C2.231,7.004 1.286,6.238 0.947,5.213L-0.473,5.213L-0.473,6.335C0.252,7.799 1.732,8.722 3.348,8.722Z" fill="#34A853"/>
<path d="M0.948,5.213C0.769,4.677 0.769,4.092 0.948,3.55L0.948,2.434L-0.473,2.434C-1.085,3.658 -1.085,5.105 -0.473,6.328L0.948,5.213Z" fill="#FBBC04"/>
<path d="M3.348,1.759C3.96,1.747 4.548,1.982 4.988,2.41L6.212,1.169C5.433,0.433 4.411,0.029 3.348,0.041C1.732,0.041 0.252,0.97 -0.473,2.434L0.947,3.556C1.286,2.525 2.231,1.759 3.348,1.759Z" fill="#EA4335"/>
</svg>
