<svg width="48" height="48" viewBox="0 0 48 48" fill="none" xmlns="http://www.w3.org/2000/svg" xmlns:xlink="http://www.w3.org/1999/xlink">
<path d="M47.733,24.223C47.733,22.524 47.599,20.816 47.312,19.144L24.267,19.144L24.267,28.77L37.463,28.77C36.916,31.875 35.156,34.621 32.58,36.366L32.58,42.612L40.453,42.612C45.076,38.259 47.733,31.829 47.733,24.223Z" fill="#4285F4"/>
<path d="M24.365,47.828C30.69,47.828 36.025,45.828 39.911,42.377L32.354,36.735C30.251,38.112 27.536,38.892 24.374,38.892C18.255,38.892 13.068,34.918 11.206,29.574L3.407,29.574L3.407,35.391C7.389,43.015 15.498,47.828 24.365,47.828L24.365,47.828Z" fill="#34A853"/>
<path d="M11.23,28.806C10.233,25.921 10.233,22.797 11.23,19.912L11.23,13.929L3.33,13.929C-0.043,20.493 -0.043,28.226 3.33,34.79L11.23,28.806L11.23,28.806Z" fill="#FBBC04"/>
<path d="M24.281,9.823C27.612,9.773 30.83,10.984 33.242,13.206L39.911,6.763C35.688,2.932 30.084,0.826 24.281,0.892C15.45,0.892 7.373,5.702 3.407,13.331L11.167,19.144C13.012,13.795 18.187,9.823 24.281,9.823L24.281,9.823Z" fill="#EA4335"/>
</svg>
