<svg width="38" height="32" viewBox="0 0 38 32" fill="none" xmlns="http://www.w3.org/2000/svg" xmlns:xlink="http://www.w3.org/1999/xlink">
<path d="M6.05,24.9L6.324,23.68C6.299,23.674 6.273,23.669 6.247,23.665L6.05,24.9ZM4.866,24.583L4.429,25.754L4.439,25.758L4.866,24.583ZM29.966,7.066L31.198,6.851L31.192,6.823L29.966,7.066ZM28.916,9.199L28.916,17.783L31.416,17.783L31.416,9.199L28.916,9.199ZM28.916,17.783C28.916,20.111 28.257,21.569 27.299,22.458C26.324,23.364 24.841,23.866 22.833,23.866L22.833,26.366C25.225,26.366 27.409,25.768 29,24.29C30.609,22.797 31.416,20.588 31.416,17.783L28.916,17.783ZM22.833,23.866L8.183,23.866L8.183,26.366L22.833,26.366L22.833,23.866ZM8.183,23.866C7.505,23.866 6.883,23.806 6.324,23.68L5.775,26.119C6.55,26.293 7.361,26.366 8.183,26.366L8.183,23.866ZM6.247,23.665C5.929,23.614 5.608,23.523 5.293,23.408L4.439,25.758C4.858,25.91 5.337,26.051 5.852,26.134L6.247,23.665ZM5.303,23.412C4.286,23.032 3.515,22.424 2.984,21.564C2.445,20.69 2.1,19.467 2.1,17.783L-0.4,17.783C-0.4,19.799 0.013,21.509 0.857,22.877C1.709,24.258 2.946,25.2 4.429,25.754L5.303,23.412ZM2.1,17.783L2.1,9.199L-0.4,9.199L-0.4,17.783L2.1,17.783ZM2.1,9.199C2.1,6.871 2.759,5.414 3.717,4.524C4.692,3.618 6.175,3.116 8.183,3.116L8.183,0.616C5.791,0.616 3.607,1.214 2.016,2.692C0.407,4.185 -0.4,6.395 -0.4,9.199L2.1,9.199ZM8.183,3.116L22.833,3.116L22.833,0.616L8.183,0.616L8.183,3.116ZM22.833,3.116C24.536,3.116 25.865,3.479 26.82,4.138C27.748,4.779 28.437,5.779 28.74,7.309L31.192,6.823C30.779,4.736 29.768,3.136 28.241,2.082C26.742,1.046 24.864,0.616 22.833,0.616L22.833,3.116ZM28.735,7.282C28.843,7.901 28.916,8.509 28.916,9.199L31.416,9.199C31.416,8.323 31.322,7.564 31.198,6.851L28.735,7.282Z" fill="#027FEE"/>
<path d="M9.868,29.583L10.311,28.414L10.301,28.411L9.868,29.583ZM6.051,24.9L6.326,23.68C5.913,23.587 5.481,23.71 5.179,24.005C4.876,24.3 4.743,24.728 4.825,25.143L6.051,24.9ZM29.968,7.066L30.225,5.843C29.813,5.756 29.385,5.883 29.086,6.18C28.788,6.477 28.659,6.905 28.743,7.318L29.968,7.066ZM33.918,14.2L33.918,22.783L36.418,22.783L36.418,14.2L33.918,14.2ZM33.918,22.783C33.918,25.111 33.259,26.569 32.301,27.459C31.326,28.364 29.843,28.866 27.835,28.866L27.835,31.366C30.226,31.366 32.41,30.769 34.002,29.291C35.61,27.797 36.418,25.588 36.418,22.783L33.918,22.783ZM27.835,28.866L13.185,28.866L13.185,31.366L27.835,31.366L27.835,28.866ZM13.185,28.866C12.058,28.866 11.1,28.713 10.311,28.414L9.425,30.752C10.569,31.186 11.844,31.366 13.185,31.366L13.185,28.866ZM10.301,28.411C8.746,27.836 7.68,26.685 7.277,24.656L4.825,25.143C5.389,27.981 7.023,29.864 9.434,30.756L10.301,28.411ZM5.777,26.119C6.552,26.294 7.363,26.366 8.185,26.366L8.185,23.866C7.506,23.866 6.884,23.806 6.326,23.68L5.777,26.119ZM8.185,26.366L22.835,26.366L22.835,23.866L8.185,23.866L8.185,26.366ZM22.835,26.366C25.226,26.366 27.41,25.769 29.002,24.291C30.61,22.797 31.418,20.588 31.418,17.783L28.918,17.783C28.918,20.111 28.259,21.569 27.301,22.459C26.326,23.364 24.843,23.866 22.835,23.866L22.835,26.366ZM31.418,17.783L31.418,9.2L28.918,9.2L28.918,17.783L31.418,17.783ZM31.418,9.2C31.418,8.345 31.345,7.559 31.192,6.815L28.743,7.318C28.857,7.873 28.918,8.488 28.918,9.2L31.418,9.2ZM29.71,8.29C31.065,8.575 32.079,9.17 32.766,10.06C33.458,10.956 33.918,12.28 33.918,14.2L36.418,14.2C36.418,11.886 35.861,9.977 34.745,8.532C33.623,7.08 32.037,6.225 30.225,5.843L29.71,8.29Z" fill="#027FEE"/>
<path d="M18.647,13.499C18.647,15.239 17.237,16.649 15.497,16.649L15.497,19.149C18.618,19.149 21.147,16.62 21.147,13.499L18.647,13.499ZM15.497,16.649C13.757,16.649 12.347,15.239 12.347,13.499L9.847,13.499C9.847,16.62 12.377,19.149 15.497,19.149L15.497,16.649ZM12.347,13.499C12.347,11.759 13.757,10.349 15.497,10.349L15.497,7.849C12.377,7.849 9.847,10.379 9.847,13.499L12.347,13.499ZM15.497,10.349C17.237,10.349 18.647,11.759 18.647,13.499L21.147,13.499C21.147,10.379 18.618,7.849 15.497,7.849L15.497,10.349Z" fill="#027FEE"/>
<line x1="4.716" y1="9.833" x2="4.716" y2="17.166" stroke="#027FEE" stroke-width="1.25" stroke-miterlimit="10" stroke-linecap="round" stroke-linejoin="round"/>
<line x1="23.786" y1="9.833" x2="23.786" y2="17.167" stroke="#027FEE" stroke-width="1.25" stroke-miterlimit="10" stroke-linecap="round" stroke-linejoin="round"/>
</svg>
