<svg width="34" height="34" viewBox="0 0 34 34" fill="none" xmlns="http://www.w3.org/2000/svg" xmlns:xlink="http://www.w3.org/1999/xlink">
<path d="M33.76,16.325C33.76,25.398 26.406,32.753 17.333,32.753C8.261,32.753 0.907,25.398 0.907,16.325C0.907,7.252 8.261,-0.103 17.333,-0.103C26.406,-0.103 33.76,7.252 33.76,16.325Z" fill="#151515"/>
<path d="M26.035,9.495C25.471,8.866 24.554,8.866 23.988,9.495L14.774,19.74L10.679,15.186C10.114,14.558 9.197,14.558 8.632,15.186C8.066,15.815 8.066,16.834 8.632,17.463L13.75,23.154C14.033,23.468 14.403,23.626 14.774,23.626C15.144,23.626 15.515,23.469 15.798,23.154L26.035,11.771C26.601,11.143 26.601,10.123 26.035,9.495Z" fill="#FFFFFF"/>
</svg>
