<svg width="38" height="32" viewBox="0 0 38 32" fill="none" xmlns="http://www.w3.org/2000/svg" xmlns:xlink="http://www.w3.org/1999/xlink">
<path d="M6.05,24.9L6.324,23.68C6.299,23.675 6.273,23.67 6.247,23.666L6.05,24.9ZM4.866,24.583L4.429,25.754L4.439,25.758L4.866,24.583ZM29.966,7.067L31.198,6.851L31.192,6.824L29.966,7.067ZM28.916,9.2L28.916,17.783L31.416,17.783L31.416,9.2L28.916,9.2ZM28.916,17.783C28.916,20.112 28.257,21.569 27.299,22.459C26.324,23.364 24.841,23.867 22.833,23.867L22.833,26.367C25.225,26.367 27.409,25.769 29,24.291C30.609,22.797 31.416,20.588 31.416,17.783L28.916,17.783ZM22.833,23.867L8.183,23.867L8.183,26.367L22.833,26.367L22.833,23.867ZM8.183,23.867C7.505,23.867 6.883,23.806 6.324,23.68L5.775,26.119C6.55,26.294 7.361,26.367 8.183,26.367L8.183,23.867ZM6.247,23.666C5.929,23.615 5.608,23.523 5.293,23.409L4.439,25.758C4.858,25.91 5.337,26.052 5.852,26.134L6.247,23.666ZM5.303,23.412C4.286,23.032 3.515,22.425 2.984,21.564C2.445,20.69 2.1,19.467 2.1,17.783L-0.4,17.783C-0.4,19.8 0.013,21.51 0.857,22.877C1.709,24.258 2.946,25.201 4.429,25.754L5.303,23.412ZM2.1,17.783L2.1,9.2L-0.4,9.2L-0.4,17.783L2.1,17.783ZM2.1,9.2C2.1,6.872 2.759,5.414 3.717,4.524C4.692,3.619 6.175,3.117 8.183,3.117L8.183,0.617C5.791,0.617 3.607,1.214 2.016,2.692C0.407,4.186 -0.4,6.395 -0.4,9.2L2.1,9.2ZM8.183,3.117L22.833,3.117L22.833,0.617L8.183,0.617L8.183,3.117ZM22.833,3.117C24.536,3.117 25.865,3.479 26.82,4.139C27.748,4.78 28.437,5.78 28.74,7.31L31.192,6.824C30.779,4.737 29.768,3.137 28.241,2.082C26.742,1.046 24.864,0.617 22.833,0.617L22.833,3.117ZM28.735,7.282C28.843,7.902 28.916,8.51 28.916,9.2L31.416,9.2C31.416,8.323 31.322,7.565 31.198,6.851L28.735,7.282Z" fill="#027FEE"/>
<path d="M9.868,29.583L10.312,28.415L10.302,28.411L9.868,29.583ZM6.052,24.9L6.326,23.681C5.914,23.588 5.482,23.71 5.179,24.005C4.876,24.301 4.743,24.729 4.826,25.144L6.052,24.9ZM29.968,7.067L30.226,5.844C29.814,5.757 29.386,5.884 29.087,6.181C28.788,6.478 28.659,6.905 28.744,7.318L29.968,7.067ZM33.918,14.2L33.918,22.784L36.418,22.784L36.418,14.2L33.918,14.2ZM33.918,22.784C33.918,25.112 33.259,26.569 32.301,27.459C31.326,28.364 29.844,28.867 27.835,28.867L27.835,31.367C30.227,31.367 32.411,30.769 34.002,29.291C35.611,27.798 36.418,25.588 36.418,22.784L33.918,22.784ZM27.835,28.867L13.185,28.867L13.185,31.367L27.835,31.367L27.835,28.867ZM13.185,28.867C12.059,28.867 11.1,28.714 10.312,28.415L9.425,30.752C10.57,31.186 11.845,31.367 13.185,31.367L13.185,28.867ZM10.302,28.411C8.747,27.836 7.681,26.686 7.278,24.657L4.826,25.144C5.389,27.981 7.023,29.864 9.435,30.756L10.302,28.411ZM5.777,26.12C6.552,26.294 7.363,26.367 8.185,26.367L8.185,23.867C7.507,23.867 6.885,23.806 6.326,23.681L5.777,26.12ZM8.185,26.367L22.835,26.367L22.835,23.867L8.185,23.867L8.185,26.367ZM22.835,26.367C25.227,26.367 27.411,25.769 29.002,24.291C30.611,22.798 31.418,20.588 31.418,17.784L28.918,17.784C28.918,20.112 28.259,21.569 27.301,22.459C26.326,23.365 24.843,23.867 22.835,23.867L22.835,26.367ZM31.418,17.784L31.418,9.2L28.918,9.2L28.918,17.784L31.418,17.784ZM31.418,9.2C31.418,8.345 31.346,7.56 31.193,6.816L28.744,7.318C28.858,7.874 28.918,8.489 28.918,9.2L31.418,9.2ZM29.711,8.29C31.066,8.575 32.08,9.17 32.767,10.06C33.459,10.957 33.918,12.281 33.918,14.2L36.418,14.2C36.418,11.886 35.861,9.977 34.745,8.532C33.624,7.08 32.038,6.225 30.226,5.844L29.711,8.29Z" fill="#027FEE"/>
<path d="M18.648,13.5C18.648,15.239 17.237,16.65 15.498,16.65L15.498,19.15C18.618,19.15 21.148,16.62 21.148,13.5L18.648,13.5ZM15.498,16.65C13.758,16.65 12.348,15.239 12.348,13.5L9.848,13.5C9.848,16.62 12.377,19.15 15.498,19.15L15.498,16.65ZM12.348,13.5C12.348,11.76 13.758,10.35 15.498,10.35L15.498,7.85C12.377,7.85 9.848,10.379 9.848,13.5L12.348,13.5ZM15.498,10.35C17.237,10.35 18.648,11.76 18.648,13.5L21.148,13.5C21.148,10.379 18.618,7.85 15.498,7.85L15.498,10.35Z" fill="#027FEE"/>
<line x1="4.717" y1="9.833" x2="4.717" y2="17.167" stroke="#027FEE" stroke-width="1.25" stroke-miterlimit="10" stroke-linecap="round" stroke-linejoin="round"/>
<line x1="23.786" y1="9.834" x2="23.786" y2="17.167" stroke="#027FEE" stroke-width="1.25" stroke-miterlimit="10" stroke-linecap="round" stroke-linejoin="round"/>
</svg>
