<svg width="34" height="34" viewBox="0 0 34 34" fill="none" xmlns="http://www.w3.org/2000/svg" xmlns:xlink="http://www.w3.org/1999/xlink">
<path d="M33.76,16.73C33.76,25.803 26.406,33.158 17.333,33.158C8.261,33.158 0.907,25.803 0.907,16.73C0.907,7.657 8.261,0.302 17.333,0.302C26.406,0.302 33.76,7.657 33.76,16.73Z" fill="#151515"/>
<path d="M26.035,9.9C25.47,9.272 24.553,9.272 23.988,9.9L14.774,20.145L10.679,15.592C10.114,14.963 9.197,14.963 8.632,15.592C8.066,16.221 8.066,17.24 8.632,17.869L13.75,23.56C14.033,23.874 14.403,24.031 14.774,24.031C15.144,24.031 15.515,23.874 15.798,23.56L26.035,12.177C26.601,11.549 26.601,10.529 26.035,9.9Z" fill="#FFFFFF"/>
</svg>
