<svg width="40" height="40" viewBox="0 0 40 40" fill="none" xmlns="http://www.w3.org/2000/svg" xmlns:xlink="http://www.w3.org/1999/xlink">
<path d="M39.2,20.454C39.2,19.036 39.073,17.672 38.836,16.363L20,16.363L20,24.1L30.764,24.1C30.3,26.6 28.891,28.718 26.773,30.136L26.773,35.154L33.236,35.154C37.018,31.672 39.2,26.545 39.2,20.454Z" clip-rule="evenodd" fill-rule="evenodd" fill="#4285F4"/>
<path d="M20,40C25.4,40 29.927,38.209 33.236,35.154L26.773,30.136C24.982,31.336 22.691,32.045 20,32.045C14.791,32.045 10.382,28.527 8.809,23.8L2.127,23.8L2.127,28.982C5.418,35.518 12.182,40 20,40Z" clip-rule="evenodd" fill-rule="evenodd" fill="#34A853"/>
<path d="M8.809,23.8C8.409,22.6 8.182,21.319 8.182,20C8.182,18.682 8.409,17.4 8.809,16.2L8.809,11.019L2.127,11.019C0.773,13.719 0,16.773 0,20C0,23.228 0.773,26.282 2.127,28.982L8.809,23.8Z" clip-rule="evenodd" fill-rule="evenodd" fill="#FBBC05"/>
<path d="M20,7.955C22.936,7.955 25.573,8.964 27.646,10.945L33.382,5.209C29.918,1.982 25.391,0 20,0C12.182,0 5.418,4.482 2.127,11.018L8.809,16.2C10.382,11.473 14.791,7.955 20,7.955Z" clip-rule="evenodd" fill-rule="evenodd" fill="#EA4335"/>
</svg>
