<svg width="34" height="30" viewBox="0 0 34 30" fill="none" xmlns="http://www.w3.org/2000/svg" xmlns:xlink="http://www.w3.org/1999/xlink">
<path d="M23.273,19.606C22.687,20.192 22.687,21.142 23.273,21.727C23.858,22.313 24.808,22.313 25.394,21.727L23.273,19.606ZM31,14L32.061,15.061C32.646,14.475 32.646,13.525 32.061,12.939L31,14ZM25.394,6.273C24.808,5.687 23.858,5.687 23.273,6.273C22.687,6.859 22.687,7.808 23.273,8.394L25.394,6.273ZM7.667,12.5C6.838,12.5 6.167,13.172 6.167,14C6.167,14.829 6.838,15.5 7.667,15.5L7.667,12.5ZM19.167,20.667C19.167,19.838 18.495,19.167 17.667,19.167C16.838,19.167 16.167,19.838 16.167,20.667L19.167,20.667ZM16.167,7.333C16.167,8.162 16.838,8.833 17.667,8.833C18.495,8.833 19.167,8.162 19.167,7.333L16.167,7.333ZM2.5,22.333L2.5,5.667L-0.5,5.667L-0.5,22.333L2.5,22.333ZM-0.5,22.333C-0.5,25.923 2.41,28.833 6,28.833L6,25.833C4.067,25.833 2.5,24.266 2.5,22.333L-0.5,22.333ZM2.5,5.667C2.5,3.734 4.067,2.167 6,2.167L6,-0.833C2.41,-0.833 -0.5,2.077 -0.5,5.667L2.5,5.667ZM25.394,21.727L32.061,15.061L29.939,12.939L23.273,19.606L25.394,21.727ZM32.061,12.939L25.394,6.273L23.273,8.394L29.939,15.061L32.061,12.939ZM31,12.5L7.667,12.5L7.667,15.5L31,15.5L31,12.5ZM6,28.833L12.667,28.833L12.667,25.833L6,25.833L6,28.833ZM19.167,22.333L19.167,20.667L16.167,20.667L16.167,22.333L19.167,22.333ZM6,2.167L12.667,2.167L12.667,-0.833L6,-0.833L6,2.167ZM16.167,5.667L16.167,7.333L19.167,7.333L19.167,5.667L16.167,5.667ZM12.667,2.167C14.6,2.167 16.167,3.734 16.167,5.667L19.167,5.667C19.167,2.077 16.257,-0.833 12.667,-0.833L12.667,2.167ZM12.667,28.833C16.257,28.833 19.167,25.923 19.167,22.333L16.167,22.333C16.167,24.266 14.6,25.833 12.667,25.833L12.667,28.833Z" fill="#000000"/>
</svg>
