<svg width="32" height="18" viewBox="0 0 32 18" fill="none" xmlns="http://www.w3.org/2000/svg" xmlns:xlink="http://www.w3.org/1999/xlink">
<path d="M30.414,2.414C31.195,1.633 31.195,0.367 30.414,-0.414C29.633,-1.195 28.367,-1.195 27.586,-0.414L30.414,2.414ZM15,15L13.586,16.414C14.367,17.195 15.633,17.195 16.414,16.414L15,15ZM2.414,-0.414C1.633,-1.195 0.367,-1.195 -0.414,-0.414C-1.195,0.367 -1.195,1.633 -0.414,2.414L2.414,-0.414ZM27.586,-0.414L13.586,13.586L16.414,16.414L30.414,2.414L27.586,-0.414ZM16.414,13.586L2.414,-0.414L-0.414,2.414L13.586,16.414L16.414,13.586Z" transform="rotate(-180 15 8)" fill="#101010"/>
</svg>
