<svg width="28" height="34" viewBox="0 0 28 34" fill="none" xmlns="http://www.w3.org/2000/svg" xmlns:xlink="http://www.w3.org/1999/xlink">
<path d="M2.333,31L0.833,31C0.833,31.828 1.505,32.5 2.333,32.5L2.333,31ZM25.667,31L25.667,32.5C26.495,32.5 27.167,31.828 27.167,31L25.667,31ZM19.167,7.667C19.167,10.52 16.853,12.833 14,12.833L14,15.833C18.51,15.833 22.167,12.177 22.167,7.667L19.167,7.667ZM14,12.833C11.147,12.833 8.833,10.52 8.833,7.667L5.833,7.667C5.833,12.177 9.49,15.833 14,15.833L14,12.833ZM8.833,7.667C8.833,4.813 11.147,2.5 14,2.5L14,-0.5C9.49,-0.5 5.833,3.156 5.833,7.667L8.833,7.667ZM14,2.5C16.853,2.5 19.167,4.813 19.167,7.667L22.167,7.667C22.167,3.156 18.51,-0.5 14,-0.5L14,2.5ZM3.833,31C3.833,25.385 8.385,20.833 14,20.833L14,17.833C6.728,17.833 0.833,23.728 0.833,31L3.833,31ZM14,20.833C19.615,20.833 24.167,25.385 24.167,31L27.167,31C27.167,23.728 21.272,17.833 14,17.833L14,20.833ZM2.333,32.5L25.667,32.5L25.667,29.5L2.333,29.5L2.333,32.5Z" fill="#101010"/>
</svg>
