<svg width="34" height="34" viewBox="0 0 34 34" fill="none" xmlns="http://www.w3.org/2000/svg" xmlns:xlink="http://www.w3.org/1999/xlink">
<path d="M1,31L-0.5,31C-0.5,31.828 0.172,32.5 1,32.5L1,31ZM21,31L21,32.5C21.828,32.5 22.5,31.828 22.5,31L21,31ZM27.5,11C27.5,10.172 26.828,9.5 26,9.5C25.172,9.5 24.5,10.172 24.5,11L27.5,11ZM24.5,21C24.5,21.828 25.172,22.5 26,22.5C26.828,22.5 27.5,21.828 27.5,21L24.5,21ZM31,17.5C31.828,17.5 32.5,16.828 32.5,16C32.5,15.172 31.828,14.5 31,14.5L31,17.5ZM21,14.5C20.172,14.5 19.5,15.172 19.5,16C19.5,16.828 20.172,17.5 21,17.5L21,14.5ZM16.167,7.667C16.167,10.52 13.853,12.833 11,12.833L11,15.833C15.51,15.833 19.167,12.177 19.167,7.667L16.167,7.667ZM11,12.833C8.147,12.833 5.833,10.52 5.833,7.667L2.833,7.667C2.833,12.177 6.49,15.833 11,15.833L11,12.833ZM5.833,7.667C5.833,4.813 8.147,2.5 11,2.5L11,-0.5C6.49,-0.5 2.833,3.156 2.833,7.667L5.833,7.667ZM11,2.5C13.853,2.5 16.167,4.813 16.167,7.667L19.167,7.667C19.167,3.156 15.51,-0.5 11,-0.5L11,2.5ZM2.5,29.333C2.5,24.639 6.306,20.833 11,20.833L11,17.833C4.649,17.833 -0.5,22.982 -0.5,29.333L2.5,29.333ZM11,20.833C15.694,20.833 19.5,24.639 19.5,29.333L22.5,29.333C22.5,22.982 17.351,17.833 11,17.833L11,20.833ZM-0.5,29.333L-0.5,31L2.5,31L2.5,29.333L-0.5,29.333ZM1,32.5L21,32.5L21,29.5L1,29.5L1,32.5ZM22.5,31L22.5,29.333L19.5,29.333L19.5,31L22.5,31ZM24.5,11L24.5,16L27.5,16L27.5,11L24.5,11ZM24.5,16L24.5,21L27.5,21L27.5,16L24.5,16ZM31,14.5L26,14.5L26,17.5L31,17.5L31,14.5ZM26,14.5L21,14.5L21,17.5L26,17.5L26,14.5Z" fill="#101010"/>
</svg>
