<svg width="34" height="30" viewBox="0 0 34 30" fill="none" xmlns="http://www.w3.org/2000/svg" xmlns:xlink="http://www.w3.org/1999/xlink">
<path d="M24.273,19.606C23.687,20.192 23.687,21.142 24.273,21.727C24.858,22.313 25.808,22.313 26.394,21.727L24.273,19.606ZM32,14L33.061,15.061C33.646,14.475 33.646,13.525 33.061,12.939L32,14ZM26.394,6.273C25.808,5.687 24.858,5.687 24.273,6.273C23.687,6.859 23.687,7.808 24.273,8.394L26.394,6.273ZM8.667,12.5C7.838,12.5 7.167,13.172 7.167,14C7.167,14.829 7.838,15.5 8.667,15.5L8.667,12.5ZM20.167,20.667C20.167,19.838 19.495,19.167 18.667,19.167C17.838,19.167 17.167,19.838 17.167,20.667L20.167,20.667ZM17.167,7.333C17.167,8.162 17.838,8.833 18.667,8.833C19.495,8.833 20.167,8.162 20.167,7.333L17.167,7.333ZM3.5,22.333L3.5,5.667L0.5,5.667L0.5,22.333L3.5,22.333ZM0.5,22.333C0.5,25.923 3.41,28.833 7,28.833L7,25.833C5.067,25.833 3.5,24.266 3.5,22.333L0.5,22.333ZM3.5,5.667C3.5,3.734 5.067,2.167 7,2.167L7,-0.833C3.41,-0.833 0.5,2.077 0.5,5.667L3.5,5.667ZM26.394,21.727L33.061,15.061L30.939,12.939L24.273,19.606L26.394,21.727ZM33.061,12.939L26.394,6.273L24.273,8.394L30.939,15.061L33.061,12.939ZM32,12.5L8.667,12.5L8.667,15.5L32,15.5L32,12.5ZM7,28.833L13.667,28.833L13.667,25.833L7,25.833L7,28.833ZM20.167,22.333L20.167,20.667L17.167,20.667L17.167,22.333L20.167,22.333ZM7,2.167L13.667,2.167L13.667,-0.833L7,-0.833L7,2.167ZM17.167,5.667L17.167,7.333L20.167,7.333L20.167,5.667L17.167,5.667ZM13.667,2.167C15.6,2.167 17.167,3.734 17.167,5.667L20.167,5.667C20.167,2.077 17.257,-0.833 13.667,-0.833L13.667,2.167ZM13.667,28.833C17.257,28.833 20.167,25.923 20.167,22.333L17.167,22.333C17.167,24.266 15.6,25.833 13.667,25.833L13.667,28.833Z" fill="#000000"/>
</svg>
