<svg width="28" height="16" viewBox="0 0 28 16" fill="none" xmlns="http://www.w3.org/2000/svg" xmlns:xlink="http://www.w3.org/1999/xlink">
<path d="M26.248,3.581C27.029,2.8 27.029,1.533 26.248,0.752C25.466,-0.029 24.2,-0.029 23.419,0.752L26.248,3.581ZM13.167,13.833L11.752,15.247C12.128,15.623 12.636,15.833 13.167,15.833C13.697,15.833 14.206,15.623 14.581,15.247L13.167,13.833ZM2.914,0.752C2.133,-0.029 0.867,-0.029 0.086,0.752C-0.695,1.533 -0.695,2.8 0.086,3.581L2.914,0.752ZM23.419,0.752L11.752,12.419L14.581,15.247L26.248,3.581L23.419,0.752ZM14.581,12.419L2.914,0.752L0.086,3.581L11.752,15.247L14.581,12.419Z" transform="rotate(180 13.167 8)" fill="#101010"/>
</svg>
