<svg width="40" height="40" viewBox="0 0 40 40" fill="none" xmlns="http://www.w3.org/2000/svg" xmlns:xlink="http://www.w3.org/1999/xlink">
<path d="M2,0C0.895,0 0,0.895 0,2C0,3.105 0.895,4 2,4L2,0ZM6,2L7.961,1.608C7.774,0.673 6.953,0 6,0L6,2ZM30,22L30,24C30.758,24 31.45,23.572 31.789,22.894L30,22ZM38,6L39.789,6.894C40.099,6.274 40.066,5.538 39.701,4.949C39.337,4.359 38.693,4 38,4L38,6ZM5.414,26.586L4,25.172L4,25.172L5.414,26.586ZM2,4L6,4L6,0L2,0L2,4ZM10,24L30,24L30,20L10,20L10,24ZM31.789,22.894L39.789,6.894L36.211,5.106L28.211,21.106L31.789,22.894ZM4.039,2.392L4.839,6.392L8.761,5.608L7.961,1.608L4.039,2.392ZM4.839,6.392L8.039,22.392L11.961,21.608L8.761,5.608L4.839,6.392ZM6.8,8L38,8L38,4L6.8,4L6.8,8ZM32,34C32,35.105 31.105,36 30,36L30,40C33.314,40 36,37.314 36,34L32,34ZM30,36C28.895,36 28,35.105 28,34L24,34C24,37.314 26.686,40 30,40L30,36ZM28,34C28,32.895 28.895,32 30,32L30,28C26.686,28 24,30.686 24,34L28,34ZM30,32C31.105,32 32,32.895 32,34L36,34C36,30.686 33.314,28 30,28L30,32ZM12,34C12,35.105 11.105,36 10,36L10,40C13.314,40 16,37.314 16,34L12,34ZM10,36C8.895,36 8,35.105 8,34L4,34C4,37.314 6.686,40 10,40L10,36ZM8,34C8,32.895 8.895,32 10,32L10,28C6.686,28 4,30.686 4,34L8,34ZM10,32C11.105,32 12,32.895 12,34L16,34C16,30.686 13.314,28 10,28L10,32ZM6.828,32L30,32L30,28L6.828,28L6.828,32ZM6.828,28L11.414,23.414L8.586,20.586L4,25.172L6.828,28ZM6.828,28L6.828,28L4,25.172C1.48,27.691 3.265,32 6.828,32L6.828,28Z" fill="#F14141"/>
</svg>
