<svg width="40" height="40" viewBox="0 0 40 40" fill="none" xmlns="http://www.w3.org/2000/svg" xmlns:xlink="http://www.w3.org/1999/xlink">
<path d="M23.687,15.311C24.411,16.145 25.674,16.235 26.508,15.511C27.342,14.787 27.432,13.524 26.708,12.689L23.687,15.311ZM16.313,24.689C15.589,23.855 14.326,23.765 13.492,24.489C12.658,25.213 12.568,26.476 13.292,27.311L16.313,24.689ZM22,10C22,8.895 21.105,8 20,8C18.895,8 18,8.895 18,10L22,10ZM18,30C18,31.105 18.895,32 20,32C21.105,32 22,31.105 22,30L18,30ZM36,20C36,28.837 28.837,36 20,36L20,40C31.046,40 40,31.046 40,20L36,20ZM20,36C11.163,36 4,28.837 4,20L0,20C0,31.046 8.954,40 20,40L20,36ZM4,20C4,11.163 11.163,4 20,4L20,0C8.954,0 0,8.954 0,20L4,20ZM20,4C28.837,4 36,11.163 36,20L40,20C40,8.954 31.046,0 20,0L20,4ZM20,18C18.683,18 17.581,17.64 16.867,17.164C16.139,16.679 16,16.228 16,16L12,16C12,17.981 13.205,19.53 14.648,20.493C16.105,21.464 18.003,22 20,22L20,18ZM16,16C16,15.772 16.139,15.321 16.867,14.836C17.581,14.36 18.683,14 20,14L20,10C18.003,10 16.105,10.536 14.648,11.507C13.205,12.47 12,14.019 12,16L16,16ZM20,14C21.808,14 23.126,14.665 23.687,15.311L26.708,12.689C25.194,10.944 22.634,10 20,10L20,14ZM20,22C21.317,22 22.419,22.36 23.133,22.836C23.862,23.321 24,23.772 24,24L28,24C28,22.019 26.795,20.47 25.352,19.507C23.895,18.536 21.997,18 20,18L20,22ZM18,10L18,12L22,12L22,10L18,10ZM18,28L18,30L22,30L22,28L18,28ZM20,26C18.192,26 16.874,25.335 16.313,24.689L13.292,27.311C14.806,29.056 17.366,30 20,30L20,26ZM24,24C24,24.228 23.862,24.679 23.133,25.164C22.419,25.64 21.317,26 20,26L20,30C21.997,30 23.895,29.464 25.352,28.493C26.795,27.53 28,25.981 28,24L24,24ZM18,12L18,28L22,28L22,12L18,12Z" fill="#FFA043"/>
</svg>
