<svg width="36" height="36" viewBox="0 0 36 36" fill="none" xmlns="http://www.w3.org/2000/svg" xmlns:xlink="http://www.w3.org/1999/xlink">
<path d="M6,4L10,4L10,0L6,0L6,4ZM12,6L12,10L16,10L16,6L12,6ZM10,12L6,12L6,16L10,16L10,12ZM4,10L4,6L0,6L0,10L4,10ZM6,12C4.895,12 4,11.105 4,10L0,10C0,13.314 2.686,16 6,16L6,12ZM12,10C12,11.105 11.105,12 10,12L10,16C13.314,16 16,13.314 16,10L12,10ZM10,4C11.105,4 12,4.895 12,6L16,6C16,2.686 13.314,0 10,0L10,4ZM6,0C2.686,0 0,2.686 0,6L4,6C4,4.895 4.895,4 6,4L6,0ZM26,4L30,4L30,0L26,0L26,4ZM32,6L32,10L36,10L36,6L32,6ZM30,12L26,12L26,16L30,16L30,12ZM24,10L24,6L20,6L20,10L24,10ZM26,12C24.895,12 24,11.105 24,10L20,10C20,13.314 22.686,16 26,16L26,12ZM32,10C32,11.105 31.105,12 30,12L30,16C33.314,16 36,13.314 36,10L32,10ZM30,4C31.105,4 32,4.895 32,6L36,6C36,2.686 33.314,0 30,0L30,4ZM26,0C22.686,0 20,2.686 20,6L24,6C24,4.895 24.895,4 26,4L26,0ZM6,24L10,24L10,20L6,20L6,24ZM12,26L12,30L16,30L16,26L12,26ZM10,32L6,32L6,36L10,36L10,32ZM4,30L4,26L0,26L0,30L4,30ZM6,32C4.895,32 4,31.105 4,30L0,30C0,33.314 2.686,36 6,36L6,32ZM12,30C12,31.105 11.105,32 10,32L10,36C13.314,36 16,33.314 16,30L12,30ZM10,24C11.105,24 12,24.895 12,26L16,26C16,22.686 13.314,20 10,20L10,24ZM6,20C2.686,20 0,22.686 0,26L4,26C4,24.895 4.895,24 6,24L6,20ZM26,24L30,24L30,20L26,20L26,24ZM32,26L32,30L36,30L36,26L32,26ZM30,32L26,32L26,36L30,36L30,32ZM24,30L24,26L20,26L20,30L24,30ZM26,32C24.895,32 24,31.105 24,30L20,30C20,33.314 22.686,36 26,36L26,32ZM32,30C32,31.105 31.105,32 30,32L30,36C33.314,36 36,33.314 36,30L32,30ZM30,24C31.105,24 32,24.895 32,26L36,26C36,22.686 33.314,20 30,20L30,24ZM26,20C22.686,20 20,22.686 20,26L24,26C24,24.895 24.895,24 26,24L26,20Z" fill="#4C4DDC"/>
</svg>
