<svg width="32" height="40" viewBox="0 0 32 40" fill="none" xmlns="http://www.w3.org/2000/svg" xmlns:xlink="http://www.w3.org/1999/xlink">
<path d="M2,38L0,38C0,39.105 0.895,40 2,40L2,38ZM30,38L30,40C31.105,40 32,39.105 32,38L30,38ZM22,10C22,13.314 19.314,16 16,16L16,20C21.523,20 26,15.523 26,10L22,10ZM16,16C12.686,16 10,13.314 10,10L6,10C6,15.523 10.477,20 16,20L16,16ZM10,10C10,6.686 12.686,4 16,4L16,0C10.477,0 6,4.477 6,10L10,10ZM16,4C19.314,4 22,6.686 22,10L26,10C26,4.477 21.523,0 16,0L16,4ZM4,38C4,31.373 9.373,26 16,26L16,22C7.163,22 0,29.163 0,38L4,38ZM16,26C22.627,26 28,31.373 28,38L32,38C32,29.163 24.837,22 16,22L16,26ZM2,40L30,40L30,36L2,36L2,40Z" fill="#1877F2"/>
</svg>
