<svg width="34" height="28" viewBox="0 0 34 28" fill="none" xmlns="http://www.w3.org/2000/svg" xmlns:xlink="http://www.w3.org/1999/xlink">
<path d="M1,9.167C0.172,9.167 -0.5,9.838 -0.5,10.667C-0.5,11.495 0.172,12.167 1,12.167L1,9.167ZM31,12.167C31.828,12.167 32.5,11.495 32.5,10.667C32.5,9.838 31.828,9.167 31,9.167L31,12.167ZM7.667,17.5C6.838,17.5 6.167,18.171 6.167,19C6.167,19.828 6.838,20.5 7.667,20.5L7.667,17.5ZM9.333,20.5C10.162,20.5 10.833,19.828 10.833,19C10.833,18.171 10.162,17.5 9.333,17.5L9.333,20.5ZM16,17.5C15.172,17.5 14.5,18.171 14.5,19C14.5,19.828 15.172,20.5 16,20.5L16,17.5ZM17.667,20.5C18.495,20.5 19.167,19.828 19.167,19C19.167,18.171 18.495,17.5 17.667,17.5L17.667,20.5ZM6,3.833L26,3.833L26,0.833L6,0.833L6,3.833ZM29.5,7.333L29.5,20.667L32.5,20.667L32.5,7.333L29.5,7.333ZM26,24.167L6,24.167L6,27.167L26,27.167L26,24.167ZM2.5,20.667L2.5,7.333L-0.5,7.333L-0.5,20.667L2.5,20.667ZM6,24.167C4.067,24.167 2.5,22.6 2.5,20.667L-0.5,20.667C-0.5,24.256 2.41,27.167 6,27.167L6,24.167ZM29.5,20.667C29.5,22.6 27.933,24.167 26,24.167L26,27.167C29.59,27.167 32.5,24.256 32.5,20.667L29.5,20.667ZM26,3.833C27.933,3.833 29.5,5.4 29.5,7.333L32.5,7.333C32.5,3.743 29.59,0.833 26,0.833L26,3.833ZM6,0.833C2.41,0.833 -0.5,3.743 -0.5,7.333L2.5,7.333C2.5,5.4 4.067,3.833 6,3.833L6,0.833ZM1,12.167L31,12.167L31,9.167L1,9.167L1,12.167ZM7.667,20.5L9.333,20.5L9.333,17.5L7.667,17.5L7.667,20.5ZM16,20.5L17.667,20.5L17.667,17.5L16,17.5L16,20.5Z" fill="#101010"/>
</svg>
