<svg width="34" height="34" viewBox="0 0 34 34" fill="none" xmlns="http://www.w3.org/2000/svg" xmlns:xlink="http://www.w3.org/1999/xlink">
<path d="M8.92,4.971L9.701,3.69L9.701,3.69L8.92,4.971ZM13.208,3.196L11.75,2.842L13.208,3.196ZM4.971,8.92L3.69,9.701L3.69,9.701L4.971,8.92ZM3.196,13.208L2.842,11.75L3.196,13.208ZM3.196,18.792L3.549,17.335L3.549,17.335L3.196,18.792ZM4.971,23.08L3.69,22.299L3.69,22.299L4.971,23.08ZM8.92,27.029L9.701,28.31L9.701,28.31L8.92,27.029ZM13.208,28.804L14.665,28.451L13.208,28.804ZM18.792,28.804L20.25,29.158L20.25,29.158L18.792,28.804ZM23.08,27.029L22.299,28.31L22.299,28.31L23.08,27.029ZM27.029,23.08L28.31,22.299L28.31,22.299L27.029,23.08ZM28.804,18.792L29.158,20.25L29.158,20.25L28.804,18.792ZM28.804,13.208L28.451,14.665L28.804,13.208ZM27.029,8.92L28.31,9.701L28.31,9.701L27.029,8.92ZM23.08,4.971L22.299,3.69L22.299,3.69L23.08,4.971ZM18.792,3.196L17.335,3.549L17.335,3.549L18.792,3.196ZM8.14,6.252C10.669,7.793 13.967,6.428 14.665,3.549L11.75,2.842C11.531,3.745 10.495,4.174 9.701,3.69L8.14,6.252ZM6.252,8.14C5.503,6.91 6.91,5.503 8.14,6.252L9.701,3.69C5.785,1.305 1.305,5.785 3.69,9.701L6.252,8.14ZM3.549,14.665C6.428,13.967 7.793,10.669 6.252,8.14L3.69,9.701C4.174,10.495 3.746,11.531 2.842,11.75L3.549,14.665ZM3.549,17.335C2.15,16.995 2.15,15.005 3.549,14.665L2.842,11.75C-1.614,12.832 -1.614,19.168 2.842,20.25L3.549,17.335ZM6.252,23.86C7.793,21.331 6.428,18.033 3.549,17.335L2.842,20.25C3.746,20.469 4.174,21.505 3.69,22.299L6.252,23.86ZM8.14,25.748C6.91,26.497 5.503,25.09 6.252,23.86L3.69,22.299C1.305,26.215 5.785,30.695 9.701,28.31L8.14,25.748ZM14.665,28.451C13.967,25.572 10.669,24.207 8.14,25.748L9.701,28.31C10.495,27.826 11.531,28.255 11.75,29.158L14.665,28.451ZM17.335,28.451C16.995,29.85 15.005,29.85 14.665,28.451L11.75,29.158C12.832,33.614 19.168,33.614 20.25,29.158L17.335,28.451ZM23.86,25.748C21.331,24.207 18.033,25.572 17.335,28.451L20.25,29.158C20.469,28.255 21.505,27.826 22.299,28.31L23.86,25.748ZM25.748,23.86C26.497,25.09 25.09,26.497 23.86,25.748L22.299,28.31C26.215,30.695 30.695,26.215 28.31,22.299L25.748,23.86ZM28.451,17.335C25.572,18.033 24.207,21.331 25.748,23.86L28.31,22.299C27.826,21.505 28.255,20.469 29.158,20.25L28.451,17.335ZM28.451,14.665C29.85,15.005 29.85,16.995 28.451,17.335L29.158,20.25C33.614,19.168 33.614,12.832 29.158,11.75L28.451,14.665ZM25.748,8.14C24.207,10.669 25.572,13.967 28.451,14.665L29.158,11.75C28.255,11.531 27.826,10.495 28.31,9.701L25.748,8.14ZM23.86,6.252C25.09,5.503 26.497,6.91 25.748,8.14L28.31,9.701C30.695,5.785 26.215,1.305 22.299,3.69L23.86,6.252ZM17.335,3.549C18.033,6.428 21.331,7.793 23.86,6.252L22.299,3.69C21.505,4.174 20.469,3.745 20.25,2.842L17.335,3.549ZM20.25,2.842C19.168,-1.614 12.832,-1.614 11.75,2.842L14.665,3.549C15.005,2.15 16.995,2.15 17.335,3.549L20.25,2.842ZM19.5,16C19.5,17.933 17.933,19.5 16,19.5L16,22.5C19.59,22.5 22.5,19.59 22.5,16L19.5,16ZM16,19.5C14.067,19.5 12.5,17.933 12.5,16L9.5,16C9.5,19.59 12.41,22.5 16,22.5L16,19.5ZM12.5,16C12.5,14.067 14.067,12.5 16,12.5L16,9.5C12.41,9.5 9.5,12.41 9.5,16L12.5,16ZM16,12.5C17.933,12.5 19.5,14.067 19.5,16L22.5,16C22.5,12.41 19.59,9.5 16,9.5L16,12.5Z" fill="#101010"/>
</svg>
