<svg width="34" height="34" viewBox="0 0 34 34" fill="none" xmlns="http://www.w3.org/2000/svg" xmlns:xlink="http://www.w3.org/1999/xlink">
<path d="M16,16L17.5,16C17.5,15.172 16.828,14.5 16,14.5L16,16ZM16,22.667L14.5,22.667C14.5,23.495 15.172,24.167 16,24.167L16,22.667ZM17.667,24.167C18.495,24.167 19.167,23.495 19.167,22.667C19.167,21.838 18.495,21.167 17.667,21.167L17.667,24.167ZM14.333,14.5C13.505,14.5 12.833,15.172 12.833,16C12.833,16.828 13.505,17.5 14.333,17.5L14.333,14.5ZM16,7.833C15.172,7.833 14.5,8.505 14.5,9.333C14.5,10.162 15.172,10.833 16,10.833L16,7.833ZM16.017,10.833C16.845,10.833 17.517,10.162 17.517,9.333C17.517,8.505 16.845,7.833 16.017,7.833L16.017,10.833ZM14.5,16L14.5,22.667L17.5,22.667L17.5,16L14.5,16ZM16,24.167L17.667,24.167L17.667,21.167L16,21.167L16,24.167ZM16,14.5L14.333,14.5L14.333,17.5L16,17.5L16,14.5ZM29.5,16C29.5,23.456 23.456,29.5 16,29.5L16,32.5C25.113,32.5 32.5,25.113 32.5,16L29.5,16ZM16,29.5C8.544,29.5 2.5,23.456 2.5,16L-0.5,16C-0.5,25.113 6.887,32.5 16,32.5L16,29.5ZM2.5,16C2.5,8.544 8.544,2.5 16,2.5L16,-0.5C6.887,-0.5 -0.5,6.887 -0.5,16L2.5,16ZM16,2.5C23.456,2.5 29.5,8.544 29.5,16L32.5,16C32.5,6.887 25.113,-0.5 16,-0.5L16,2.5ZM16,10.833L16.017,10.833L16.017,7.833L16,7.833L16,10.833Z" fill="#101010"/>
</svg>
