<svg width="36" height="36" viewBox="0 0 36 36" fill="none" xmlns="http://www.w3.org/2000/svg" xmlns:xlink="http://www.w3.org/1999/xlink">
<path d="M31.586,34.414C32.367,35.195 33.633,35.195 34.414,34.414C35.195,33.633 35.195,32.367 34.414,31.586L31.586,34.414ZM24.414,21.586C23.633,20.805 22.367,20.805 21.586,21.586C20.805,22.367 20.805,23.633 21.586,24.414L24.414,21.586ZM24.333,14.667C24.333,20.005 20.005,24.333 14.667,24.333L14.667,28.333C22.215,28.333 28.333,22.215 28.333,14.667L24.333,14.667ZM14.667,24.333C9.328,24.333 5,20.005 5,14.667L1,14.667C1,22.215 7.119,28.333 14.667,28.333L14.667,24.333ZM5,14.667C5,9.328 9.328,5 14.667,5L14.667,1C7.119,1 1,7.119 1,14.667L5,14.667ZM14.667,5C20.005,5 24.333,9.328 24.333,14.667L28.333,14.667C28.333,7.119 22.215,1 14.667,1L14.667,5ZM34.414,31.586L24.414,21.586L21.586,24.414L31.586,34.414L34.414,31.586Z" fill="#878787"/>
</svg>
