<svg width="32" height="22" viewBox="0 0 32 22" fill="none" xmlns="http://www.w3.org/2000/svg" xmlns:xlink="http://www.w3.org/1999/xlink">
<path d="M17.051,4.822C17.051,3.89 17.806,3.134 18.739,3.134L20.427,3.134C21.359,3.134 22.115,3.89 22.115,4.822L22.115,18.325C22.115,19.257 21.359,20.013 20.427,20.013L18.739,20.013C17.806,20.013 17.051,19.257 17.051,18.325L17.051,4.822Z" fill="#FFFFFF" stroke="#000000" stroke-width="0.844" stroke-miterlimit="3.999327"/>
<path d="M25.49,1.446C25.49,0.514 26.246,-0.242 27.178,-0.242L28.866,-0.242C29.798,-0.242 30.554,0.514 30.554,1.446L30.554,18.325C30.554,19.257 29.798,20.013 28.866,20.013L27.178,20.013C26.246,20.013 25.49,19.257 25.49,18.325L25.49,1.446Z" fill="#FFFFFF" stroke="#000000" stroke-width="0.844" stroke-miterlimit="3.999327"/>
<path d="M8.611,10.729C8.611,9.797 9.367,9.042 10.299,9.042L11.987,9.042C12.919,9.042 13.675,9.797 13.675,10.729L13.675,18.325C13.675,19.257 12.919,20.013 11.987,20.013L10.299,20.013C9.367,20.013 8.611,19.257 8.611,18.325L8.611,10.729Z" fill="#FFFFFF" stroke="#000000" stroke-width="0.844" stroke-miterlimit="3.999327"/>
<path d="M0.172,14.949C0.172,14.017 0.927,13.261 1.86,13.261L3.548,13.261C4.48,13.261 5.235,14.017 5.235,14.949L5.235,18.325C5.235,19.257 4.48,20.013 3.548,20.013L1.86,20.013C0.927,20.013 0.172,19.257 0.172,18.325L0.172,14.949Z" fill="#FFFFFF" stroke="#000000" stroke-width="0.844" stroke-miterlimit="3.999327"/>
</svg>
