<svg width="24" height="24" viewBox="0 0 24 24" fill="none" xmlns="http://www.w3.org/2000/svg" xmlns:xlink="http://www.w3.org/1999/xlink">
<path d="M0.586,20.586C-0.195,21.367 -0.195,22.633 0.586,23.414C1.367,24.195 2.633,24.195 3.414,23.414L0.586,20.586ZM23.414,3.414C24.195,2.633 24.195,1.367 23.414,0.586C22.633,-0.195 21.367,-0.195 20.586,0.586L23.414,3.414ZM3.414,0.586C2.633,-0.195 1.367,-0.195 0.586,0.586C-0.195,1.367 -0.195,2.633 0.586,3.414L3.414,0.586ZM20.586,23.414C21.367,24.195 22.633,24.195 23.414,23.414C24.195,22.633 24.195,21.367 23.414,20.586L20.586,23.414ZM3.414,23.414L23.414,3.414L20.586,0.586L0.586,20.586L3.414,23.414ZM0.586,3.414L20.586,23.414L23.414,20.586L3.414,0.586L0.586,3.414Z" fill="#101010"/>
</svg>
