<svg width="28" height="34" viewBox="0 0 28 34" fill="none" xmlns="http://www.w3.org/2000/svg" xmlns:xlink="http://www.w3.org/1999/xlink">
<path d="M2.333,31L0.833,31C0.833,31.828 1.505,32.5 2.333,32.5L2.333,31ZM25.666,31L25.666,32.5C26.495,32.5 27.166,31.828 27.166,31L25.666,31ZM19.166,7.667C19.166,10.52 16.853,12.833 14,12.833L14,15.833C18.51,15.833 22.166,12.177 22.166,7.667L19.166,7.667ZM14,12.833C11.146,12.833 8.833,10.52 8.833,7.667L5.833,7.667C5.833,12.177 9.489,15.833 14,15.833L14,12.833ZM8.833,7.667C8.833,4.813 11.146,2.5 14,2.5L14,-0.5C9.489,-0.5 5.833,3.156 5.833,7.667L8.833,7.667ZM14,2.5C16.853,2.5 19.166,4.813 19.166,7.667L22.166,7.667C22.166,3.156 18.51,-0.5 14,-0.5L14,2.5ZM3.833,31C3.833,25.385 8.385,20.833 14,20.833L14,17.833C6.728,17.833 0.833,23.728 0.833,31L3.833,31ZM14,20.833C19.615,20.833 24.166,25.385 24.166,31L27.166,31C27.166,23.728 21.271,17.833 14,17.833L14,20.833ZM2.333,32.5L25.666,32.5L25.666,29.5L2.333,29.5L2.333,32.5Z" fill="#101010"/>
</svg>
