<svg width="48" height="48" viewBox="0 0 48 48" fill="none" xmlns="http://www.w3.org/2000/svg" xmlns:xlink="http://www.w3.org/1999/xlink">
<path d="M19.701,22.299C19.115,21.713 18.165,21.713 17.579,22.299C16.994,22.885 16.994,23.835 17.579,24.421L19.701,22.299ZM23.76,28.48L22.699,29.541C23.285,30.126 24.235,30.126 24.821,29.541L23.76,28.48ZM29.941,24.421C30.527,23.835 30.527,22.885 29.941,22.299C29.355,21.713 28.405,21.713 27.819,22.299L29.941,24.421ZM17.579,24.421L22.699,29.541L24.821,27.419L19.701,22.299L17.579,24.421ZM24.821,29.541L29.941,24.421L27.819,22.299L22.699,27.419L24.821,29.541Z" fill="#3B16A7"/>
<line x1="22.26" y1="8" x2="22.26" y2="28.34" stroke="#3B16A7" stroke-width="1.5" stroke-miterlimit="10" stroke-linecap="round" stroke-linejoin="round"/>
<path d="M41.5,24.36C41.5,23.531 40.828,22.86 40,22.86C39.172,22.86 38.5,23.531 38.5,24.36L41.5,24.36ZM9.5,24.36C9.5,23.531 8.828,22.86 8,22.86C7.172,22.86 6.5,23.531 6.5,24.36L9.5,24.36ZM38.5,24.36C38.5,28.441 37.118,32.057 34.662,34.642C32.218,37.215 28.623,38.86 24,38.86L24,41.86C29.377,41.86 33.782,39.925 36.838,36.708C39.882,33.503 41.5,29.119 41.5,24.36L38.5,24.36ZM24,38.86C19.377,38.86 15.782,37.215 13.338,34.642C10.882,32.057 9.5,28.441 9.5,24.36L6.5,24.36C6.5,29.119 8.118,33.503 11.162,36.708C14.218,39.925 18.623,41.86 24,41.86L24,38.86Z" fill="#3B16A7"/>
</svg>
