<svg width="396" height="12" viewBox="0 0 396 12" fill="none" xmlns="http://www.w3.org/2000/svg" xmlns:xlink="http://www.w3.org/1999/xlink">
<path d="M0.667,6C0.667,8.946 3.054,11.333 6,11.333C8.946,11.333 11.333,8.946 11.333,6C11.333,3.054 8.946,0.667 6,0.667C3.054,0.667 0.667,3.054 0.667,6ZM161.667,6C161.667,8.946 164.054,11.333 167,11.333C169.946,11.333 172.333,8.946 172.333,6C172.333,3.054 169.946,0.667 167,0.667C164.054,0.667 161.667,3.054 161.667,6ZM222.666,6C222.666,8.946 225.054,11.333 228,11.333C230.946,11.333 233.334,8.946 233.334,6C233.334,3.054 230.946,0.667 228,0.667C225.054,0.667 222.666,3.054 222.666,6ZM384.666,6C384.666,8.946 387.054,11.333 390,11.333C392.946,11.333 395.334,8.946 395.334,6C395.334,3.054 392.946,0.667 390,0.667C387.054,0.667 384.666,3.054 384.666,6ZM6,7L7.006,7L7.006,5L6,5L6,7ZM9.019,7L11.031,7L11.031,5L9.019,5L9.019,7ZM13.044,7L15.056,7L15.056,5L13.044,5L13.044,7ZM17.069,7L19.081,7L19.081,5L17.069,5L17.069,7ZM21.094,7L23.106,7L23.106,5L21.094,5L21.094,7ZM25.119,7L27.131,7L27.131,5L25.119,5L25.119,7ZM29.144,7L31.156,7L31.156,5L29.144,5L29.144,7ZM33.169,7L35.181,7L35.181,5L33.169,5L33.169,7ZM37.194,7L39.206,7L39.206,5L37.194,5L37.194,7ZM41.219,7L43.231,7L43.231,5L41.219,5L41.219,7ZM45.244,7L47.256,7L47.256,5L45.244,5L45.244,7ZM49.269,7L51.281,7L51.281,5L49.269,5L49.269,7ZM53.294,7L55.306,7L55.306,5L53.294,5L53.294,7ZM57.319,7L59.331,7L59.331,5L57.319,5L57.319,7ZM61.344,7L63.356,7L63.356,5L61.344,5L61.344,7ZM65.369,7L67.381,7L67.381,5L65.369,5L65.369,7ZM69.394,7L71.406,7L71.406,5L69.394,5L69.394,7ZM73.419,7L75.431,7L75.431,5L73.419,5L73.419,7ZM77.444,7L79.456,7L79.456,5L77.444,5L77.444,7ZM81.469,7L83.481,7L83.481,5L81.469,5L81.469,7ZM85.494,7L87.506,7L87.506,5L85.494,5L85.494,7ZM89.519,7L91.531,7L91.531,5L89.519,5L89.519,7ZM93.544,7L95.556,7L95.556,5L93.544,5L93.544,7ZM97.569,7L99.581,7L99.581,5L97.569,5L97.569,7ZM101.594,7L103.606,7L103.606,5L101.594,5L101.594,7ZM105.619,7L107.631,7L107.631,5L105.619,5L105.619,7ZM109.644,7L111.656,7L111.656,5L109.644,5L109.644,7ZM113.669,7L115.681,7L115.681,5L113.669,5L113.669,7ZM117.694,7L119.706,7L119.706,5L117.694,5L117.694,7ZM121.719,7L123.731,7L123.731,5L121.719,5L121.719,7ZM125.744,7L127.756,7L127.756,5L125.744,5L125.744,7ZM129.769,7L131.781,7L131.781,5L129.769,5L129.769,7ZM133.794,7L135.806,7L135.806,5L133.794,5L133.794,7ZM137.819,7L139.831,7L139.831,5L137.819,5L137.819,7ZM141.844,7L143.856,7L143.856,5L141.844,5L141.844,7ZM145.869,7L147.881,7L147.881,5L145.869,5L145.869,7ZM149.894,7L151.906,7L151.906,5L149.894,5L149.894,7ZM153.919,7L155.931,7L155.931,5L153.919,5L153.919,7ZM157.944,7L159.956,7L159.956,5L157.944,5L157.944,7ZM161.969,7L163.981,7L163.981,5L161.969,5L161.969,7ZM165.994,7L167,7L167,5L165.994,5L165.994,7ZM228,7L228.988,7L228.988,5L228,5L228,7ZM230.964,7L232.94,7L232.94,5L230.964,5L230.964,7ZM234.914,7L236.89,7L236.89,5L234.914,5L234.914,7ZM238.866,7L240.842,7L240.842,5L238.866,5L238.866,7ZM242.818,7L244.792,7L244.792,5L242.818,5L242.818,7ZM246.768,7L248.744,7L248.744,5L246.768,5L246.768,7ZM250.72,7L252.696,7L252.696,5L250.72,5L250.72,7ZM254.67,7L256.646,7L256.646,5L254.67,5L254.67,7ZM258.622,7L260.598,7L260.598,5L258.622,5L258.622,7ZM262.574,7L264.548,7L264.548,5L262.574,5L262.574,7ZM266.524,7L268.5,7L268.5,5L266.524,5L266.524,7ZM270.476,7L272.452,7L272.452,5L270.476,5L270.476,7ZM274.426,7L276.402,7L276.402,5L274.426,5L274.426,7ZM278.378,7L280.354,7L280.354,5L278.378,5L278.378,7ZM282.33,7L284.304,7L284.304,5L282.33,5L282.33,7ZM286.28,7L288.256,7L288.256,5L286.28,5L286.28,7ZM290.232,7L292.208,7L292.208,5L290.232,5L290.232,7ZM294.182,7L296.158,7L296.158,5L294.182,5L294.182,7ZM298.134,7L300.11,7L300.11,5L298.134,5L298.134,7ZM302.086,7L304.06,7L304.06,5L302.086,5L302.086,7ZM306.036,7L308.012,7L308.012,5L306.036,5L306.036,7ZM309.988,7L311.964,7L311.964,5L309.988,5L309.988,7ZM313.938,7L315.914,7L315.914,5L313.938,5L313.938,7ZM317.89,7L319.866,7L319.866,5L317.89,5L317.89,7ZM321.842,7L323.818,7L323.818,5L321.842,5L321.842,7ZM325.792,7L327.768,7L327.768,5L325.792,5L325.792,7ZM329.744,7L331.72,7L331.72,5L329.744,5L329.744,7ZM333.696,7L335.67,7L335.67,5L333.696,5L333.696,7ZM337.646,7L339.622,7L339.622,5L337.646,5L337.646,7ZM341.598,7L343.574,7L343.574,5L341.598,5L341.598,7ZM345.548,7L347.524,7L347.524,5L345.548,5L345.548,7ZM349.5,7L351.476,7L351.476,5L349.5,5L349.5,7ZM353.452,7L355.426,7L355.426,5L353.452,5L353.452,7ZM357.402,7L359.378,7L359.378,5L357.402,5L357.402,7ZM361.354,7L363.33,7L363.33,5L361.354,5L361.354,7ZM365.304,7L367.28,7L367.28,5L365.304,5L365.304,7ZM369.256,7L371.232,7L371.232,5L369.256,5L369.256,7ZM373.208,7L375.182,7L375.182,5L373.208,5L373.208,7ZM377.158,7L379.134,7L379.134,5L377.158,5L377.158,7ZM381.11,7L383.086,7L383.086,5L381.11,5L381.11,7ZM385.062,7L387.036,7L387.036,5L385.062,5L385.062,7ZM389.012,7L390,7L390,5L389.012,5L389.012,7Z" fill="#FF8A00"/>
</svg>
