<svg width="190" height="12" viewBox="0 0 190 12" fill="none" xmlns="http://www.w3.org/2000/svg" xmlns:xlink="http://www.w3.org/1999/xlink">
<path d="M0.589,6C0.589,8.946 2.977,11.333 5.923,11.333C8.868,11.333 11.256,8.946 11.256,6C11.256,3.054 8.868,0.667 5.923,0.667C2.977,0.667 0.589,3.054 0.589,6ZM5.923,7L7.904,7L7.904,5L5.923,5L5.923,7ZM11.867,7L15.83,7L15.83,5L11.867,5L11.867,7ZM19.792,7L23.755,7L23.755,5L19.792,5L19.792,7ZM27.718,7L31.681,7L31.681,5L27.718,5L27.718,7ZM35.644,7L39.606,7L39.606,5L35.644,5L35.644,7ZM43.569,7L47.532,7L47.532,5L43.569,5L43.569,7ZM51.495,7L55.458,7L55.458,5L51.495,5L51.495,7ZM59.42,7L63.383,7L63.383,5L59.42,5L59.42,7ZM67.346,7L71.309,7L71.309,5L67.346,5L67.346,7ZM75.271,7L79.234,7L79.234,5L75.271,5L75.271,7ZM83.197,7L87.16,7L87.16,5L83.197,5L83.197,7ZM91.123,7L95.085,7L95.085,5L91.123,5L91.123,7ZM99.048,7L103.011,7L103.011,5L99.048,5L99.048,7ZM106.974,7L110.937,7L110.937,5L106.974,5L106.974,7ZM114.899,7L118.862,7L118.862,5L114.899,5L114.899,7ZM122.825,7L126.788,7L126.788,5L122.825,5L122.825,7ZM130.751,7L134.713,7L134.713,5L130.751,5L130.751,7ZM138.676,7L142.639,7L142.639,5L138.676,5L138.676,7ZM146.602,7L150.565,7L150.565,5L146.602,5L146.602,7ZM154.527,7L158.49,7L158.49,5L154.527,5L154.527,7ZM162.453,7L166.416,7L166.416,5L162.453,5L162.453,7ZM170.379,7L174.341,7L174.341,5L170.379,5L170.379,7ZM178.304,7L182.267,7L182.267,5L178.304,5L178.304,7ZM186.23,7L188.211,7L188.211,5L186.23,5L186.23,7Z" transform="rotate(210.187 97.067 6)" fill="#FF0000"/>
</svg>
