<svg width="528" height="12" viewBox="0 0 528 12" fill="none" xmlns="http://www.w3.org/2000/svg" xmlns:xlink="http://www.w3.org/1999/xlink">
<path d="M0.462,5C0.462,7.946 2.85,10.333 5.796,10.333C8.741,10.333 11.129,7.946 11.129,5C11.129,2.054 8.741,-0.333 5.796,-0.333C2.85,-0.333 0.462,2.054 0.462,5ZM5.796,6L7.797,6L7.797,4L5.796,4L5.796,6ZM11.8,6L15.802,6L15.802,4L11.8,4L11.8,6ZM19.805,6L23.808,6L23.808,4L19.805,4L19.805,6ZM27.81,6L31.813,6L31.813,4L27.81,4L27.81,6ZM35.816,6L39.818,6L39.818,4L35.816,4L35.816,6ZM43.821,6L47.824,6L47.824,4L43.821,4L43.821,6ZM51.826,6L55.829,6L55.829,4L51.826,4L51.826,6ZM59.832,6L63.834,6L63.834,4L59.832,4L59.832,6ZM67.837,6L71.84,6L71.84,4L67.837,4L67.837,6ZM75.842,6L79.845,6L79.845,4L75.842,4L75.842,6ZM83.848,6L87.85,6L87.85,4L83.848,4L83.848,6ZM91.853,6L95.856,6L95.856,4L91.853,4L91.853,6ZM99.858,6L103.861,6L103.861,4L99.858,4L99.858,6ZM107.864,6L111.866,6L111.866,4L107.864,4L107.864,6ZM115.869,6L119.872,6L119.872,4L115.869,4L115.869,6ZM123.874,6L127.877,6L127.877,4L123.874,4L123.874,6ZM131.879,6L135.882,6L135.882,4L131.879,4L131.879,6ZM139.885,6L143.887,6L143.887,4L139.885,4L139.885,6ZM147.89,6L151.893,6L151.893,4L147.89,4L147.89,6ZM155.895,6L159.898,6L159.898,4L155.895,4L155.895,6ZM163.901,6L167.903,6L167.903,4L163.901,4L163.901,6ZM171.906,6L175.909,6L175.909,4L171.906,4L171.906,6ZM179.911,6L183.914,6L183.914,4L179.911,4L179.911,6ZM187.917,6L191.919,6L191.919,4L187.917,4L187.917,6ZM195.922,6L199.925,6L199.925,4L195.922,4L195.922,6ZM203.927,6L207.93,6L207.93,4L203.927,4L203.927,6ZM211.932,6L215.936,6L215.936,4L211.932,4L211.932,6ZM219.938,6L223.94,6L223.94,4L219.938,4L219.938,6ZM227.944,6L231.946,6L231.946,4L227.944,4L227.944,6ZM235.948,6L239.952,6L239.952,4L235.948,4L235.948,6ZM243.954,6L247.956,6L247.956,4L243.954,4L243.954,6ZM251.96,6L255.962,6L255.962,4L251.96,4L251.96,6ZM259.964,6L263.968,6L263.968,4L259.964,4L259.964,6ZM267.97,6L271.972,6L271.972,4L267.97,4L267.97,6ZM275.976,6L279.978,6L279.978,4L275.976,4L275.976,6ZM283.98,6L287.984,6L287.984,4L283.98,4L283.98,6ZM291.986,6L295.988,6L295.988,4L291.986,4L291.986,6ZM299.992,6L303.994,6L303.994,4L299.992,4L299.992,6ZM307.996,6L312,6L312,4L307.996,4L307.996,6ZM316.002,6L320.004,6L320.004,4L316.002,4L316.002,6ZM324.008,6L328.01,6L328.01,4L324.008,4L324.008,6ZM332.012,6L336.016,6L336.016,4L332.012,4L332.012,6ZM340.018,6L344.02,6L344.02,4L340.018,4L340.018,6ZM348.024,6L352.026,6L352.026,4L348.024,4L348.024,6ZM356.028,6L360.032,6L360.032,4L356.028,4L356.028,6ZM364.034,6L368.036,6L368.036,4L364.034,4L364.034,6ZM372.04,6L376.042,6L376.042,4L372.04,4L372.04,6ZM380.044,6L384.046,6L384.046,4L380.044,4L380.044,6ZM388.05,6L392.052,6L392.052,4L388.05,4L388.05,6ZM396.054,6L400.058,6L400.058,4L396.054,4L396.054,6ZM404.06,6L408.062,6L408.062,4L404.06,4L404.06,6ZM412.066,6L416.068,6L416.068,4L412.066,4L412.066,6ZM420.07,6L424.074,6L424.074,4L420.07,4L420.07,6ZM428.076,6L432.078,6L432.078,4L428.076,4L428.076,6ZM436.082,6L440.084,6L440.084,4L436.082,4L436.082,6ZM444.086,6L448.09,6L448.09,4L444.086,4L444.086,6ZM452.092,6L456.094,6L456.094,4L452.092,4L452.092,6ZM460.098,6L464.1,6L464.1,4L460.098,4L460.098,6ZM468.102,6L472.106,6L472.106,4L468.102,4L468.102,6ZM476.108,6L480.11,6L480.11,4L476.108,4L476.108,6ZM484.114,6L488.116,6L488.116,4L484.114,4L484.114,6ZM492.118,6L496.122,6L496.122,4L492.118,4L492.118,6ZM500.124,6L504.126,6L504.126,4L500.124,4L500.124,6ZM508.13,6L512.132,6L512.132,4L508.13,4L508.13,6ZM516.134,6L520.138,6L520.138,4L516.134,4L516.134,6ZM524.14,6L526.142,6L526.142,4L524.14,4L524.14,6Z" transform="rotate(27.12 265.969 5)" fill="#FF0000"/>
</svg>
