<svg width="32" height="32" viewBox="0 0 32 32" fill="none" xmlns="http://www.w3.org/2000/svg" xmlns:xlink="http://www.w3.org/1999/xlink">
<path d="M19.16,13.747C19.16,15.492 17.745,16.907 16,16.907L16,18.907C18.85,18.907 21.16,16.597 21.16,13.747L19.16,13.747ZM16,16.907C14.255,16.907 12.84,15.492 12.84,13.747L10.84,13.747C10.84,16.597 13.15,18.907 16,18.907L16,16.907ZM12.84,13.747C12.84,12.002 14.255,10.587 16,10.587L16,8.587C13.15,8.587 10.84,10.897 10.84,13.747L12.84,13.747ZM16,10.587C17.745,10.587 19.16,12.002 19.16,13.747L21.16,13.747C21.16,10.897 18.85,8.587 16,8.587L16,10.587Z" fill="#606060"/>
<path d="M4.827,11.32L3.852,11.099L3.852,11.1L4.827,11.32ZM27.174,11.334L26.198,11.554L26.198,11.554L27.174,11.334ZM20.8,27.387L20.108,26.666L20.106,26.667L20.8,27.387ZM11.187,27.387L10.493,28.107L10.494,28.108L11.187,27.387ZM5.802,11.542C6.993,6.308 11.449,3.664 16.005,3.667C20.56,3.67 25.014,6.32 26.198,11.554L28.149,11.113C26.72,4.801 21.313,1.671 16.006,1.667C10.698,1.663 5.288,4.786 3.852,11.099L5.802,11.542ZM26.198,11.554C27.608,17.781 23.75,23.168 20.108,26.666L21.493,28.108C25.237,24.513 29.806,18.433 28.149,11.113L26.198,11.554ZM20.106,26.667C17.814,28.879 14.187,28.882 11.88,26.666L10.494,28.108C13.574,31.066 18.426,31.068 21.495,28.107L20.106,26.667ZM11.881,26.667C8.251,23.169 4.392,17.768 5.802,11.541L3.852,11.1C2.195,18.419 6.763,24.512 10.493,28.107L11.881,26.667Z" fill="#606060"/>
</svg>
