<svg width="32" height="32" viewBox="0 0 32 32" fill="none" xmlns="http://www.w3.org/2000/svg" xmlns:xlink="http://www.w3.org/1999/xlink">
<path d="M19.16,13.746C19.16,15.492 17.745,16.906 16,16.906L16,18.906C18.85,18.906 21.16,16.596 21.16,13.746L19.16,13.746ZM16,16.906C14.255,16.906 12.84,15.492 12.84,13.746L10.84,13.746C10.84,16.596 13.15,18.906 16,18.906L16,16.906ZM12.84,13.746C12.84,12.001 14.255,10.586 16,10.586L16,8.586C13.15,8.586 10.84,10.897 10.84,13.746L12.84,13.746ZM16,10.586C17.745,10.586 19.16,12.001 19.16,13.746L21.16,13.746C21.16,10.897 18.85,8.586 16,8.586L16,10.586Z" fill="#606060"/>
<path d="M4.827,11.32L3.852,11.098L3.851,11.099L4.827,11.32ZM27.173,11.333L26.198,11.554L26.198,11.554L27.173,11.333ZM20.8,27.387L20.107,26.665L20.105,26.667L20.8,27.387ZM11.187,27.387L10.493,28.107L10.494,28.108L11.187,27.387ZM5.802,11.542C6.992,6.307 11.448,3.663 16.004,3.667C20.56,3.67 25.013,6.319 26.198,11.554L28.149,11.112C26.72,4.8 21.313,1.67 16.006,1.667C10.698,1.663 5.287,4.786 3.852,11.098L5.802,11.542ZM26.198,11.554C27.608,17.78 23.75,23.167 20.107,26.665L21.493,28.108C25.237,24.512 29.806,18.433 28.149,11.112L26.198,11.554ZM20.105,26.667C17.814,28.879 14.187,28.881 11.879,26.665L10.494,28.108C13.573,31.065 18.426,31.068 21.494,28.106L20.105,26.667ZM11.881,26.667C8.251,23.168 4.392,17.768 5.802,11.541L3.851,11.099C2.194,18.418 6.762,24.511 10.493,28.107L11.881,26.667Z" fill="#606060"/>
</svg>
