<svg width="64" height="42" viewBox="0 0 64 42" fill="none" xmlns="http://www.w3.org/2000/svg" xmlns:xlink="http://www.w3.org/1999/xlink">
<rect  x="23.324" y="4.279" width="17.287" height="31.456" fill="#FF5F00"/>
<path d="M24.422,20.007C24.422,13.616 27.386,7.947 31.941,4.279C28.593,1.612 24.367,0 19.757,0C8.836,0 0,8.948 0,20.007C0,31.067 8.836,40.015 19.757,40.015C24.367,40.015 28.593,38.403 31.941,35.735C27.386,32.123 24.422,26.398 24.422,20.007L24.422,20.007Z" fill="#EB001B"/>
<path d="M63.937,20.007C63.937,31.067 55.101,40.015 44.18,40.015C39.57,40.015 35.344,38.403 31.996,35.735C36.606,32.067 39.515,26.398 39.515,20.007C39.515,13.616 36.551,7.947 31.996,4.279C35.344,1.612 39.57,0 44.18,0C55.101,0 63.937,9.003 63.937,20.007L63.937,20.007Z" fill="#F79E1B"/>
</svg>
