<svg width="42" height="20" viewBox="0 0 42 20" fill="none" xmlns="http://www.w3.org/2000/svg" xmlns:xlink="http://www.w3.org/1999/xlink">
<path d="M20.316,16.439C18.226,17.77 15.516,18.573 12.554,18.573C5.946,18.573 0.588,14.574 0.588,9.64C0.588,4.706 5.946,0.707 12.554,0.707C15.516,0.707 18.226,1.51 20.316,2.841C22.405,1.51 25.116,0.707 28.077,0.707C34.686,0.707 40.043,4.706 40.043,9.64C40.043,14.574 34.686,18.573 28.077,18.573C25.116,18.573 22.405,17.77 20.316,16.439Z" clip-rule="evenodd" fill-rule="evenodd" fill="#ED0006"/>
<path d="M20.316,16.439C22.889,14.801 24.52,12.362 24.52,9.64C24.52,6.917 22.889,4.479 20.316,2.841C22.405,1.51 25.116,0.707 28.077,0.707C34.686,0.707 40.043,4.706 40.043,9.64C40.043,14.574 34.686,18.573 28.077,18.573C25.116,18.573 22.405,17.77 20.316,16.439Z" clip-rule="evenodd" fill-rule="evenodd" fill="#F9A000"/>
<path d="M20.316,16.439C22.889,14.801 24.52,12.363 24.52,9.64C24.52,6.917 22.889,4.479 20.316,2.841C17.743,4.479 16.112,6.917 16.112,9.64C16.112,12.363 17.743,14.801 20.316,16.439Z" clip-rule="evenodd" fill-rule="evenodd" fill="#FF5E00"/>
</svg>
