<svg width="36" height="32" viewBox="0 0 36 32" fill="none" xmlns="http://www.w3.org/2000/svg" xmlns:xlink="http://www.w3.org/1999/xlink">
<path d="M18,0C19.546,0 20.8,1.084 20.8,2.422L20.799,13.147L33.2,13.147C34.746,13.147 36,14.231 36,15.569C36,16.906 34.746,17.991 33.2,17.991L20.799,17.99L20.8,28.716C20.8,30.053 19.546,31.137 18,31.137C16.454,31.137 15.2,30.053 15.2,28.716L15.2,17.99L2.8,17.991C1.254,17.991 0,16.906 0,15.569C0,14.231 1.254,13.147 2.8,13.147L15.2,13.147L15.2,2.422C15.2,1.084 16.454,0 18,0Z" clip-rule="evenodd" fill-rule="evenodd" fill="#212120"/>
</svg>
