<svg width="36" height="32" viewBox="0 0 36 32" fill="none" xmlns="http://www.w3.org/2000/svg" xmlns:xlink="http://www.w3.org/1999/xlink">
<path d="M18,0.649C19.546,0.649 20.8,1.734 20.8,3.071L20.799,13.796L33.2,13.796C34.746,13.796 36,14.881 36,16.218C36,17.556 34.746,18.64 33.2,18.64L20.799,18.639L20.8,29.365C20.8,30.703 19.546,31.787 18,31.787C16.454,31.787 15.2,30.703 15.2,29.365L15.2,18.639L2.8,18.64C1.254,18.64 0,17.556 0,16.218C0,14.881 1.254,13.796 2.8,13.796L15.2,13.796L15.2,3.071C15.2,1.734 16.454,0.649 18,0.649Z" clip-rule="evenodd" fill-rule="evenodd" fill="#212120"/>
</svg>
