<svg width="40" height="34" viewBox="0 0 40 34" fill="none" xmlns="http://www.w3.org/2000/svg" xmlns:xlink="http://www.w3.org/1999/xlink">
<path d="M20,-0.634C22.98,-0.634 25.503,1.057 26.357,3.39C28.868,2.263 32.035,2.61 34.142,4.433C36.249,6.255 36.651,8.994 35.347,11.166C38.045,11.905 40,14.087 40,16.665C40,19.242 38.045,21.425 35.347,22.163C36.651,24.335 36.249,27.074 34.142,28.897C32.035,30.719 28.868,31.067 26.357,29.939C25.503,32.272 22.98,33.963 20,33.963C17.02,33.963 14.497,32.272 13.643,29.939C11.132,31.067 7.965,30.719 5.858,28.897C3.751,27.074 3.349,24.335 4.653,22.163C1.955,21.425 0,19.242 0,16.665C0,14.087 1.955,11.905 4.653,11.166C3.349,8.994 3.751,6.255 5.858,4.433C7.965,2.61 11.132,2.263 13.643,3.39C14.497,1.057 17.02,-0.634 20,-0.634ZM20,3.21C18.773,3.21 17.778,4.071 17.778,5.132L17.778,5.789C17.778,6.603 17.184,7.329 16.296,7.601C15.926,7.714 15.564,7.844 15.211,7.99C14.361,8.342 13.347,8.192 12.68,7.615L12.143,7.151C11.275,6.4 9.868,6.4 9.001,7.151C8.133,7.902 8.133,9.119 9.001,9.869L9.537,10.334C10.204,10.91 10.377,11.787 9.971,12.522C9.802,12.828 9.651,13.141 9.521,13.461C9.207,14.229 8.367,14.743 7.425,14.743L6.667,14.743C5.439,14.743 4.444,15.603 4.444,16.665C4.444,17.726 5.439,18.587 6.667,18.587L7.425,18.587C8.367,18.587 9.207,19.1 9.521,19.868C9.651,20.188 9.802,20.502 9.971,20.807C10.377,21.542 10.204,22.42 9.537,22.996L9.001,23.46C8.133,24.211 8.133,25.428 9.001,26.179C9.868,26.929 11.275,26.929 12.143,26.179L12.68,25.714C13.347,25.138 14.361,24.988 15.211,25.339C15.564,25.486 15.926,25.616 16.296,25.729C17.184,26 17.778,26.726 17.778,27.541L17.778,28.197C17.778,29.259 18.773,30.119 20,30.119C21.227,30.119 22.222,29.259 22.222,28.197L22.222,27.541C22.222,26.726 22.816,26 23.704,25.729C24.074,25.616 24.436,25.486 24.789,25.339C25.639,24.988 26.653,25.138 27.32,25.714L27.857,26.179C28.725,26.929 30.132,26.929 30.999,26.179C31.867,25.428 31.867,24.211 30.999,23.46L30.463,22.996C29.796,22.42 29.623,21.542 30.029,20.807C30.198,20.502 30.349,20.188 30.479,19.868C30.793,19.1 31.633,18.587 32.575,18.587L33.333,18.587C34.561,18.587 35.556,17.726 35.556,16.665C35.556,15.603 34.561,14.743 33.333,14.743L32.575,14.743C31.633,14.743 30.793,14.229 30.479,13.461C30.349,13.141 30.198,12.828 30.029,12.522C29.623,11.787 29.796,10.91 30.463,10.334L30.999,9.869C31.867,9.119 31.867,7.902 30.999,7.151C30.132,6.4 28.725,6.4 27.857,7.151L27.32,7.615C26.653,8.192 25.639,8.342 24.789,7.99C24.436,7.844 24.074,7.714 23.704,7.601C22.816,7.329 22.222,6.603 22.222,5.789L22.222,5.132C22.222,4.071 21.227,3.21 20,3.21ZM20,12.821C22.455,12.821 24.444,14.542 24.444,16.665C24.444,18.788 22.455,20.509 20,20.509C17.545,20.509 15.556,18.788 15.556,16.665C15.556,14.542 17.545,12.821 20,12.821Z" clip-rule="evenodd" fill-rule="evenodd" fill="#212120"/>
</svg>
