<svg width="40" height="36" viewBox="0 0 40 36" fill="none" xmlns="http://www.w3.org/2000/svg" xmlns:xlink="http://www.w3.org/1999/xlink">
<path d="M20,0C22.98,0 25.503,1.691 26.357,4.024C28.868,2.897 32.035,3.244 34.142,5.067C36.249,6.889 36.651,9.628 35.347,11.8C38.045,12.539 40,14.721 40,17.299C40,19.876 38.045,22.058 35.347,22.797C36.651,24.969 36.249,27.708 34.142,29.531C32.035,31.353 28.868,31.701 26.357,30.573C25.503,32.906 22.98,34.597 20,34.597C17.02,34.597 14.497,32.906 13.643,30.573C11.132,31.701 7.965,31.353 5.858,29.531C3.751,27.708 3.349,24.969 4.653,22.797C1.955,22.058 0,19.876 0,17.299C0,14.721 1.955,12.539 4.653,11.8C3.349,9.628 3.751,6.889 5.858,5.067C7.965,3.244 11.132,2.897 13.643,4.024C14.497,1.691 17.02,0 20,0ZM20,3.844C18.773,3.844 17.778,4.705 17.778,5.766L17.778,6.422C17.778,7.237 17.184,7.963 16.296,8.235C15.926,8.348 15.564,8.478 15.211,8.624C14.361,8.976 13.347,8.826 12.68,8.249L12.143,7.785C11.275,7.034 9.868,7.034 9.001,7.785C8.133,8.535 8.133,9.752 9.001,10.503L9.537,10.967C10.204,11.544 10.377,12.421 9.971,13.156C9.802,13.462 9.651,13.775 9.521,14.095C9.207,14.863 8.367,15.377 7.425,15.377L6.667,15.377C5.439,15.377 4.444,16.237 4.444,17.299C4.444,18.36 5.439,19.221 6.667,19.221L7.425,19.221C8.367,19.221 9.207,19.734 9.521,20.502C9.651,20.822 9.802,21.135 9.971,21.441C10.377,22.176 10.204,23.053 9.537,23.63L9.001,24.094C8.133,24.845 8.133,26.062 9.001,26.812C9.868,27.563 11.275,27.563 12.143,26.812L12.68,26.348C13.347,25.772 14.361,25.621 15.211,25.973C15.564,26.12 15.926,26.25 16.296,26.363C17.184,26.634 17.778,27.36 17.778,28.175L17.778,28.831C17.778,29.892 18.773,30.753 20,30.753C21.227,30.753 22.222,29.892 22.222,28.831L22.222,28.175C22.222,27.36 22.816,26.634 23.704,26.363C24.074,26.25 24.436,26.12 24.789,25.973C25.639,25.621 26.653,25.772 27.32,26.348L27.857,26.812C28.725,27.563 30.132,27.563 30.999,26.812C31.867,26.062 31.867,24.845 30.999,24.094L30.463,23.63C29.796,23.053 29.623,22.176 30.029,21.441C30.198,21.135 30.349,20.822 30.479,20.502C30.793,19.734 31.633,19.221 32.575,19.221L33.333,19.221C34.561,19.221 35.556,18.36 35.556,17.299C35.556,16.237 34.561,15.377 33.333,15.377L32.575,15.377C31.633,15.377 30.793,14.863 30.479,14.095C30.349,13.775 30.198,13.462 30.029,13.156C29.623,12.421 29.796,11.544 30.463,10.967L30.999,10.503C31.867,9.752 31.867,8.535 30.999,7.785C30.132,7.034 28.725,7.034 27.857,7.785L27.32,8.249C26.653,8.826 25.639,8.976 24.789,8.624C24.436,8.478 24.074,8.348 23.704,8.235C22.816,7.963 22.222,7.237 22.222,6.422L22.222,5.766C22.222,4.705 21.227,3.844 20,3.844ZM20,13.454C22.455,13.454 24.444,15.176 24.444,17.299C24.444,19.422 22.455,21.143 20,21.143C17.545,21.143 15.556,19.422 15.556,17.299C15.556,15.176 17.545,13.454 20,13.454Z" clip-rule="evenodd" fill-rule="evenodd" fill="#212120"/>
</svg>
