<svg width="180" height="180" viewBox="0 0 180 180" fill="none" xmlns="http://www.w3.org/2000/svg" xmlns:xlink="http://www.w3.org/1999/xlink">
<g opacity="0.07">
<circle cx="90" cy="90" r="90" fill="#3B6BFD"/>
</g>
<circle cx="90" cy="90" r="76" fill="#3B6BFD"/>
<path d="M114.162,76.828C115.724,75.266 115.724,72.734 114.162,71.172C112.6,69.609 110.067,69.609 108.505,71.172L114.162,76.828ZM82,103.333L79.172,106.162C80.734,107.724 83.267,107.724 84.829,106.162L82,103.333ZM71.495,87.172C69.933,85.609 67.401,85.609 65.839,87.172C64.276,88.734 64.276,91.266 65.839,92.828L71.495,87.172ZM108.505,71.172L79.172,100.505L84.829,106.162L114.162,76.828L108.505,71.172ZM84.829,100.505L71.495,87.172L65.839,92.828L79.172,106.162L84.829,100.505Z" fill="#FFFFFF"/>
</svg>
