<svg width="16" height="12" viewBox="0 0 16 12" fill="none" xmlns="http://www.w3.org/2000/svg" xmlns:xlink="http://www.w3.org/1999/xlink">
<path d="M0.756,8.203L0.756,5.141L2.336,5.141C2.984,5.141 3.531,4.924 3.976,4.496L4.083,4.387C4.897,3.501 4.844,2.121 3.976,1.301C3.543,0.867 2.948,0.632 2.336,0.644L-0.201,0.644L-0.201,8.203L0.756,8.203ZM0.756,4.213L0.756,1.572L2.361,1.572C2.705,1.572 3.032,1.705 3.276,1.946C3.793,2.452 3.805,3.296 3.305,3.821C3.062,4.08 2.717,4.225 2.361,4.213L0.756,4.213ZM8.545,3.435C8.135,3.055 7.577,2.862 6.87,2.862C5.961,2.862 5.278,3.2 4.826,3.869L5.67,4.405C5.979,3.947 6.401,3.718 6.935,3.718C7.274,3.718 7.601,3.845 7.856,4.074C8.106,4.291 8.248,4.604 8.248,4.936L8.248,5.159C7.88,4.954 7.417,4.846 6.846,4.846C6.181,4.846 5.646,5.002 5.248,5.322C4.85,5.641 4.648,6.063 4.648,6.6C4.636,7.088 4.844,7.552 5.212,7.866C5.587,8.203 6.062,8.372 6.62,8.372C7.28,8.372 7.803,8.077 8.201,7.486L8.242,7.486L8.242,8.203L9.157,8.203L9.157,5.014C9.157,4.345 8.955,3.815 8.545,3.435ZM5.949,7.251C5.753,7.106 5.634,6.871 5.634,6.618C5.634,6.334 5.765,6.099 6.02,5.912C6.282,5.726 6.609,5.629 6.995,5.629C7.53,5.623 7.946,5.744 8.243,5.985C8.243,6.395 8.083,6.75 7.768,7.052C7.482,7.341 7.096,7.504 6.692,7.504C6.425,7.51 6.163,7.419 5.949,7.251ZM11.213,10.476L14.41,3.031L13.37,3.031L11.891,6.744L11.873,6.744L10.358,3.031L9.318,3.031L11.415,7.872L10.227,10.476L11.213,10.476Z" clip-rule="evenodd" fill-rule="evenodd" fill="#3C4043"/>
</svg>
