<svg width="34" height="32" viewBox="0 0 34 32" fill="none" xmlns="http://www.w3.org/2000/svg" xmlns:xlink="http://www.w3.org/1999/xlink">
<path d="M31.345,13.75L21.858,4.199C19.325,1.67 15.891,0.25 12.312,0.25C8.732,0.25 5.299,1.67 2.765,4.199L2.753,4.211L0.816,6.212C0.616,6.428 0.508,6.714 0.515,7.008C0.523,7.302 0.646,7.582 0.857,7.787C1.069,7.992 1.352,8.105 1.647,8.104C1.941,8.102 2.223,7.985 2.432,7.778L4.363,5.783C5.14,5.007 6.026,4.348 6.994,3.829L13.533,10.375L0.033,23.875C-0.176,24.084 -0.342,24.332 -0.455,24.605C-0.568,24.878 -0.626,25.171 -0.626,25.466C-0.626,25.762 -0.568,26.054 -0.455,26.327C-0.342,26.6 -0.176,26.848 0.033,27.057L2.943,29.967C3.152,30.176 3.4,30.342 3.673,30.455C3.946,30.568 4.238,30.626 4.534,30.626C4.829,30.626 5.122,30.568 5.395,30.455C5.668,30.342 5.916,30.176 6.125,29.967L19.625,16.467L21.642,18.483L24.125,20.964C24.334,21.173 24.582,21.339 24.855,21.452C25.128,21.565 25.421,21.623 25.716,21.623C26.012,21.623 26.304,21.565 26.577,21.452C26.85,21.339 27.098,21.173 27.307,20.964L31.342,16.929C31.764,16.508 32.001,15.936 32.001,15.34C32.002,14.744 31.766,14.172 31.345,13.75ZM4.533,28.375L1.625,25.465L11.187,15.903L14.096,18.812L4.533,28.375ZM18.829,14.076L15.687,17.219L12.778,14.312L15.921,11.169C16.026,11.065 16.109,10.941 16.165,10.804C16.222,10.668 16.251,10.521 16.251,10.373C16.251,10.226 16.222,10.079 16.165,9.943C16.109,9.806 16.026,9.682 15.921,9.578L9.264,2.922C11.187,2.38 13.22,2.36 15.154,2.865C17.087,3.369 18.851,4.38 20.265,5.792L26.483,12.051L22.438,16.093L20.421,14.076C20.317,13.972 20.192,13.889 20.056,13.832C19.919,13.775 19.773,13.746 19.625,13.746C19.477,13.746 19.331,13.775 19.194,13.832C19.058,13.889 18.934,13.972 18.829,14.076ZM25.72,19.372L24.032,17.685L28.063,13.644L29.75,15.332L25.72,19.372Z" fill="#0E246F"/>
</svg>
