<svg width="52" height="46" viewBox="0 0 52 46" fill="none" xmlns="http://www.w3.org/2000/svg" xmlns:xlink="http://www.w3.org/1999/xlink">
<path d="M36,26C36,26.53 35.789,27.039 35.414,27.414C35.039,27.789 34.53,28 34,28L28,28L28,34C28,34.53 27.789,35.039 27.414,35.414C27.039,35.789 26.53,36 26,36C25.47,36 24.961,35.789 24.586,35.414C24.211,35.039 24,34.53 24,34L24,28L18,28C17.47,28 16.961,27.789 16.586,27.414C16.211,27.039 16,26.53 16,26C16,25.47 16.211,24.961 16.586,24.586C16.961,24.211 17.47,24 18,24L24,24L24,18C24,17.47 24.211,16.961 24.586,16.586C24.961,16.211 25.47,16 26,16C26.53,16 27.039,16.211 27.414,16.586C27.789,16.961 28,17.47 28,18L28,24L34,24C34.53,24 35.039,24.211 35.414,24.586C35.789,24.961 36,25.47 36,26ZM52,12L52,40C52,41.591 51.368,43.117 50.243,44.243C49.117,45.368 47.591,46 46,46L6,46C4.409,46 2.883,45.368 1.757,44.243C0.632,43.117 0,41.591 0,40L0,12C0,10.409 0.632,8.883 1.757,7.757C2.883,6.632 4.409,6 6,6L12.93,6L15.75,1.78C16.115,1.233 16.608,0.785 17.187,0.475C17.766,0.164 18.413,0.001 19.07,0L32.93,0C33.587,0.001 34.234,0.164 34.813,0.475C35.392,0.785 35.885,1.233 36.25,1.78L39.07,6L46,6C47.591,6 49.117,6.632 50.243,7.757C51.368,8.883 52,10.409 52,12ZM48,12C48,11.47 47.789,10.961 47.414,10.586C47.039,10.211 46.53,10 46,10L38,10C37.671,10 37.346,9.919 37.056,9.764C36.765,9.609 36.518,9.384 36.335,9.11L32.93,4L19.07,4L15.665,9.11C15.482,9.384 15.235,9.609 14.944,9.764C14.654,9.919 14.329,10 14,10L6,10C5.47,10 4.961,10.211 4.586,10.586C4.211,10.961 4,11.47 4,12L4,40C4,40.53 4.211,41.039 4.586,41.414C4.961,41.789 5.47,42 6,42L46,42C46.53,42 47.039,41.789 47.414,41.414C47.789,41.039 48,40.53 48,40L48,12Z" fill="#343330"/>
</svg>
