<svg width="16" height="28" viewBox="0 0 16 28" fill="none" xmlns="http://www.w3.org/2000/svg" xmlns:xlink="http://www.w3.org/1999/xlink">
<path d="M2.634,0.616C2.146,0.128 1.354,0.128 0.866,0.616C0.378,1.104 0.378,1.896 0.866,2.384L2.634,0.616ZM14.25,14L15.134,14.884C15.622,14.396 15.622,13.604 15.134,13.116L14.25,14ZM0.866,25.616C0.378,26.104 0.378,26.896 0.866,27.384C1.354,27.872 2.146,27.872 2.634,27.384L0.866,25.616ZM0.866,2.384L13.366,14.884L15.134,13.116L2.634,0.616L0.866,2.384ZM13.366,13.116L0.866,25.616L2.634,27.384L15.134,14.884L13.366,13.116Z" fill="#3B16A7"/>
</svg>
