<svg width="36" height="50" viewBox="0 0 36 50" fill="none" xmlns="http://www.w3.org/2000/svg" xmlns:xlink="http://www.w3.org/1999/xlink">
<path d="M34.25,6.125L25.962,6.125C25.59,4.288 24.593,2.637 23.142,1.451C21.691,0.265 19.874,-0.383 18,-0.383C16.126,-0.383 14.309,0.265 12.858,1.451C11.407,2.637 10.41,4.288 10.038,6.125L1.75,6.125C1.319,6.125 0.906,6.296 0.601,6.601C0.296,6.906 0.125,7.319 0.125,7.75C0.125,8.181 0.296,8.594 0.601,8.899C0.906,9.204 1.319,9.375 1.75,9.375L10.038,9.375C10.39,11.089 11.286,12.644 12.593,13.807C10.329,14.845 8.411,16.509 7.065,18.604C5.72,20.699 5.003,23.135 5,25.625L5,38.625C5,39.487 5.342,40.314 5.952,40.923C6.561,41.533 7.388,41.875 8.25,41.875L11.5,41.875C11.5,43.599 12.185,45.252 13.404,46.471C14.623,47.69 16.276,48.375 18,48.375C19.724,48.375 21.377,47.69 22.596,46.471C23.815,45.252 24.5,43.599 24.5,41.875L27.75,41.875C28.612,41.875 29.439,41.533 30.048,40.923C30.658,40.314 31,39.487 31,38.625L31,25.625C30.997,23.135 30.28,20.699 28.935,18.604C27.589,16.509 25.67,14.845 23.407,13.807C24.714,12.644 25.61,11.089 25.962,9.375L34.25,9.375C34.681,9.375 35.094,9.204 35.399,8.899C35.704,8.594 35.875,8.181 35.875,7.75C35.875,7.319 35.704,6.906 35.399,6.601C35.094,6.296 34.681,6.125 34.25,6.125ZM21.25,41.875C21.25,42.737 20.908,43.564 20.298,44.173C19.689,44.783 18.862,45.125 18,45.125C17.138,45.125 16.311,44.783 15.702,44.173C15.092,43.564 14.75,42.737 14.75,41.875L14.75,32.125C14.75,31.263 15.092,30.437 15.702,29.827C16.311,29.218 17.138,28.875 18,28.875C18.862,28.875 19.689,29.218 20.298,29.827C20.908,30.437 21.25,31.263 21.25,32.125L21.25,41.875ZM27.75,25.625L27.75,38.625L24.5,38.625L24.5,32.125C24.5,30.401 23.815,28.748 22.596,27.529C21.377,26.31 19.724,25.625 18,25.625C16.276,25.625 14.623,26.31 13.404,27.529C12.185,28.748 11.5,30.401 11.5,32.125L11.5,38.625L8.25,38.625L8.25,25.625C8.25,23.039 9.277,20.559 11.106,18.731C12.934,16.902 15.414,15.875 18,15.875C20.586,15.875 23.066,16.902 24.894,18.731C26.723,20.559 27.75,23.039 27.75,25.625ZM13.125,7.75C13.125,6.786 13.411,5.843 13.947,5.042C14.482,4.24 15.244,3.615 16.134,3.246C17.025,2.877 18.005,2.781 18.951,2.969C19.897,3.157 20.765,3.621 21.447,4.303C22.129,4.985 22.593,5.853 22.781,6.799C22.969,7.745 22.873,8.725 22.504,9.616C22.135,10.506 21.51,11.268 20.708,11.804C19.907,12.339 18.964,12.625 18,12.625C16.707,12.625 15.467,12.111 14.553,11.197C13.639,10.283 13.125,9.043 13.125,7.75Z" fill="#343330"/>
</svg>
