<svg width="28" height="30" viewBox="0 0 28 30" fill="none" xmlns="http://www.w3.org/2000/svg" xmlns:xlink="http://www.w3.org/1999/xlink">
<path d="M16.288,2.459C16.326,2.316 16.392,2.182 16.482,2.065C16.572,1.948 16.684,1.849 16.812,1.775C16.94,1.701 17.081,1.653 17.228,1.634C17.374,1.615 17.523,1.625 17.666,1.663C19.752,2.207 21.654,3.297 23.179,4.821C24.703,6.346 25.793,8.248 26.337,10.334C26.375,10.477 26.385,10.626 26.366,10.772C26.347,10.919 26.299,11.06 26.225,11.188C26.151,11.316 26.052,11.428 25.935,11.518C25.818,11.608 25.684,11.674 25.541,11.712C25.446,11.737 25.348,11.75 25.25,11.75C25.002,11.75 24.761,11.668 24.565,11.517C24.368,11.366 24.227,11.154 24.163,10.915C23.719,9.212 22.829,7.659 21.585,6.415C20.341,5.171 18.788,4.281 17.085,3.837C16.942,3.799 16.808,3.733 16.691,3.643C16.574,3.553 16.475,3.441 16.401,3.313C16.327,3.185 16.279,3.044 16.259,2.897C16.24,2.751 16.25,2.602 16.288,2.459ZM15.96,8.337C17.9,8.854 19.145,10.1 19.663,12.04C19.727,12.279 19.868,12.491 20.065,12.642C20.261,12.793 20.502,12.875 20.75,12.875C20.848,12.875 20.946,12.862 21.041,12.837C21.184,12.799 21.318,12.733 21.435,12.643C21.552,12.553 21.651,12.441 21.725,12.313C21.799,12.185 21.847,12.044 21.866,11.897C21.885,11.751 21.875,11.602 21.837,11.459C21.117,8.764 19.235,6.883 16.541,6.163C16.253,6.086 15.946,6.127 15.687,6.276C15.429,6.425 15.241,6.671 15.164,6.96C15.087,7.248 15.127,7.555 15.277,7.813C15.426,8.072 15.672,8.26 15.96,8.337ZM27.483,21.746C27.232,23.651 26.297,25.4 24.851,26.666C23.404,27.932 21.547,28.628 19.625,28.625C8.459,28.625 -0.625,19.541 -0.625,8.375C-0.628,6.453 0.068,4.596 1.334,3.149C2.6,1.703 4.349,0.768 6.254,0.517C6.736,0.458 7.224,0.557 7.645,0.798C8.067,1.039 8.399,1.41 8.592,1.856L11.562,8.486L11.562,8.503C11.709,8.844 11.77,9.216 11.739,9.586C11.708,9.957 11.586,10.314 11.383,10.625C11.358,10.663 11.331,10.698 11.303,10.733L8.375,14.204C9.428,16.344 11.667,18.563 13.835,19.619L17.258,16.707C17.292,16.679 17.327,16.652 17.364,16.628C17.675,16.421 18.033,16.294 18.405,16.26C18.778,16.225 19.153,16.284 19.497,16.431L19.515,16.44L26.14,19.408C26.586,19.601 26.958,19.932 27.2,20.354C27.442,20.775 27.542,21.263 27.483,21.746ZM25.25,21.464C25.25,21.464 25.24,21.464 25.235,21.464L18.625,18.504L15.201,21.416C15.168,21.445 15.133,21.471 15.097,21.495C14.773,21.711 14.399,21.84 14.011,21.868C13.622,21.896 13.234,21.823 12.882,21.656C10.248,20.383 7.623,17.777 6.349,15.171C6.18,14.822 6.104,14.436 6.129,14.049C6.153,13.662 6.278,13.288 6.489,12.964C6.513,12.925 6.54,12.889 6.569,12.855L9.5,9.38L6.547,2.771C6.546,2.765 6.546,2.76 6.547,2.754C5.183,2.932 3.931,3.601 3.025,4.636C2.119,5.67 1.621,7 1.625,8.375C1.63,13.147 3.528,17.723 6.903,21.097C10.277,24.472 14.853,26.37 19.625,26.375C20.999,26.38 22.328,25.884 23.364,24.98C24.399,24.076 25.07,22.825 25.25,21.463L25.25,21.464Z" fill="#343330"/>
</svg>
