<svg width="48" height="40" viewBox="0 0 48 40" fill="none" xmlns="http://www.w3.org/2000/svg" xmlns:xlink="http://www.w3.org/1999/xlink">
<path d="M46.375,36.25L43.125,36.25L43.125,13.5C43.556,13.5 43.969,13.329 44.274,13.024C44.579,12.719 44.75,12.306 44.75,11.875C44.75,11.444 44.579,11.031 44.274,10.726C43.969,10.421 43.556,10.25 43.125,10.25L33.375,10.25L33.375,3.75C33.806,3.75 34.219,3.579 34.524,3.274C34.829,2.969 35,2.556 35,2.125C35,1.694 34.829,1.281 34.524,0.976C34.219,0.671 33.806,0.5 33.375,0.5L4.125,0.5C3.694,0.5 3.281,0.671 2.976,0.976C2.671,1.281 2.5,1.694 2.5,2.125C2.5,2.556 2.671,2.969 2.976,3.274C3.281,3.579 3.694,3.75 4.125,3.75L4.125,36.25L0.875,36.25C0.444,36.25 0.031,36.421 -0.274,36.726C-0.579,37.031 -0.75,37.444 -0.75,37.875C-0.75,38.306 -0.579,38.719 -0.274,39.024C0.031,39.329 0.444,39.5 0.875,39.5L46.375,39.5C46.806,39.5 47.219,39.329 47.524,39.024C47.829,38.719 48,38.306 48,37.875C48,37.444 47.829,37.031 47.524,36.726C47.219,36.421 46.806,36.25 46.375,36.25ZM39.875,13.5L39.875,36.25L33.375,36.25L33.375,13.5L39.875,13.5ZM7.375,3.75L30.125,3.75L30.125,36.25L25.25,36.25L25.25,26.5C25.25,26.069 25.079,25.656 24.774,25.351C24.469,25.046 24.056,24.875 23.625,24.875L13.875,24.875C13.444,24.875 13.031,25.046 12.726,25.351C12.421,25.656 12.25,26.069 12.25,26.5L12.25,36.25L7.375,36.25L7.375,3.75ZM22,36.25L15.5,36.25L15.5,28.125L22,28.125L22,36.25ZM10.625,10.25C10.625,9.819 10.796,9.406 11.101,9.101C11.406,8.796 11.819,8.625 12.25,8.625L15.5,8.625C15.931,8.625 16.344,8.796 16.649,9.101C16.954,9.406 17.125,9.819 17.125,10.25C17.125,10.681 16.954,11.094 16.649,11.399C16.344,11.704 15.931,11.875 15.5,11.875L12.25,11.875C11.819,11.875 11.406,11.704 11.101,11.399C10.796,11.094 10.625,10.681 10.625,10.25ZM20.375,10.25C20.375,9.819 20.546,9.406 20.851,9.101C21.156,8.796 21.569,8.625 22,8.625L25.25,8.625C25.681,8.625 26.094,8.796 26.399,9.101C26.704,9.406 26.875,9.819 26.875,10.25C26.875,10.681 26.704,11.094 26.399,11.399C26.094,11.704 25.681,11.875 25.25,11.875L22,11.875C21.569,11.875 21.156,11.704 20.851,11.399C20.546,11.094 20.375,10.681 20.375,10.25ZM10.625,18.375C10.625,17.944 10.796,17.531 11.101,17.226C11.406,16.921 11.819,16.75 12.25,16.75L15.5,16.75C15.931,16.75 16.344,16.921 16.649,17.226C16.954,17.531 17.125,17.944 17.125,18.375C17.125,18.806 16.954,19.219 16.649,19.524C16.344,19.829 15.931,20 15.5,20L12.25,20C11.819,20 11.406,19.829 11.101,19.524C10.796,19.219 10.625,18.806 10.625,18.375ZM20.375,18.375C20.375,17.944 20.546,17.531 20.851,17.226C21.156,16.921 21.569,16.75 22,16.75L25.25,16.75C25.681,16.75 26.094,16.921 26.399,17.226C26.704,17.531 26.875,17.944 26.875,18.375C26.875,18.806 26.704,19.219 26.399,19.524C26.094,19.829 25.681,20 25.25,20L22,20C21.569,20 21.156,19.829 20.851,19.524C20.546,19.219 20.375,18.806 20.375,18.375Z" fill="#343330"/>
</svg>
