<svg width="52" height="50" viewBox="0 0 52 50" fill="none" xmlns="http://www.w3.org/2000/svg" xmlns:xlink="http://www.w3.org/1999/xlink">
<path d="M48,12L40,12L40,4C40,2.939 39.579,1.922 38.828,1.172C38.078,0.421 37.061,0 36,0L4,0C2.939,0 1.922,0.421 1.172,1.172C0.421,1.922 0,2.939 0,4L0,36C0.001,36.376 0.108,36.745 0.31,37.063C0.511,37.381 0.797,37.635 1.137,37.798C1.476,37.96 1.855,38.024 2.228,37.981C2.602,37.938 2.956,37.79 3.25,37.555L12,30.5L12,38C12,39.061 12.421,40.078 13.172,40.828C13.922,41.579 14.939,42 16,42L39.397,42L48.75,49.555C49.104,49.841 49.545,49.998 50,50C50.53,50 51.039,49.789 51.414,49.414C51.789,49.039 52,48.53 52,48L52,16C52,14.939 51.579,13.922 50.828,13.172C50.078,12.421 49.061,12 48,12ZM10.637,26.445L4,31.812L4,4L36,4L36,26L11.895,26C11.437,26 10.993,26.157 10.637,26.445ZM48,43.812L41.362,38.445C41.009,38.159 40.568,38.002 40.112,38L16,38L16,30L36,30C37.061,30 38.078,29.579 38.828,28.828C39.579,28.078 40,27.061 40,26L40,16L48,16L48,43.812Z" fill="#FF6B00"/>
</svg>
