<svg width="40" height="42" viewBox="0 0 40 42" fill="none" xmlns="http://www.w3.org/2000/svg" xmlns:xlink="http://www.w3.org/1999/xlink">
<path d="M37.287,17.375L4.474,-0.604C3.921,-0.904 3.286,-1.034 2.653,-0.977C2.021,-0.921 1.421,-0.681 0.934,-0.29C0.448,0.102 0.097,0.627 -0.072,1.215C-0.24,1.802 -0.218,2.426 -0.008,3.001L5.974,20L-0.008,37.001C-0.175,37.453 -0.226,37.937 -0.157,38.412C-0.088,38.888 0.098,39.34 0.387,39.732C0.675,40.124 1.057,40.443 1.501,40.664C1.945,40.885 2.437,41 2.937,41C3.48,40.999 4.014,40.863 4.486,40.606L37.283,22.597C37.767,22.337 38.17,21.958 38.45,21.499C38.731,21.04 38.88,20.517 38.881,19.985C38.882,19.453 38.735,18.93 38.456,18.47C38.177,18.01 37.775,17.629 37.293,17.367L37.287,17.375ZM2.937,38C2.938,37.992 2.938,37.985 2.937,37.977L8.746,21.5L20.125,21.5C20.539,21.5 20.937,21.342 21.23,21.061C21.523,20.779 21.687,20.398 21.687,20C21.687,19.602 21.523,19.221 21.23,18.939C20.937,18.658 20.539,18.5 20.125,18.5L8.746,18.5L2.949,2.03C2.947,2.019 2.943,2.009 2.937,2L35.75,19.968L2.937,38Z" fill="#FFFFFF" stroke="#000000" stroke-width="1" stroke-miterlimit="3.999327"/>
</svg>
