<svg width="36" height="40" viewBox="0 0 36 40" fill="none" xmlns="http://www.w3.org/2000/svg" xmlns:xlink="http://www.w3.org/1999/xlink">
<path d="M34.287,31.172C33.677,32.57 32.954,33.856 32.117,35.039C30.976,36.651 30.042,37.767 29.322,38.387C28.205,39.404 27.01,39.925 25.729,39.955C24.809,39.955 23.701,39.695 22.41,39.169C21.115,38.646 19.925,38.387 18.837,38.387C17.696,38.387 16.472,38.646 15.163,39.169C13.852,39.695 12.796,39.969 11.988,39.997C10.76,40.048 9.536,39.513 8.314,38.387C7.534,37.713 6.559,36.557 5.39,34.92C4.137,33.172 3.106,31.145 2.298,28.834C1.434,26.338 1,23.921 1,21.58C1,18.9 1.585,16.588 2.755,14.65C3.675,13.094 4.9,11.866 6.432,10.965C7.964,10.064 9.619,9.605 11.402,9.575C12.377,9.575 13.656,9.874 15.246,10.462C16.831,11.052 17.849,11.351 18.295,11.351C18.629,11.351 19.76,11.001 21.676,10.304C23.489,9.657 25.019,9.39 26.272,9.495C29.668,9.767 32.219,11.094 33.916,13.484C30.879,15.307 29.377,17.861 29.406,21.138C29.434,23.69 30.368,25.814 32.204,27.501C33.037,28.283 33.966,28.888 35,29.318C34.776,29.962 34.539,30.58 34.287,31.172L34.287,31.172ZM26.499,0.8C26.499,2.801 25.761,4.668 24.291,6.397C22.517,8.453 20.371,9.64 18.045,9.453C18.015,9.213 17.998,8.96 17.998,8.695C17.998,6.774 18.841,4.719 20.34,3.039C21.088,2.188 22.039,1.48 23.192,0.916C24.344,0.36 25.432,0.053 26.456,0C26.486,0.267 26.499,0.535 26.499,0.8L26.499,0.8Z" fill="#000000"/>
</svg>
