<svg width="14" height="30" viewBox="0 0 14 30" fill="none" xmlns="http://www.w3.org/2000/svg" xmlns:xlink="http://www.w3.org/1999/xlink">
<path d="M-0.034,26.316C-0.522,26.804 -0.522,27.596 -0.034,28.084C0.454,28.572 1.245,28.572 1.733,28.084L-0.034,26.316ZM1.733,-0.084C1.245,-0.572 0.454,-0.572 -0.034,-0.084C-0.522,0.404 -0.522,1.195 -0.034,1.684L1.733,-0.084ZM1.733,28.084L12.6,17.217L10.832,15.449L-0.034,26.316L1.733,28.084ZM12.6,17.217C14.372,15.445 14.372,12.554 12.6,10.782L10.832,12.55C11.628,13.345 11.628,14.654 10.832,15.449L12.6,17.217ZM12.6,10.782L1.733,-0.084L-0.034,1.684L10.832,12.55L12.6,10.782Z" fill="#000000"/>
</svg>
