<svg width="26" height="26" viewBox="0 0 26 26" fill="none" xmlns="http://www.w3.org/2000/svg" xmlns:xlink="http://www.w3.org/1999/xlink">
<path d="M18.351,9.524C18.438,9.611 18.507,9.715 18.554,9.828C18.601,9.942 18.626,10.064 18.626,10.188C18.626,10.311 18.601,10.433 18.554,10.547C18.507,10.66 18.438,10.764 18.351,10.851L11.788,17.413C11.701,17.5 11.598,17.57 11.484,17.617C11.37,17.664 11.248,17.688 11.125,17.688C11.002,17.688 10.88,17.664 10.766,17.617C10.652,17.57 10.549,17.5 10.462,17.413L7.649,14.601C7.473,14.425 7.374,14.186 7.374,13.938C7.374,13.689 7.473,13.45 7.649,13.274C7.825,13.098 8.064,12.999 8.313,12.999C8.561,12.999 8.8,13.098 8.976,13.274L11.125,15.425L17.024,9.524C17.111,9.437 17.215,9.368 17.329,9.321C17.442,9.274 17.564,9.249 17.688,9.249C17.811,9.249 17.933,9.274 18.047,9.321C18.16,9.368 18.264,9.437 18.351,9.524ZM25.188,13C25.188,15.41 24.473,17.767 23.133,19.771C21.794,21.775 19.891,23.337 17.664,24.26C15.437,25.182 12.986,25.423 10.622,24.953C8.258,24.483 6.087,23.322 4.382,21.618C2.678,19.913 1.517,17.742 1.047,15.378C0.576,13.014 0.818,10.563 1.74,8.336C2.663,6.109 4.225,4.206 6.229,2.866C8.233,1.527 10.59,0.813 13,0.813C16.231,0.816 19.329,2.101 21.614,4.386C23.899,6.671 25.184,9.769 25.188,13ZM23.313,13C23.313,10.96 22.708,8.967 21.574,7.271C20.441,5.575 18.831,4.253 16.946,3.472C15.062,2.692 12.989,2.488 10.988,2.886C8.988,3.284 7.15,4.266 5.708,5.708C4.266,7.15 3.284,8.988 2.886,10.988C2.488,12.989 2.692,15.062 3.473,16.946C4.253,18.831 5.575,20.441 7.271,21.574C8.967,22.708 10.96,23.313 13,23.313C15.734,23.309 18.355,22.222 20.289,20.289C22.222,18.355 23.31,15.734 23.313,13Z" fill="#2AB230"/>
</svg>
