<svg width="42" height="26" viewBox="0 0 42 26" fill="none" xmlns="http://www.w3.org/2000/svg" xmlns:xlink="http://www.w3.org/1999/xlink">
<path d="M20.507,-0.746C11.44,-0.746 3.697,4.606 0.56,12.161C3.697,19.717 11.44,25.069 20.507,25.069C29.574,25.069 37.316,19.717 40.454,12.161C37.316,4.606 29.574,-0.746 20.507,-0.746ZM20.507,20.766C15.502,20.766 11.44,16.911 11.44,12.161C11.44,7.411 15.502,3.556 20.507,3.556C25.512,3.556 29.574,7.411 29.574,12.161C29.574,16.911 25.512,20.766 20.507,20.766ZM20.507,6.998C17.497,6.998 15.067,9.304 15.067,12.161C15.067,15.018 17.497,17.324 20.507,17.324C23.517,17.324 25.947,15.018 25.947,12.161C25.947,9.304 23.517,6.998 20.507,6.998Z" fill="#C4C4C4"/>
</svg>
