<svg width="16" height="28" viewBox="0 0 16 28" fill="none" xmlns="http://www.w3.org/2000/svg" xmlns:xlink="http://www.w3.org/1999/xlink">
<path d="M2.384,0.616C1.896,0.128 1.104,0.128 0.616,0.616C0.128,1.104 0.128,1.896 0.616,2.384L2.384,0.616ZM14,14L14.884,14.884C15.372,14.396 15.372,13.604 14.884,13.116L14,14ZM0.616,25.616C0.128,26.104 0.128,26.896 0.616,27.384C1.104,27.872 1.896,27.872 2.384,27.384L0.616,25.616ZM0.616,2.384L13.116,14.884L14.884,13.116L2.384,0.616L0.616,2.384ZM13.116,13.116L0.616,25.616L2.384,27.384L14.884,14.884L13.116,13.116Z" fill="#3B16A7"/>
</svg>
