<svg width="40" height="40" viewBox="0 0 40 40" fill="none" xmlns="http://www.w3.org/2000/svg" xmlns:xlink="http://www.w3.org/1999/xlink">
<path d="M14.77,9.909C14.147,10.455 14.084,11.403 14.629,12.026C15.175,12.649 16.123,12.712 16.746,12.167L14.77,9.909ZM24.242,11.038L23.254,12.167L23.255,12.167L24.242,11.038ZM24.242,18.462L23.255,17.333L23.25,17.337L24.242,18.462ZM22.902,19.346L22.249,17.995L22.248,17.996L22.902,19.346ZM18.502,24.5C18.502,25.328 19.174,26 20.002,26C20.83,26 21.502,25.328 21.502,24.5L18.502,24.5ZM20,2L20,3.5L20,2ZM20,30.5L20,29C19.172,29 18.5,29.672 18.5,30.5L20,30.5ZM20.016,30.5L21.516,30.5C21.516,29.672 20.844,29 20.016,29L20.016,30.5ZM20.016,30.516L20.016,32.016C20.844,32.016 21.516,31.344 21.516,30.516L20.016,30.516ZM20,30.516L18.5,30.516C18.5,31.344 19.172,32.016 20,32.016L20,30.516ZM16.746,12.167C18.522,10.612 21.478,10.612 23.254,12.167L25.23,9.909C22.322,7.364 17.678,7.364 14.77,9.909L16.746,12.167ZM23.255,12.167C24.915,13.619 24.915,15.881 23.255,17.333L25.229,19.591C28.257,16.943 28.257,12.557 25.229,9.909L23.255,12.167ZM23.25,17.337C22.954,17.598 22.616,17.818 22.249,17.995L23.555,20.697C24.148,20.41 24.718,20.042 25.234,19.587L23.25,17.337ZM22.248,17.996C20.619,18.786 18.502,20.444 18.502,23L21.502,23C21.502,22.244 22.205,21.35 23.556,20.696L22.248,17.996ZM18.502,23L18.502,24.5L21.502,24.5L21.502,23L18.502,23ZM36.5,20C36.5,22.167 36.073,24.312 35.244,26.314L38.016,27.462C38.996,25.096 39.5,22.561 39.5,20L36.5,20ZM35.244,26.314C34.415,28.316 33.199,30.135 31.667,31.667L33.789,33.789C35.599,31.978 37.036,29.828 38.016,27.462L35.244,26.314ZM31.667,31.667C30.135,33.199 28.316,34.415 26.314,35.244L27.462,38.016C29.828,37.036 31.978,35.599 33.789,33.789L31.667,31.667ZM26.314,35.244C24.312,36.073 22.167,36.5 20,36.5L20,39.5C22.561,39.5 25.096,38.996 27.462,38.016L26.314,35.244ZM20,36.5C17.833,36.5 15.688,36.073 13.686,35.244L12.538,38.016C14.904,38.996 17.439,39.5 20,39.5L20,36.5ZM13.686,35.244C11.684,34.415 9.865,33.199 8.333,31.667L6.211,33.789C8.022,35.599 10.172,37.036 12.538,38.016L13.686,35.244ZM8.333,31.667C6.801,30.135 5.585,28.316 4.756,26.314L1.984,27.462C2.964,29.828 4.401,31.978 6.211,33.789L8.333,31.667ZM4.756,26.314C3.927,24.312 3.5,22.167 3.5,20L0.5,20C0.5,22.561 1.004,25.096 1.984,27.462L4.756,26.314ZM3.5,20C3.5,15.624 5.238,11.427 8.333,8.333L6.211,6.211C2.554,9.868 0.5,14.828 0.5,20L3.5,20ZM8.333,8.333C11.427,5.238 15.624,3.5 20,3.5L20,0.5C14.828,0.5 9.868,2.554 6.211,6.211L8.333,8.333ZM20,3.5C24.376,3.5 28.573,5.238 31.667,8.333L33.789,6.211C30.132,2.554 25.172,0.5 20,0.5L20,3.5ZM31.667,8.333C34.762,11.427 36.5,15.624 36.5,20L39.5,20C39.5,14.828 37.446,9.868 33.789,6.211L31.667,8.333ZM20,32L20.016,32L20.016,29L20,29L20,32ZM18.516,30.5L18.516,30.516L21.516,30.516L21.516,30.5L18.516,30.5ZM20.016,29.016L20,29.016L20,32.016L20.016,32.016L20.016,29.016ZM21.5,30.516L21.5,30.5L18.5,30.5L18.5,30.516L21.5,30.516Z" fill="#3B16A7"/>
</svg>
