<svg width="54" height="54" viewBox="0 0 54 54" fill="none" xmlns="http://www.w3.org/2000/svg" xmlns:xlink="http://www.w3.org/1999/xlink">
<path d="M51.415,24.585L27.415,0.585C27.135,0.305 26.779,0.114 26.391,0.037C26.002,-0.041 25.6,-0.001 25.234,0.15C24.869,0.302 24.556,0.558 24.337,0.888C24.117,1.217 24,1.604 24,2L24,12L4,12C2.939,12 1.922,12.421 1.172,13.171C0.421,13.921 0,14.939 0,16L0,36C0,37.06 0.421,38.078 1.172,38.828C1.922,39.578 2.939,40 4,40L24,40L24,50C24,50.395 24.117,50.782 24.337,51.112C24.556,51.441 24.869,51.697 25.234,51.849C25.6,52 26.002,52.04 26.391,51.963C26.779,51.885 27.135,51.695 27.415,51.415L51.415,27.415C51.601,27.229 51.748,27.008 51.849,26.765C51.95,26.523 52.002,26.262 52.002,26C52.002,25.737 51.95,25.476 51.849,25.234C51.748,24.991 51.601,24.77 51.415,24.585ZM28,45.172L28,38C28,37.469 27.789,36.96 27.414,36.585C27.039,36.21 26.53,36 26,36L4,36L4,16L26,16C26.53,16 27.039,15.789 27.414,15.414C27.789,15.039 28,14.53 28,14L28,6.827L47.173,26L28,45.172Z" fill="#000000"/>
</svg>
