<svg width="42" height="38" viewBox="0 0 42 38" fill="none" xmlns="http://www.w3.org/2000/svg" xmlns:xlink="http://www.w3.org/1999/xlink">
<path d="M18.125,11.125C18.125,10.606 18.294,10.098 18.61,9.667C18.925,9.235 19.374,8.898 19.9,8.7C20.425,8.501 21.003,8.449 21.561,8.55C22.119,8.652 22.631,8.902 23.033,9.269C23.435,9.636 23.709,10.104 23.82,10.613C23.931,11.122 23.874,11.65 23.656,12.13C23.439,12.609 23.07,13.019 22.597,13.308C22.124,13.596 21.569,13.75 21,13.75C20.237,13.75 19.506,13.473 18.967,12.981C18.428,12.489 18.125,11.821 18.125,11.125ZM9.5,11.125C9.5,8.34 10.712,5.67 12.868,3.7C15.025,1.731 17.95,0.625 21,0.625C24.05,0.625 26.975,1.731 29.132,3.7C31.288,5.67 32.5,8.34 32.5,11.125C32.5,20.961 22.154,26.471 21.719,26.703C21.502,26.816 21.256,26.876 21.005,26.876C20.755,26.876 20.509,26.816 20.292,26.703C19.846,26.471 9.5,20.969 9.5,11.125ZM12.375,11.125C12.375,18.048 18.815,22.644 21,24.004C23.183,22.645 29.625,18.048 29.625,11.125C29.625,9.036 28.716,7.033 27.099,5.557C25.481,4.08 23.287,3.25 21,3.25C18.712,3.25 16.519,4.08 14.901,5.557C13.284,7.033 12.375,9.036 12.375,11.125ZM34.435,22.221C34.081,22.114 33.696,22.137 33.36,22.284C33.025,22.432 32.765,22.693 32.636,23.012C32.507,23.331 32.518,23.684 32.668,23.995C32.818,24.307 33.095,24.553 33.44,24.681C36.406,25.684 38.25,27.026 38.25,28.187C38.25,30.379 31.688,33.437 21,33.437C10.312,33.437 3.75,30.379 3.75,28.187C3.75,27.026 5.594,25.684 8.56,24.683C8.905,24.554 9.182,24.308 9.332,23.997C9.482,23.685 9.493,23.333 9.364,23.014C9.235,22.695 8.975,22.434 8.64,22.286C8.304,22.138 7.919,22.115 7.565,22.222C3.25,23.674 0.875,25.794 0.875,28.187C0.875,33.303 11.245,36.063 21,36.063C30.755,36.063 41.125,33.303 41.125,28.187C41.125,25.794 38.75,23.674 34.435,22.221Z" fill="#343330"/>
</svg>
