<svg width="26" height="32" viewBox="0 0 26 32" fill="none" xmlns="http://www.w3.org/2000/svg" xmlns:xlink="http://www.w3.org/1999/xlink">
<path d="M22.25,29.5L15.405,29.5C16.555,28.457 17.639,27.341 18.652,26.16C22.451,21.721 24.464,17.041 24.464,12.625C24.464,9.343 23.181,6.195 20.897,3.875C18.613,1.554 15.515,0.25 12.286,0.25C9.056,0.25 5.958,1.554 3.674,3.875C1.39,6.195 0.107,9.343 0.107,12.625C0.107,17.041 2.115,21.721 5.919,26.16C6.932,27.341 8.016,28.457 9.166,29.5L2.321,29.5C2.028,29.5 1.746,29.619 1.538,29.83C1.331,30.04 1.214,30.327 1.214,30.625C1.214,30.923 1.331,31.21 1.538,31.42C1.746,31.631 2.028,31.75 2.321,31.75L22.25,31.75C22.543,31.75 22.825,31.631 23.033,31.42C23.24,31.21 23.357,30.923 23.357,30.625C23.357,30.327 23.24,30.04 23.033,29.83C22.825,29.619 22.543,29.5 22.25,29.5ZM2.321,12.625C2.321,9.94 3.371,7.364 5.24,5.466C7.108,3.567 9.643,2.5 12.286,2.5C14.928,2.5 17.463,3.567 19.331,5.466C21.2,7.364 22.25,9.94 22.25,12.625C22.25,20.673 14.573,27.391 12.286,29.219C9.998,27.391 2.321,20.673 2.321,12.625ZM17.821,12.625C17.821,11.512 17.497,10.425 16.888,9.5C16.28,8.575 15.415,7.854 14.404,7.428C13.392,7.002 12.279,6.891 11.206,7.108C10.132,7.325 9.145,7.861 8.371,8.648C7.597,9.434 7.07,10.436 6.856,11.528C6.643,12.619 6.752,13.75 7.171,14.778C7.59,15.805 8.3,16.684 9.21,17.302C10.12,17.92 11.191,18.25 12.286,18.25C13.754,18.25 15.162,17.657 16.2,16.602C17.238,15.548 17.821,14.117 17.821,12.625ZM8.964,12.625C8.964,11.957 9.159,11.305 9.524,10.75C9.889,10.195 10.408,9.762 11.014,9.507C11.621,9.251 12.289,9.185 12.933,9.315C13.578,9.445 14.17,9.767 14.634,10.239C15.099,10.711 15.415,11.312 15.543,11.967C15.671,12.621 15.605,13.3 15.354,13.917C15.103,14.533 14.677,15.06 14.131,15.431C13.585,15.802 12.942,16 12.286,16C11.405,16 10.56,15.644 9.937,15.011C9.314,14.379 8.964,13.52 8.964,12.625Z" fill="#492626"/>
</svg>
