<svg width="26" height="18" viewBox="0 0 26 18" fill="none" xmlns="http://www.w3.org/2000/svg" xmlns:xlink="http://www.w3.org/1999/xlink">
<path d="M23.823,2.87L13.24,16.932C13.142,17.063 13.025,17.167 12.897,17.237C12.768,17.308 12.631,17.345 12.492,17.345C12.352,17.345 12.215,17.308 12.086,17.237C11.958,17.167 11.841,17.063 11.743,16.932L1.16,2.87C0.962,2.606 0.85,2.248 0.85,1.875C0.85,1.502 0.962,1.144 1.16,0.88C1.359,0.616 1.628,0.468 1.909,0.468C2.19,0.468 2.459,0.616 2.658,0.88L12.492,13.949L22.325,0.88C22.424,0.749 22.54,0.646 22.669,0.575C22.797,0.504 22.935,0.468 23.074,0.468C23.213,0.468 23.351,0.504 23.479,0.575C23.608,0.646 23.724,0.749 23.823,0.88C23.921,1.011 23.999,1.166 24.052,1.336C24.106,1.507 24.133,1.69 24.133,1.875C24.133,2.06 24.106,2.243 24.052,2.413C23.999,2.584 23.921,2.739 23.823,2.87Z" fill="#343330"/>
</svg>
