<svg width="54" height="52" viewBox="0 0 54 52" fill="none" xmlns="http://www.w3.org/2000/svg" xmlns:xlink="http://www.w3.org/1999/xlink">
<path d="M51.415,48.585L38.898,36.07C42.526,31.714 44.335,26.127 43.949,20.471C43.563,14.816 41.011,9.527 36.824,5.705C32.638,1.882 27.139,-0.179 21.472,-0.05C15.804,0.079 10.405,2.388 6.396,6.396C2.388,10.404 0.079,15.804 -0.05,21.471C-0.178,27.139 1.883,32.638 5.705,36.824C9.527,41.01 14.816,43.562 20.472,43.948C26.128,44.334 31.714,42.525 36.07,38.897L48.585,51.415C48.771,51.6 48.991,51.748 49.234,51.848C49.477,51.949 49.737,52.001 50,52.001C50.263,52.001 50.523,51.949 50.766,51.848C51.009,51.748 51.229,51.6 51.415,51.415C51.601,51.229 51.748,51.008 51.849,50.765C51.949,50.523 52.001,50.262 52.001,50C52.001,49.737 51.949,49.477 51.849,49.234C51.748,48.991 51.601,48.77 51.415,48.585ZM4,22C4,18.44 5.056,14.959 7.034,11.999C9.011,9.039 11.823,6.732 15.112,5.37C18.401,4.007 22.02,3.651 25.512,4.345C29.003,5.04 32.211,6.754 34.728,9.272C37.245,11.789 38.96,14.996 39.654,18.488C40.349,21.98 39.992,25.599 38.63,28.888C37.268,32.177 34.96,34.988 32,36.966C29.04,38.944 25.56,40 22,40C17.228,39.994 12.652,38.096 9.278,34.722C5.903,31.347 4.005,26.772 4,22Z" fill="#343330"/>
</svg>
