<svg width="14" height="30" viewBox="0 0 14 30" fill="none" xmlns="http://www.w3.org/2000/svg" xmlns:xlink="http://www.w3.org/1999/xlink">
<path d="M-0.033,26.316C-0.521,26.804 -0.521,27.596 -0.033,28.084C0.455,28.572 1.246,28.572 1.734,28.084L-0.033,26.316ZM1.734,-0.084C1.246,-0.572 0.455,-0.572 -0.033,-0.084C-0.521,0.404 -0.521,1.195 -0.033,1.684L1.734,-0.084ZM1.734,28.084L12.601,17.217L10.833,15.449L-0.033,26.316L1.734,28.084ZM12.601,17.217C14.373,15.445 14.373,12.554 12.601,10.782L10.833,12.55C11.629,13.345 11.629,14.654 10.833,15.449L12.601,17.217ZM12.601,10.782L1.734,-0.084L-0.033,1.684L10.833,12.55L12.601,10.782Z" fill="#000000"/>
</svg>
