<svg width="16" height="56" viewBox="0 0 16 56" fill="none" xmlns="http://www.w3.org/2000/svg" xmlns:xlink="http://www.w3.org/1999/xlink">
<path d="M8,20C6.418,20 4.871,20.469 3.555,21.348C2.24,22.227 1.214,23.477 0.609,24.939C0.003,26.4 -0.155,28.009 0.154,29.561C0.462,31.113 1.224,32.538 2.343,33.657C3.462,34.776 4.887,35.538 6.439,35.846C7.991,36.155 9.6,35.997 11.061,35.391C12.523,34.786 13.773,33.76 14.652,32.445C15.531,31.129 16,29.582 16,28C16,25.878 15.157,23.843 13.657,22.343C12.157,20.843 10.122,20 8,20ZM8,32C7.209,32 6.436,31.765 5.778,31.326C5.12,30.886 4.607,30.262 4.304,29.531C4.002,28.8 3.923,27.996 4.077,27.22C4.231,26.444 4.612,25.731 5.172,25.172C5.731,24.612 6.444,24.231 7.22,24.077C7.996,23.923 8.8,24.002 9.531,24.304C10.262,24.607 10.886,25.12 11.326,25.778C11.765,26.436 12,27.209 12,28C12,29.061 11.579,30.078 10.828,30.828C10.078,31.579 9.061,32 8,32ZM8,16C9.582,16 11.129,15.531 12.445,14.652C13.76,13.773 14.786,12.523 15.391,11.061C15.997,9.6 16.155,7.991 15.846,6.439C15.538,4.887 14.776,3.462 13.657,2.343C12.538,1.224 11.113,0.462 9.561,0.154C8.009,-0.155 6.4,0.003 4.939,0.609C3.477,1.214 2.227,2.24 1.348,3.555C0.469,4.871 0,6.418 0,8C0,10.122 0.843,12.157 2.343,13.657C3.843,15.157 5.878,16 8,16ZM8,4C8.791,4 9.565,4.235 10.222,4.674C10.88,5.114 11.393,5.738 11.696,6.469C11.998,7.2 12.077,8.004 11.923,8.78C11.769,9.556 11.388,10.269 10.828,10.828C10.269,11.388 9.556,11.769 8.78,11.923C8.004,12.077 7.2,11.998 6.469,11.696C5.738,11.393 5.114,10.88 4.674,10.222C4.235,9.564 4,8.791 4,8C4,6.939 4.421,5.922 5.172,5.172C5.922,4.421 6.939,4 8,4ZM8,40C6.418,40 4.871,40.469 3.555,41.348C2.24,42.227 1.214,43.477 0.609,44.939C0.003,46.4 -0.155,48.009 0.154,49.561C0.462,51.113 1.224,52.538 2.343,53.657C3.462,54.776 4.887,55.538 6.439,55.846C7.991,56.155 9.6,55.997 11.061,55.391C12.523,54.786 13.773,53.76 14.652,52.445C15.531,51.129 16,49.582 16,48C16,45.878 15.157,43.843 13.657,42.343C12.157,40.843 10.122,40 8,40ZM8,52C7.209,52 6.436,51.765 5.778,51.326C5.12,50.886 4.607,50.262 4.304,49.531C4.002,48.8 3.923,47.996 4.077,47.22C4.231,46.444 4.612,45.731 5.172,45.172C5.731,44.612 6.444,44.231 7.22,44.077C7.996,43.923 8.8,44.002 9.531,44.304C10.262,44.607 10.886,45.12 11.326,45.778C11.765,46.436 12,47.209 12,48C12,49.061 11.579,50.078 10.828,50.828C10.078,51.579 9.061,52 8,52Z" fill="#343330" stroke="#D37836" stroke-width="1" stroke-miterlimit="3.999327"/>
</svg>
