<svg width="48" height="48" viewBox="0 0 48 48" fill="none" xmlns="http://www.w3.org/2000/svg" xmlns:xlink="http://www.w3.org/1999/xlink">
<path d="M48,30L48,46C48,46.53 47.789,47.039 47.414,47.414C47.039,47.789 46.53,48 46,48L2,48C1.47,48 0.961,47.789 0.586,47.414C0.211,47.039 0,46.53 0,46L0,30C0,29.469 0.211,28.96 0.586,28.585C0.961,28.21 1.47,28 2,28C2.53,28 3.039,28.21 3.414,28.585C3.789,28.96 4,29.469 4,30L4,44L44,44L44,30C44,29.469 44.211,28.96 44.586,28.585C44.961,28.21 45.47,28 46,28C46.53,28 47.039,28.21 47.414,28.585C47.789,28.96 48,29.469 48,30ZM15.415,13.415L22,6.827L22,30C22,30.53 22.211,31.039 22.586,31.414C22.961,31.789 23.47,32 24,32C24.53,32 25.039,31.789 25.414,31.414C25.789,31.039 26,30.53 26,30L26,6.827L32.585,13.415C32.96,13.79 33.469,14.001 34,14.001C34.531,14.001 35.04,13.79 35.415,13.415C35.79,13.039 36.001,12.53 36.001,12C36.001,11.469 35.79,10.96 35.415,10.585L25.415,0.585C25.229,0.399 25.009,0.251 24.766,0.151C24.523,0.05 24.263,-0.002 24,-0.002C23.737,-0.002 23.477,0.05 23.234,0.151C22.991,0.251 22.771,0.399 22.585,0.585L12.585,10.585C12.21,10.96 11.999,11.469 11.999,12C11.999,12.53 12.21,13.039 12.585,13.415C12.96,13.79 13.469,14.001 14,14.001C14.531,14.001 15.04,13.79 15.415,13.415Z" fill="#343330"/>
</svg>
