<svg width="38" height="28" viewBox="0 0 38 28" fill="none" xmlns="http://www.w3.org/2000/svg" xmlns:xlink="http://www.w3.org/1999/xlink">
<path d="M20.5,19.887C22.459,18.667 23.968,16.841 24.797,14.687C25.627,12.533 25.733,10.167 25.098,7.947C24.463,5.728 23.123,3.775 21.28,2.385C19.437,0.996 17.191,0.244 14.882,0.244C12.574,0.244 10.328,0.996 8.485,2.385C6.642,3.775 5.302,5.728 4.667,7.947C4.032,10.167 4.138,12.533 4.967,14.687C5.797,16.841 7.306,18.667 9.265,19.887C6.039,20.944 3.136,22.917 0.801,25.695C0.588,25.949 0.484,26.277 0.512,26.608C0.541,26.938 0.7,27.243 0.954,27.457C1.207,27.67 1.536,27.774 1.866,27.746C2.196,27.717 2.502,27.558 2.715,27.305C5.851,23.561 10.173,21.5 14.875,21.5C19.576,21.5 23.898,23.561 27.043,27.305C27.257,27.558 27.562,27.717 27.893,27.746C28.223,27.774 28.551,27.67 28.805,27.457C29.059,27.243 29.218,26.938 29.246,26.608C29.275,26.277 29.171,25.949 28.957,25.695C26.621,22.917 23.718,20.944 20.5,19.887ZM6.75,10.875C6.75,9.268 7.226,7.697 8.119,6.361C9.012,5.025 10.281,3.983 11.765,3.368C13.25,2.753 14.884,2.593 16.46,2.906C18.036,3.22 19.484,3.993 20.62,5.13C21.756,6.266 22.53,7.714 22.843,9.29C23.157,10.866 22.996,12.5 22.381,13.984C21.766,15.469 20.725,16.738 19.389,17.631C18.052,18.523 16.482,19 14.875,19C12.72,18.997 10.655,18.141 9.132,16.617C7.609,15.094 6.752,13.029 6.75,10.875ZM30.4,4.25C31.29,6.345 31.75,8.598 31.75,10.875C31.75,13.152 31.29,15.405 30.4,17.5C30.303,17.725 30.143,17.917 29.939,18.052C29.734,18.187 29.495,18.259 29.25,18.259C29.043,18.259 28.839,18.208 28.657,18.11C28.474,18.012 28.319,17.871 28.205,17.698C28.091,17.525 28.022,17.327 28.004,17.121C27.985,16.915 28.018,16.707 28.1,16.517C28.858,14.733 29.25,12.814 29.25,10.875C29.25,8.936 28.858,7.017 28.1,5.233C27.969,4.928 27.965,4.583 28.089,4.276C28.212,3.968 28.453,3.722 28.758,3.591C29.063,3.461 29.407,3.457 29.715,3.581C30.023,3.704 30.269,3.945 30.4,4.25ZM36.75,10.875C36.755,13.838 36.155,16.77 34.986,19.492C34.849,19.787 34.602,20.017 34.299,20.133C33.995,20.25 33.658,20.243 33.359,20.115C33.06,19.987 32.823,19.748 32.698,19.447C32.573,19.147 32.569,18.81 32.689,18.508C33.719,16.095 34.25,13.498 34.25,10.875C34.25,8.251 33.719,5.655 32.689,3.242C32.618,3.09 32.579,2.926 32.573,2.759C32.568,2.592 32.596,2.425 32.655,2.269C32.715,2.113 32.806,1.97 32.922,1.85C33.038,1.729 33.177,1.633 33.33,1.567C33.484,1.501 33.649,1.467 33.817,1.466C33.984,1.465 34.15,1.498 34.304,1.563C34.458,1.627 34.598,1.722 34.715,1.841C34.832,1.96 34.924,2.102 34.986,2.258C36.155,4.98 36.755,7.912 36.75,10.875Z" fill="#000000"/>
</svg>
