<svg width="36" height="44" viewBox="0 0 36 44" fill="none" xmlns="http://www.w3.org/2000/svg" xmlns:xlink="http://www.w3.org/1999/xlink">
<path d="M26.125,26.875C26.125,27.306 25.954,27.719 25.649,28.024C25.344,28.329 24.931,28.5 24.5,28.5L11.5,28.5C11.069,28.5 10.656,28.329 10.351,28.024C10.046,27.719 9.875,27.306 9.875,26.875C9.875,26.444 10.046,26.031 10.351,25.726C10.656,25.421 11.069,25.25 11.5,25.25L24.5,25.25C24.931,25.25 25.344,25.421 25.649,25.726C25.954,26.031 26.125,26.444 26.125,26.875ZM24.5,18.75L11.5,18.75C11.069,18.75 10.656,18.921 10.351,19.226C10.046,19.531 9.875,19.944 9.875,20.375C9.875,20.806 10.046,21.219 10.351,21.524C10.656,21.829 11.069,22 11.5,22L24.5,22C24.931,22 25.344,21.829 25.649,21.524C25.954,21.219 26.125,20.806 26.125,20.375C26.125,19.944 25.954,19.531 25.649,19.226C25.344,18.921 24.931,18.75 24.5,18.75ZM35.875,5.75L35.875,39.875C35.875,40.737 35.533,41.564 34.923,42.173C34.314,42.782 33.487,43.125 32.625,43.125L3.375,43.125C2.513,43.125 1.686,42.782 1.077,42.173C0.467,41.564 0.125,40.737 0.125,39.875L0.125,5.75C0.125,4.888 0.467,4.061 1.077,3.452C1.686,2.842 2.513,2.5 3.375,2.5L10.74,2.5C11.653,1.478 12.772,0.66 14.023,0.1C15.274,-0.46 16.629,-0.75 18,-0.75C19.371,-0.75 20.726,-0.46 21.977,0.1C23.228,0.66 24.347,1.478 25.26,2.5L32.625,2.5C33.487,2.5 34.314,2.842 34.923,3.452C35.533,4.061 35.875,4.888 35.875,5.75ZM11.5,9L24.5,9C24.5,7.276 23.815,5.623 22.596,4.404C21.377,3.185 19.724,2.5 18,2.5C16.276,2.5 14.623,3.185 13.404,4.404C12.185,5.623 11.5,7.276 11.5,9ZM32.625,5.75L27.191,5.75C27.561,6.794 27.75,7.893 27.75,9L27.75,10.625C27.75,11.056 27.579,11.469 27.274,11.774C26.969,12.079 26.556,12.25 26.125,12.25L9.875,12.25C9.444,12.25 9.031,12.079 8.726,11.774C8.421,11.469 8.25,11.056 8.25,10.625L8.25,9C8.25,7.893 8.439,6.794 8.809,5.75L3.375,5.75L3.375,39.875L32.625,39.875L32.625,5.75Z" fill="#343330"/>
</svg>
