<svg width="42" height="28" viewBox="0 0 42 28" fill="none" xmlns="http://www.w3.org/2000/svg" xmlns:xlink="http://www.w3.org/1999/xlink">
<path d="M20.507,0.649C11.44,0.649 3.697,6.002 0.56,13.557C3.697,21.112 11.44,26.465 20.507,26.465C29.573,26.465 37.316,21.112 40.453,13.557C37.316,6.002 29.573,0.649 20.507,0.649ZM20.507,22.162C15.502,22.162 11.44,18.307 11.44,13.557C11.44,8.807 15.502,4.952 20.507,4.952C25.511,4.952 29.573,8.807 29.573,13.557C29.573,18.307 25.511,22.162 20.507,22.162ZM20.507,8.394C17.497,8.394 15.067,10.7 15.067,13.557C15.067,16.414 17.497,18.72 20.507,18.72C23.517,18.72 25.947,16.414 25.947,13.557C25.947,10.7 23.517,8.394 20.507,8.394Z" fill="#C4C4C4"/>
</svg>
