<svg width="16" height="30" viewBox="0 0 16 30" fill="none" xmlns="http://www.w3.org/2000/svg" xmlns:xlink="http://www.w3.org/1999/xlink">
<path d="M1.202,27.081C0.714,27.569 0.714,28.36 1.202,28.848C1.69,29.337 2.481,29.337 2.97,28.848L1.202,27.081ZM2.97,0.681C2.481,0.193 1.69,0.193 1.202,0.681C0.714,1.169 0.714,1.96 1.202,2.449L2.97,0.681ZM2.97,28.848L13.836,17.982L12.068,16.214L1.202,27.081L2.97,28.848ZM13.836,17.982C15.608,16.21 15.608,13.319 13.836,11.547L12.068,13.315C12.864,14.11 12.864,15.419 12.068,16.214L13.836,17.982ZM13.836,11.547L2.97,0.681L1.202,2.449L12.068,13.315L13.836,11.547Z" transform="rotate(180 8 14.765)" fill="#979797"/>
</svg>
