<svg width="42" height="36" viewBox="0 0 42 36" fill="none" xmlns="http://www.w3.org/2000/svg" xmlns:xlink="http://www.w3.org/1999/xlink">
<path d="M17.25,10.5C17.25,9.981 17.419,9.473 17.735,9.042C18.05,8.61 18.499,8.273 19.025,8.075C19.55,7.876 20.128,7.824 20.686,7.925C21.244,8.027 21.756,8.277 22.158,8.644C22.56,9.011 22.834,9.479 22.945,9.988C23.056,10.497 22.999,11.025 22.781,11.505C22.564,11.984 22.195,12.394 21.722,12.683C21.249,12.971 20.694,13.125 20.125,13.125C19.362,13.125 18.631,12.848 18.092,12.356C17.553,11.864 17.25,11.196 17.25,10.5ZM8.625,10.5C8.625,7.715 9.837,5.045 11.993,3.075C14.15,1.106 17.075,0 20.125,0C23.175,0 26.1,1.106 28.257,3.075C30.413,5.045 31.625,7.715 31.625,10.5C31.625,20.336 21.279,25.846 20.844,26.078C20.627,26.191 20.381,26.251 20.13,26.251C19.88,26.251 19.634,26.191 19.417,26.078C18.971,25.846 8.625,20.344 8.625,10.5ZM11.5,10.5C11.5,17.423 17.94,22.019 20.125,23.379C22.308,22.02 28.75,17.423 28.75,10.5C28.75,8.411 27.841,6.408 26.224,4.932C24.606,3.455 22.412,2.625 20.125,2.625C17.838,2.625 15.644,3.455 14.026,4.932C12.409,6.408 11.5,8.411 11.5,10.5ZM33.56,21.596C33.206,21.489 32.821,21.512 32.485,21.659C32.15,21.807 31.89,22.068 31.761,22.387C31.632,22.706 31.643,23.059 31.793,23.37C31.943,23.682 32.22,23.928 32.565,24.056C35.531,25.059 37.375,26.401 37.375,27.562C37.375,29.754 30.813,32.812 20.125,32.812C9.437,32.812 2.875,29.754 2.875,27.562C2.875,26.401 4.719,25.059 7.685,24.058C8.03,23.929 8.307,23.683 8.457,23.372C8.607,23.06 8.618,22.708 8.489,22.389C8.36,22.07 8.1,21.809 7.765,21.661C7.429,21.513 7.044,21.49 6.69,21.597C2.375,23.049 0,25.169 0,27.562C0,32.678 10.37,35.438 20.125,35.438C29.88,35.438 40.25,32.678 40.25,27.562C40.25,25.169 37.875,23.049 33.56,21.596Z" fill="#343330"/>
</svg>
