<svg width="64" height="22" viewBox="0 0 64 22" fill="none" xmlns="http://www.w3.org/2000/svg" xmlns:xlink="http://www.w3.org/1999/xlink">
<path d="M33.099,13.685C33.063,10.806 35.665,9.199 37.625,8.244C39.639,7.264 40.316,6.636 40.308,5.759C40.293,4.418 38.701,3.826 37.212,3.803C34.614,3.763 33.103,4.504 31.902,5.065L30.966,0.686C32.171,0.13 34.402,-0.354 36.716,-0.375C42.147,-0.375 45.701,2.306 45.72,6.463C45.741,11.738 38.423,12.03 38.473,14.388C38.49,15.103 39.172,15.866 40.667,16.06C41.407,16.158 43.45,16.233 45.766,15.167L46.675,19.404C45.43,19.858 43.829,20.292 41.836,20.292C36.724,20.292 33.128,17.574 33.099,13.685M55.41,19.927C54.418,19.927 53.582,19.348 53.209,18.461L45.451,-0.064L50.878,-0.064L51.958,2.921L58.59,2.921L59.216,-0.064L64,-0.064L59.826,19.927L55.41,19.927M56.169,14.527L57.735,7.02L53.445,7.02L56.169,14.527M26.519,19.927L22.241,-0.064L27.413,-0.064L31.689,19.927L26.519,19.927M18.868,19.927L13.485,6.32L11.308,17.89C11.052,19.181 10.043,19.927 8.923,19.927L0.123,19.927L0,19.346C1.806,18.954 3.859,18.322 5.102,17.646C5.864,17.232 6.081,16.871 6.331,15.889L10.455,-0.064L15.92,-0.064L24.299,19.927L18.868,19.927Z" fill="url(#pf_0_278_4394)"/>
<defs>
<linearGradient id="pf_0_278_4394" x1="29.423" y1="-0.79" x2="35.121" y2="20.292" gradientUnits="userSpaceOnUse">
<stop stop-color="#222357"/>
<stop offset="1" stop-color="#254AA5"/>
</linearGradient>
</defs>
</svg>
