<svg width="58" height="44" viewBox="0 0 58 44" fill="none" xmlns="http://www.w3.org/2000/svg" xmlns:xlink="http://www.w3.org/1999/xlink">
<path d="M32,31.42C35.135,29.467 37.549,26.547 38.877,23.1C40.204,19.653 40.373,15.868 39.357,12.316C38.342,8.765 36.197,5.641 33.248,3.417C30.299,1.193 26.706,-0.01 23.013,-0.01C19.319,-0.01 15.726,1.193 12.777,3.417C9.828,5.641 7.683,8.765 6.668,12.316C5.652,15.868 5.821,19.653 7.148,23.1C8.476,26.547 10.89,29.467 14.025,31.42C8.863,33.11 4.218,36.268 0.483,40.713C0.141,41.119 -0.025,41.644 0.021,42.173C0.066,42.701 0.32,43.19 0.726,43.531C1.132,43.873 1.658,44.039 2.186,43.993C2.715,43.948 3.204,43.694 3.545,43.288C8.563,37.298 15.478,34 23,34C30.523,34 37.438,37.298 42.47,43.288C42.812,43.694 43.3,43.948 43.829,43.993C44.358,44.039 44.883,43.873 45.289,43.531C45.695,43.19 45.949,42.701 45.994,42.173C46.04,41.644 45.874,41.119 45.533,40.713C41.795,36.268 37.15,33.11 32,31.42ZM10,17C10,14.429 10.762,11.916 12.191,9.778C13.619,7.64 15.65,5.974 18.025,4.99C20.401,4.006 23.014,3.748 25.536,4.25C28.058,4.752 30.374,5.99 32.192,7.808C34.011,9.626 35.249,11.942 35.75,14.464C36.252,16.986 35.994,19.6 35.01,21.975C34.027,24.351 32.36,26.381 30.222,27.809C28.085,29.238 25.571,30 23,30C19.553,29.996 16.249,28.625 13.812,26.188C11.375,23.751 10.004,20.447 10,17ZM47.84,6.4C49.265,9.752 50,13.358 50,17C50,20.643 49.265,24.248 47.84,27.6C47.686,27.961 47.43,28.268 47.103,28.484C46.775,28.7 46.392,28.815 46,28.815C45.669,28.815 45.343,28.734 45.051,28.577C44.76,28.42 44.512,28.193 44.329,27.917C44.147,27.641 44.036,27.323 44.006,26.994C43.977,26.664 44.03,26.332 44.16,26.028C45.374,23.173 46,20.102 46,17C46,13.898 45.374,10.828 44.16,7.973C43.952,7.485 43.945,6.934 44.143,6.441C44.341,5.949 44.726,5.555 45.214,5.346C45.702,5.138 46.253,5.132 46.745,5.329C47.238,5.527 47.632,5.912 47.84,6.4ZM58,17C58.009,21.74 57.049,26.432 55.178,30.788C54.959,31.26 54.564,31.628 54.079,31.814C53.593,32 53.054,31.99 52.575,31.785C52.097,31.58 51.718,31.196 51.517,30.716C51.317,30.236 51.312,29.697 51.503,29.213C53.151,25.352 54,21.198 54,17C54,12.803 53.151,8.648 51.503,4.788C51.39,4.545 51.327,4.282 51.318,4.015C51.309,3.747 51.354,3.481 51.449,3.231C51.545,2.981 51.69,2.753 51.875,2.56C52.061,2.367 52.283,2.213 52.529,2.108C52.775,2.003 53.04,1.948 53.307,1.946C53.575,1.945 53.84,1.997 54.087,2.1C54.334,2.203 54.558,2.355 54.745,2.546C54.932,2.737 55.079,2.964 55.178,3.213C57.049,7.568 58.009,12.26 58,17Z" fill="#FFFFFF"/>
</svg>
