<svg width="62" height="36" viewBox="0 0 62 36" fill="none" xmlns="http://www.w3.org/2000/svg" xmlns:xlink="http://www.w3.org/1999/xlink">
<path d="M48,0L6,0C4.409,0 2.883,0.632 1.757,1.757C0.632,2.883 0,4.409 0,6L0,30C0,31.591 0.632,33.117 1.757,34.243C2.883,35.368 4.409,36 6,36L48,36C49.591,36 51.117,35.368 52.243,34.243C53.368,33.117 54,31.591 54,30L54,6C54,4.409 53.368,2.883 52.243,1.757C51.117,0.632 49.591,0 48,0ZM50,30C50,30.53 49.789,31.039 49.414,31.414C49.039,31.789 48.53,32 48,32L6,32C5.47,32 4.961,31.789 4.586,31.414C4.211,31.039 4,30.53 4,30L4,6C4,5.47 4.211,4.961 4.586,4.586C4.961,4.211 5.47,4 6,4L48,4C48.53,4 49.039,4.211 49.414,4.586C49.789,4.961 50,5.47 50,6L50,30ZM44,10L44,26C44,26.53 43.789,27.039 43.414,27.414C43.039,27.789 42.53,28 42,28C41.47,28 40.961,27.789 40.586,27.414C40.211,27.039 40,26.53 40,26L40,10C40,9.47 40.211,8.961 40.586,8.586C40.961,8.211 41.47,8 42,8C42.53,8 43.039,8.211 43.414,8.586C43.789,8.961 44,9.47 44,10ZM34,10L34,26C34,26.53 33.789,27.039 33.414,27.414C33.039,27.789 32.53,28 32,28C31.47,28 30.961,27.789 30.586,27.414C30.211,27.039 30,26.53 30,26L30,10C30,9.47 30.211,8.961 30.586,8.586C30.961,8.211 31.47,8 32,8C32.53,8 33.039,8.211 33.414,8.586C33.789,8.961 34,9.47 34,10ZM24,10L24,26C24,26.53 23.789,27.039 23.414,27.414C23.039,27.789 22.53,28 22,28C21.47,28 20.961,27.789 20.586,27.414C20.211,27.039 20,26.53 20,26L20,10C20,9.47 20.211,8.961 20.586,8.586C20.961,8.211 21.47,8 22,8C22.53,8 23.039,8.211 23.414,8.586C23.789,8.961 24,9.47 24,10ZM14,10L14,26C14,26.53 13.789,27.039 13.414,27.414C13.039,27.789 12.53,28 12,28C11.47,28 10.961,27.789 10.586,27.414C10.211,27.039 10,26.53 10,26L10,10C10,9.47 10.211,8.961 10.586,8.586C10.961,8.211 11.47,8 12,8C12.53,8 13.039,8.211 13.414,8.586C13.789,8.961 14,9.47 14,10ZM62,10L62,26C62,26.53 61.789,27.039 61.414,27.414C61.039,27.789 60.53,28 60,28C59.47,28 58.961,27.789 58.586,27.414C58.211,27.039 58,26.53 58,26L58,10C58,9.47 58.211,8.961 58.586,8.586C58.961,8.211 59.47,8 60,8C60.53,8 61.039,8.211 61.414,8.586C61.789,8.961 62,9.47 62,10Z" fill="#000000"/>
</svg>
