<svg width="48" height="36" viewBox="0 0 48 36" fill="none" xmlns="http://www.w3.org/2000/svg" xmlns:xlink="http://www.w3.org/1999/xlink">
<path d="M25.25,25.654C27.797,24.067 29.759,21.694 30.837,18.894C31.916,16.093 32.053,13.018 31.228,10.132C30.403,7.247 28.66,4.709 26.264,2.902C23.868,1.095 20.949,0.117 17.948,0.117C14.947,0.117 12.027,1.095 9.631,2.902C7.235,4.709 5.493,7.247 4.668,10.132C3.842,13.018 3.98,16.093 5.058,18.894C6.137,21.694 8.098,24.067 10.645,25.654C6.451,27.027 2.677,29.593 -0.358,33.204C-0.635,33.534 -0.77,33.961 -0.733,34.39C-0.696,34.82 -0.49,35.217 -0.16,35.494C0.17,35.772 0.597,35.907 1.026,35.87C1.456,35.833 1.853,35.626 2.13,35.296C6.207,30.43 11.826,27.75 17.938,27.75C24.05,27.75 29.668,30.43 33.757,35.296C34.034,35.626 34.432,35.833 34.861,35.87C35.291,35.907 35.717,35.772 36.047,35.494C36.377,35.217 36.583,34.82 36.621,34.39C36.658,33.961 36.523,33.534 36.245,33.204C33.209,29.593 29.434,27.027 25.25,25.654ZM7.375,13.938C7.375,11.849 7.995,9.807 9.155,8.07C10.316,6.333 11.965,4.979 13.895,4.179C15.826,3.38 17.949,3.171 19.998,3.578C22.047,3.986 23.929,4.992 25.406,6.469C26.884,7.946 27.89,9.828 28.297,11.877C28.705,13.926 28.496,16.05 27.696,17.98C26.897,19.91 25.543,21.56 23.806,22.72C22.069,23.881 20.027,24.5 17.938,24.5C15.137,24.497 12.452,23.383 10.472,21.403C8.492,19.423 7.378,16.738 7.375,13.938ZM38.12,5.325C39.278,8.049 39.875,10.978 39.875,13.938C39.875,16.897 39.278,19.827 38.12,22.55C37.995,22.843 37.787,23.093 37.521,23.269C37.255,23.444 36.944,23.538 36.625,23.538C36.356,23.538 36.091,23.471 35.854,23.344C35.617,23.216 35.416,23.032 35.268,22.808C35.119,22.583 35.029,22.325 35.005,22.058C34.981,21.79 35.024,21.52 35.13,21.273C36.117,18.953 36.625,16.458 36.625,13.938C36.625,11.417 36.117,8.922 35.13,6.603C34.961,6.206 34.956,5.759 35.116,5.359C35.277,4.959 35.59,4.639 35.986,4.469C36.383,4.3 36.83,4.295 37.231,4.455C37.631,4.616 37.951,4.929 38.12,5.325ZM46.375,13.938C46.383,17.789 45.602,21.602 44.082,25.14C43.904,25.524 43.584,25.823 43.189,25.974C42.794,26.125 42.356,26.117 41.968,25.95C41.579,25.784 41.271,25.472 41.108,25.082C40.945,24.692 40.941,24.254 41.096,23.86C42.435,20.724 43.125,17.348 43.125,13.938C43.125,10.527 42.435,7.152 41.096,4.015C41.004,3.818 40.953,3.604 40.946,3.387C40.939,3.17 40.975,2.953 41.053,2.75C41.13,2.547 41.248,2.362 41.399,2.205C41.55,2.048 41.73,1.924 41.93,1.838C42.13,1.752 42.345,1.708 42.562,1.707C42.78,1.705 42.995,1.748 43.196,1.832C43.396,1.915 43.578,2.039 43.73,2.194C43.883,2.349 44.002,2.533 44.082,2.735C45.602,6.274 46.383,10.086 46.375,13.938Z" fill="#FF0000"/>
</svg>
