<svg width="30" height="28" viewBox="0 0 30 28" fill="none" xmlns="http://www.w3.org/2000/svg" xmlns:xlink="http://www.w3.org/1999/xlink">
<path d="M14.563,-0.625C10.834,-0.621 7.26,0.862 4.623,3.498C1.987,6.135 0.504,9.709 0.5,13.438L0.5,25.25C0.5,25.847 0.737,26.419 1.159,26.841C1.581,27.263 2.153,27.5 2.75,27.5L14.563,27.5C18.292,27.5 21.869,26.018 24.506,23.381C27.143,20.744 28.625,17.167 28.625,13.438C28.625,9.708 27.143,6.131 24.506,3.494C21.869,0.857 18.292,-0.625 14.563,-0.625ZM14.563,25.25L2.75,25.25L2.75,13.438C2.75,11.101 3.443,8.817 4.741,6.875C6.039,4.932 7.884,3.418 10.042,2.524C12.2,1.63 14.576,1.396 16.867,1.852C19.158,2.308 21.263,3.433 22.915,5.085C24.567,6.737 25.692,8.842 26.148,11.133C26.604,13.424 26.37,15.8 25.476,17.958C24.582,20.116 23.068,21.961 21.125,23.259C19.183,24.557 16.899,25.25 14.563,25.25ZM16.25,14C16.25,14.334 16.151,14.66 15.966,14.938C15.78,15.215 15.517,15.431 15.208,15.559C14.9,15.687 14.561,15.72 14.233,15.655C13.906,15.59 13.605,15.429 13.369,15.193C13.133,14.957 12.973,14.657 12.907,14.329C12.842,14.002 12.876,13.663 13.003,13.354C13.131,13.046 13.347,12.782 13.625,12.597C13.902,12.411 14.229,12.313 14.563,12.313C15.01,12.313 15.439,12.49 15.756,12.807C16.072,13.123 16.25,13.552 16.25,14ZM10.063,14C10.063,14.334 9.964,14.66 9.778,14.938C9.593,15.215 9.329,15.431 9.021,15.559C8.712,15.687 8.373,15.72 8.046,15.655C7.718,15.59 7.418,15.429 7.182,15.193C6.946,14.957 6.785,14.657 6.72,14.329C6.655,14.002 6.688,13.663 6.816,13.354C6.944,13.046 7.16,12.782 7.437,12.597C7.715,12.411 8.041,12.313 8.375,12.313C8.823,12.313 9.252,12.49 9.568,12.807C9.885,13.123 10.063,13.552 10.063,14ZM22.438,14C22.438,14.334 22.339,14.66 22.153,14.938C21.968,15.215 21.704,15.431 21.396,15.559C21.087,15.687 20.748,15.72 20.421,15.655C20.093,15.59 19.793,15.429 19.557,15.193C19.321,14.957 19.16,14.657 19.095,14.329C19.03,14.002 19.063,13.663 19.191,13.354C19.319,13.046 19.535,12.782 19.812,12.597C20.09,12.411 20.416,12.313 20.75,12.313C21.198,12.313 21.627,12.49 21.943,12.807C22.26,13.123 22.438,13.552 22.438,14Z" fill="#343330"/>
</svg>
