<svg width="24" height="28" viewBox="0 0 24 28" fill="none" xmlns="http://www.w3.org/2000/svg" xmlns:xlink="http://www.w3.org/1999/xlink">
<path d="M12,6C11.011,6 10.044,6.293 9.222,6.843C8.4,7.392 7.759,8.173 7.381,9.087C7.002,10 6.903,11.006 7.096,11.975C7.289,12.945 7.765,13.836 8.464,14.536C9.164,15.235 10.055,15.711 11.025,15.904C11.994,16.097 13,15.998 13.913,15.619C14.827,15.241 15.608,14.6 16.157,13.778C16.707,12.956 17,11.989 17,11C17,9.674 16.473,8.402 15.536,7.464C14.598,6.527 13.326,6 12,6ZM12,14C11.407,14 10.827,13.824 10.333,13.494C9.84,13.165 9.455,12.696 9.228,12.148C9.001,11.6 8.942,10.997 9.058,10.415C9.173,9.833 9.459,9.298 9.879,8.879C10.298,8.459 10.833,8.173 11.415,8.058C11.997,7.942 12.6,8.001 13.148,8.228C13.696,8.455 14.165,8.84 14.494,9.333C14.824,9.827 15,10.407 15,11C15,11.796 14.684,12.559 14.121,13.121C13.559,13.684 12.796,14 12,14ZM12,0C9.084,0.003 6.288,1.163 4.225,3.225C2.163,5.288 1.003,8.084 1,11C1,14.925 2.814,19.085 6.25,23.031C7.794,24.814 9.532,26.42 11.431,27.819C11.599,27.937 11.8,28 12.005,28C12.21,28 12.411,27.937 12.579,27.819C14.475,26.42 16.209,24.814 17.75,23.031C21.181,19.085 23,14.925 23,11C22.997,8.084 21.837,5.288 19.775,3.225C17.712,1.163 14.916,0.003 12,0ZM12,25.75C9.934,24.125 3,18.156 3,11C3,8.613 3.948,6.324 5.636,4.636C7.324,2.948 9.613,2 12,2C14.387,2 16.676,2.948 18.364,4.636C20.052,6.324 21,8.613 21,11C21,18.154 14.066,24.125 12,25.75Z" fill="#FF0000"/>
</svg>
