<svg width="36" height="36" viewBox="0 0 36 36" fill="none" xmlns="http://www.w3.org/2000/svg" xmlns:xlink="http://www.w3.org/1999/xlink">
<path d="M18,0.5C14.539,0.5 11.155,1.526 8.278,3.449C5.4,5.372 3.157,8.105 1.832,11.303C0.508,14.501 0.161,18.019 0.836,21.414C1.512,24.809 3.178,27.927 5.626,30.374C8.073,32.822 11.191,34.488 14.586,35.164C17.981,35.839 21.499,35.492 24.697,34.168C27.895,32.843 30.628,30.6 32.551,27.722C34.474,24.845 35.5,21.461 35.5,18C35.5,13.359 33.656,8.908 30.374,5.626C27.092,2.344 22.641,0.5 18,0.5L18,0.5ZM18,33C15.033,33 12.133,32.12 9.666,30.472C7.2,28.824 5.277,26.481 4.142,23.74C3.006,20.999 2.709,17.983 3.288,15.074C3.867,12.164 5.296,9.491 7.393,7.393C9.491,5.296 12.164,3.867 15.074,3.288C17.983,2.709 20.999,3.007 23.74,4.142C26.481,5.277 28.824,7.2 30.472,9.666C32.12,12.133 33,15.033 33,18C33,21.978 31.42,25.794 28.607,28.607C25.794,31.42 21.978,33 18,33Z" fill="#027FEE"/>
</svg>
