<svg width="22" height="28" viewBox="0 0 22 28" fill="none" xmlns="http://www.w3.org/2000/svg" xmlns:xlink="http://www.w3.org/1999/xlink">
<path d="M10,6C9.011,6 8.044,6.293 7.222,6.843C6.4,7.392 5.759,8.173 5.381,9.087C5.002,10 4.903,11.006 5.096,11.975C5.289,12.945 5.765,13.836 6.464,14.536C7.164,15.235 8.055,15.711 9.025,15.904C9.994,16.097 11,15.998 11.913,15.619C12.827,15.241 13.608,14.6 14.157,13.778C14.707,12.956 15,11.989 15,11C15,9.674 14.473,8.402 13.536,7.464C12.598,6.527 11.326,6 10,6ZM10,14C9.407,14 8.827,13.824 8.333,13.494C7.84,13.165 7.455,12.696 7.228,12.148C7.001,11.6 6.942,10.997 7.058,10.415C7.173,9.833 7.459,9.298 7.879,8.879C8.298,8.459 8.833,8.173 9.415,8.058C9.997,7.942 10.6,8.001 11.148,8.228C11.696,8.455 12.165,8.84 12.494,9.333C12.824,9.827 13,10.407 13,11C13,11.796 12.684,12.559 12.121,13.121C11.559,13.684 10.796,14 10,14ZM10,0C7.084,0.003 4.288,1.163 2.225,3.225C0.163,5.288 -0.997,8.084 -1,11C-1,14.925 0.814,19.085 4.25,23.031C5.794,24.814 7.532,26.42 9.431,27.819C9.599,27.937 9.8,28 10.005,28C10.21,28 10.411,27.937 10.579,27.819C12.475,26.42 14.209,24.814 15.75,23.031C19.181,19.085 21,14.925 21,11C20.997,8.084 19.837,5.288 17.775,3.225C15.712,1.163 12.916,0.003 10,0ZM10,25.75C7.934,24.125 1,18.156 1,11C1,8.613 1.948,6.324 3.636,4.636C5.324,2.948 7.613,2 10,2C12.387,2 14.676,2.948 16.364,4.636C18.052,6.324 19,8.613 19,11C19,18.154 12.066,24.125 10,25.75Z" fill="#492626"/>
</svg>
