<svg width="24" height="32" viewBox="0 0 24 32" fill="none" xmlns="http://www.w3.org/2000/svg" xmlns:xlink="http://www.w3.org/1999/xlink">
<path d="M21.535,6.875L21.514,6.854L15.901,1.569C15.526,1.2 15.02,0.994 14.493,0.996C13.966,0.998 13.462,1.207 13.089,1.579L7.521,7.109L7.329,6.914C6.735,6.373 5.956,6.081 5.154,6.1C4.351,6.118 3.586,6.444 3.017,7.011C2.449,7.578 2.12,8.342 2.1,9.145C2.08,9.948 2.37,10.728 2.909,11.322L3.091,11.507L0.586,14C0.401,14.186 0.253,14.406 0.153,14.649C0.052,14.892 0,15.152 0,15.414C0,15.677 0.052,15.937 0.153,16.18C0.253,16.423 0.401,16.643 0.586,16.829L2.171,18.414C2.546,18.787 3.054,18.997 3.583,18.997C4.112,18.997 4.62,18.787 4.995,18.414L7.486,15.957L9,17.5L0.914,25.671C0.601,25.956 0.349,26.301 0.174,26.686C-0.002,27.071 -0.097,27.487 -0.107,27.91C-0.117,28.333 -0.041,28.753 0.117,29.146C0.274,29.538 0.51,29.895 0.809,30.194C1.108,30.493 1.465,30.728 1.858,30.884C2.251,31.041 2.671,31.117 3.094,31.106C3.517,31.096 3.933,31 4.318,30.824C4.702,30.648 5.047,30.396 5.331,30.082L16.415,18.914C16.789,18.539 16.999,18.031 16.999,17.501C16.999,16.972 16.789,16.464 16.415,16.089L11.954,11.582L13.57,10L13.583,10.011L18.25,14.425C18.626,14.795 19.133,15.001 19.66,14.999C20.188,14.997 20.693,14.787 21.066,14.414L21.53,13.95C21.994,13.486 22.363,12.934 22.614,12.328C22.865,11.721 22.994,11.071 22.994,10.414C22.994,9.758 22.865,9.108 22.614,8.501C22.363,7.894 21.994,7.343 21.53,6.879L21.535,6.875ZM3.586,17L2,15.416L4.5,12.931L6.086,14.539L3.586,17ZM3.914,28.671C3.813,28.79 3.689,28.887 3.549,28.956C3.409,29.025 3.256,29.063 3.1,29.07C2.944,29.076 2.789,29.05 2.644,28.993C2.498,28.936 2.367,28.85 2.257,28.739C2.147,28.629 2.061,28.496 2.005,28.351C1.948,28.205 1.923,28.05 1.93,27.894C1.937,27.738 1.977,27.586 2.046,27.446C2.115,27.306 2.213,27.182 2.333,27.082L10.416,18.911C10.789,18.536 10.998,18.029 10.998,17.501C10.998,16.972 10.789,16.465 10.416,16.09L4.329,9.914C4.146,9.699 4.05,9.423 4.061,9.141C4.072,8.858 4.189,8.591 4.388,8.391C4.588,8.19 4.855,8.073 5.137,8.061C5.419,8.048 5.696,8.143 5.911,8.325L15,17.5L3.914,28.671ZM20.125,12.535L19.656,13C19.65,12.993 19.644,12.986 19.636,12.98L14.961,8.562C14.585,8.2 14.082,7.999 13.559,8.001C13.036,8.004 12.535,8.211 12.163,8.577L10.546,10.161L8.929,8.529L14.5,3L14.521,3.02L20.131,8.302C20.689,8.866 21.002,9.628 21,10.421C20.998,11.214 20.682,11.974 20.121,12.535L20.125,12.535Z" fill="#14D710"/>
</svg>
