<svg width="56" height="42" viewBox="0 0 56 42" fill="none" xmlns="http://www.w3.org/2000/svg" xmlns:xlink="http://www.w3.org/1999/xlink">
<path d="M31,39C31,39.593 30.824,40.173 30.494,40.667C30.165,41.16 29.696,41.545 29.148,41.772C28.6,41.999 27.997,42.058 27.415,41.942C26.833,41.827 26.298,41.541 25.879,41.121C25.459,40.702 25.173,40.167 25.058,39.585C24.942,39.003 25.001,38.4 25.228,37.852C25.455,37.304 25.84,36.835 26.333,36.506C26.827,36.176 27.407,36 28,36C28.796,36 29.559,36.316 30.121,36.879C30.684,37.441 31,38.204 31,39ZM55.27,9.75C47.581,3.444 37.944,-0.003 28,-0.003C18.056,-0.003 8.419,3.444 0.73,9.75C0.527,9.917 0.359,10.122 0.235,10.354C0.111,10.586 0.034,10.839 0.009,11.101C-0.017,11.362 0.009,11.627 0.085,11.878C0.162,12.129 0.287,12.363 0.454,12.566C0.62,12.769 0.826,12.938 1.057,13.061C1.289,13.185 1.543,13.262 1.805,13.288C2.333,13.34 2.86,13.179 3.27,12.843C10.243,7.124 18.982,3.999 28,3.999C37.018,3.999 45.757,7.124 52.73,12.843C53.14,13.179 53.667,13.34 54.195,13.288C54.723,13.236 55.209,12.976 55.546,12.566C55.883,12.156 56.043,11.629 55.991,11.101C55.94,10.573 55.68,10.087 55.27,9.75ZM47.25,18.693C41.773,14.357 34.993,11.997 28.007,11.997C21.022,11.997 14.242,14.357 8.765,18.693C8.349,19.022 8.081,19.503 8.021,20.03C7.96,20.557 8.11,21.087 8.44,21.503C8.77,21.918 9.251,22.186 9.778,22.247C10.305,22.308 10.834,22.157 11.25,21.828C16.02,18.052 21.924,15.998 28.007,15.998C34.09,15.998 39.995,18.052 44.765,21.828C44.971,21.991 45.207,22.112 45.459,22.184C45.712,22.256 45.976,22.277 46.237,22.247C46.498,22.217 46.751,22.136 46.98,22.008C47.21,21.88 47.412,21.708 47.575,21.503C47.738,21.297 47.859,21.061 47.931,20.808C48.003,20.555 48.025,20.291 47.995,20.03C47.964,19.769 47.883,19.517 47.755,19.287C47.628,19.058 47.456,18.856 47.25,18.693ZM39.185,27.633C35.936,25.272 32.023,24 28.007,24C23.991,24 20.079,25.272 16.83,27.633C16.401,27.945 16.114,28.415 16.031,28.939C15.949,29.463 16.078,29.999 16.39,30.428C16.702,30.857 17.172,31.144 17.696,31.226C18.221,31.309 18.756,31.18 19.185,30.868C21.749,29.003 24.837,27.999 28.007,27.999C31.178,27.999 34.266,29.003 36.83,30.868C37.042,31.022 37.283,31.133 37.539,31.195C37.794,31.257 38.059,31.267 38.319,31.226C38.578,31.186 38.827,31.094 39.051,30.957C39.275,30.82 39.47,30.64 39.625,30.428C39.78,30.215 39.891,29.974 39.952,29.719C40.014,29.463 40.025,29.198 39.984,28.939C39.943,28.679 39.851,28.43 39.714,28.206C39.577,27.982 39.397,27.787 39.185,27.633Z" fill="#000000"/>
</svg>
