<svg width="16" height="30" viewBox="0 0 16 30" fill="none" xmlns="http://www.w3.org/2000/svg" xmlns:xlink="http://www.w3.org/1999/xlink">
<path d="M1.202,27.08C0.714,27.568 0.714,28.36 1.202,28.848C1.69,29.336 2.481,29.336 2.97,28.848L1.202,27.08ZM2.97,0.68C2.481,0.192 1.69,0.192 1.202,0.68C0.714,1.168 0.714,1.96 1.202,2.448L2.97,0.68ZM2.97,28.848L13.836,17.981L12.068,16.214L1.202,27.08L2.97,28.848ZM13.836,17.981C15.608,16.21 15.608,13.318 13.836,11.547L12.068,13.315C12.864,14.11 12.864,15.418 12.068,16.214L13.836,17.981ZM13.836,11.547L2.97,0.68L1.202,2.448L12.068,13.315L13.836,11.547Z" transform="rotate(180 8 14.764)" fill="#979797"/>
</svg>
