<svg width="56" height="72" viewBox="0 0 56 72" fill="none" xmlns="http://www.w3.org/2000/svg" xmlns:xlink="http://www.w3.org/1999/xlink">
<path d="M50.5,66L35.044,66C37.64,63.682 40.089,61.203 42.375,58.578C50.953,48.713 55.5,38.312 55.5,28.5C55.5,21.207 52.603,14.212 47.445,9.055C42.288,3.897 35.293,1 28,1C20.707,1 13.712,3.897 8.555,9.055C3.397,14.212 0.5,21.207 0.5,28.5C0.5,38.312 5.034,48.713 13.625,58.578C15.911,61.203 18.36,63.682 20.956,66L5.5,66C4.837,66 4.201,66.263 3.732,66.732C3.263,67.201 3,67.837 3,68.5C3,69.163 3.263,69.799 3.732,70.268C4.201,70.737 4.837,71 5.5,71L50.5,71C51.163,71 51.799,70.737 52.268,70.268C52.737,69.799 53,69.163 53,68.5C53,67.837 52.737,67.201 52.268,66.732C51.799,66.263 51.163,66 50.5,66ZM5.5,28.5C5.5,22.533 7.871,16.81 12.09,12.59C16.31,8.371 22.033,6 28,6C33.967,6 39.69,8.371 43.91,12.59C48.129,16.81 50.5,22.533 50.5,28.5C50.5,46.384 33.166,61.312 28,65.375C22.834,61.312 5.5,46.384 5.5,28.5ZM40.5,28.5C40.5,26.028 39.767,23.611 38.393,21.555C37.02,19.5 35.068,17.898 32.784,16.952C30.499,16.005 27.986,15.758 25.561,16.24C23.137,16.722 20.909,17.913 19.161,19.661C17.413,21.409 16.223,23.637 15.74,26.061C15.258,28.486 15.505,30.999 16.451,33.284C17.398,35.568 19,37.52 21.055,38.893C23.111,40.267 25.528,41 28,41C31.315,41 34.495,39.683 36.839,37.339C39.183,34.995 40.5,31.815 40.5,28.5ZM20.5,28.5C20.5,27.017 20.94,25.567 21.764,24.333C22.588,23.1 23.759,22.139 25.13,21.571C26.5,21.003 28.008,20.855 29.463,21.144C30.918,21.433 32.254,22.148 33.303,23.197C34.352,24.246 35.067,25.582 35.356,27.037C35.645,28.492 35.497,30 34.929,31.37C34.361,32.741 33.4,33.912 32.167,34.736C30.933,35.56 29.483,36 28,36C26.011,36 24.103,35.21 22.697,33.803C21.29,32.397 20.5,30.489 20.5,28.5Z" fill="#FF0000"/>
</svg>
