<svg width="34" height="34" viewBox="0 0 34 34" fill="none" xmlns="http://www.w3.org/2000/svg" xmlns:xlink="http://www.w3.org/1999/xlink">
<path d="M23.134,11.366C23.251,11.482 23.343,11.62 23.406,11.771C23.469,11.923 23.501,12.086 23.501,12.25C23.501,12.414 23.469,12.577 23.406,12.729C23.343,12.88 23.251,13.018 23.134,13.134L14.384,21.884C14.268,22.001 14.13,22.093 13.979,22.156C13.827,22.219 13.664,22.251 13.5,22.251C13.336,22.251 13.173,22.219 13.021,22.156C12.87,22.093 12.732,22.001 12.616,21.884L8.866,18.134C8.631,17.9 8.499,17.582 8.499,17.25C8.499,16.918 8.631,16.6 8.866,16.366C9.1,16.131 9.418,15.999 9.75,15.999C10.082,15.999 10.4,16.131 10.634,16.366L13.5,19.233L21.366,11.366C21.482,11.249 21.62,11.157 21.771,11.094C21.923,11.031 22.086,10.999 22.25,10.999C22.414,10.999 22.577,11.031 22.729,11.094C22.88,11.157 23.018,11.249 23.134,11.366ZM32.25,16C32.25,19.214 31.297,22.356 29.511,25.028C27.726,27.7 25.188,29.783 22.219,31.013C19.249,32.243 15.982,32.565 12.83,31.938C9.678,31.311 6.782,29.763 4.51,27.49C2.237,25.218 0.689,22.322 0.062,19.17C-0.565,16.018 -0.243,12.751 0.987,9.781C2.217,6.812 4.3,4.274 6.972,2.489C9.644,0.703 12.786,-0.25 16,-0.25C20.308,-0.245 24.439,1.468 27.485,4.515C30.532,7.561 32.245,11.692 32.25,16ZM29.75,16C29.75,13.28 28.944,10.622 27.433,8.361C25.922,6.1 23.774,4.337 21.262,3.297C18.749,2.256 15.985,1.984 13.318,2.514C10.65,3.045 8.2,4.354 6.277,6.277C4.354,8.2 3.045,10.65 2.514,13.318C1.984,15.985 2.256,18.749 3.297,21.262C4.337,23.774 6.1,25.922 8.361,27.433C10.622,28.944 13.281,29.75 16,29.75C19.645,29.746 23.14,28.296 25.718,25.718C28.296,23.14 29.746,19.645 29.75,16Z" fill="#2AB230"/>
</svg>
