<svg width="30" height="22" viewBox="0 0 30 22" fill="none" xmlns="http://www.w3.org/2000/svg" xmlns:xlink="http://www.w3.org/1999/xlink">
<path d="M14.405,4.126C18.569,4.126 22.573,5.759 25.59,8.687C25.817,8.913 26.18,8.91 26.404,8.68L28.576,6.443C28.689,6.327 28.753,6.169 28.752,6.005C28.751,5.841 28.686,5.684 28.571,5.568C20.652,-2.179 8.158,-2.179 0.238,5.568C0.123,5.683 0.058,5.84 0.057,6.005C0.056,6.169 0.119,6.326 0.232,6.443L2.405,8.68C2.629,8.91 2.992,8.913 3.219,8.687C6.237,5.759 10.242,4.126 14.405,4.126ZM14.465,11.02C16.753,11.02 18.958,11.888 20.654,13.455C20.883,13.678 21.245,13.673 21.468,13.445L23.638,11.207C23.752,11.09 23.815,10.93 23.813,10.765C23.812,10.6 23.745,10.442 23.629,10.327C18.465,5.424 10.469,5.424 5.306,10.327C5.189,10.442 5.123,10.6 5.121,10.765C5.119,10.931 5.183,11.09 5.298,11.207L7.466,13.445C7.69,13.673 8.051,13.678 8.281,13.455C9.975,11.889 12.179,11.021 14.465,11.02ZM18.877,15.528C18.88,15.694 18.816,15.853 18.7,15.97L14.947,19.835C14.837,19.949 14.687,20.013 14.531,20.013C14.374,20.013 14.224,19.949 14.114,19.835L10.361,15.97C10.245,15.853 10.181,15.693 10.185,15.528C10.188,15.362 10.259,15.204 10.379,15.093C12.776,13.024 16.286,13.024 18.682,15.093C18.803,15.205 18.873,15.362 18.877,15.528Z" clip-rule="evenodd" fill-rule="evenodd" fill="#000000"/>
</svg>
